{
  "accessors": [
    {
      "bufferView": 2,
      "componentType": 5126,
      "count": 1318,
      "max": [
        1.018149971961975,
        1.018149971961975,
        1.024211049079895
      ],
      "min": [
        -1.018149971961975,
        -1.018149971961975,
        -1.0003770589828491
      ],
      "type": "VEC3"
    },
    {
      "bufferView": 2,
      "byteOffset": 15816,
      "componentType": 5126,
      "count": 1318,
      "max": [
        1.0,
        1.0,
        1.0
      ],
      "min": [
        -1.0,
        -1.0,
        -1.0
      ],
      "type": "VEC3"
    },
    {
      "bufferView": 3,
      "componentType": 5126,
      "count": 1318,
      "max": [
        1.0,
        1.0,
        1.0,
        1.0
      ],
      "min": [
        -1.0,
        -1.0,
        -1.0,
        -1.0
      ],
      "type": "VEC4"
    },
    {
      "bufferView": 1,
      "componentType": 5126,
      "count": 1318,
      "max": [
        0.9984909892082214,
        0.9984539747238159
      ],
      "min": [
        0.0015089999651536345,
        0.0015089999651536345
      ],
      "type": "VEC2"
    },
    {
      "bufferView": 0,
      "componentType": 5125,
      "count": 3372,
      "type": "SCALAR"
    }
  ],
  "asset": {
    "extras": {
      "author": "Spacii (https://sketchfab.com/Spacii)",
      "license": "CC-BY-4.0 (http://creativecommons.org/licenses/by/4.0/)",
      "source": "https://sketchfab.com/3d-models/flamable-barrel-e762c2f6d6e046e7b818db35cb73fc54",
      "title": "Flamable Barrel"
    },
    "generator": "Sketchfab-14.64.0",
    "version": "2.0"
  },
  "bufferViews": [
    {
      "buffer": 0,
      "byteLength": 13488,
      "name": "floatBufferViews",
      "target": 34963
    },
    {
      "buffer": 0,
      "byteLength": 10544,
      "byteOffset": 13488,
      "byteStride": 8,
      "name": "floatBufferViews",
      "target": 34962
    },
    {
      "buffer": 0,
      "byteLength": 31632,
      "byteOffset": 24032,
      "byteStride": 12,
      "name": "floatBufferViews",
      "target": 34962
    },
    {
      "buffer": 0,
      "byteLength": 21088,
      "byteOffset": 55664,
      "byteStride": 16,
      "name": "floatBufferViews",
      "target": 34962
    }
  ],
  "buffers": [
    {
      "byteLength": 76752,
      "uri": "scene.bin"
    }
  ],
  "images": [
    {
      "uri": "textures/ZenUV_Generic_Material_001_baseColor.jpeg"
    },
    {
      "uri": "textures/ZenUV_Generic_Material_001_metallicRoughness.png"
    },
    {
      "uri": "textures/ZenUV_Generic_Material_001_normal.png"
    }
  ],
  "materials": [
    {
      "doubleSided": true,
      "name": "ZenUV_Generic_Material_001",
      "normalTexture": {
        "index": 2
      },
      "occlusionTexture": {
        "index": 1
      },
      "pbrMetallicRoughness": {
        "baseColorTexture": {
          "index": 0
        },
        "metallicRoughnessTexture": {
          "index": 1
        }
      }
    }
  ],
  "meshes": [
    {
      "name": "defaultMaterial",
      "primitives": [
        {
          "attributes": {
            "NORMAL": 1,
            "POSITION": 0,
            "TANGENT": 2,
            "TEXCOORD_0": 3
          },
          "indices": 4,
          "material": 0,
          "mode": 4
        }
      ]
    }
  ],
  "nodes": [
    {
      "children": [
        1
      ],
      "matrix": [
        0.005134721752256155,
        0.0,
        0.0,
        0.0,
        0.0,
        1.1401372628796824e-18,
        -0.005134721752256155,
        0.0,
        0.0,
        0.005134721752256155,
        1.1401372628796824e-18,
        0.0,
        0.0,
        0.0,
        0.0,
        1.0
      ],
      "name": "Sketchfab_model"
    },
    {
      "children": [
        2
      ],
      "matrix": [
        1.0,
        0.0,
        0.0,
        0.0,
        0.0,
        -4.371139006309477e-08,
        0.999999999999999,
        0.0,
        0.0,
        -0.999999999999999,
        -4.371139006309477e-08,
        0.0,
        0.0,
        0.0,
        0.0,
        1.0
      ],
      "name": "Collada visual scene group"
    },
    {
      "children": [
        3
      ],
      "matrix": [
        63.688194,
        0.0,
        0.0,
        0.0,
        0.0,
        -1e-05,
        -63.688194,
        0.0,
        0.0,
        96.792969,
        -1.6e-05,
        0.0,
        65.895676,
        -13.505763,
        157.167007,
        1.0
      ],
      "name": "Cylinder"
    },
    {
      "mesh": 0,
      "name": "defaultMaterial"
    }
  ],
  "samplers": [
    {
      "magFilter": 9729,
      "minFilter": 9987,
      "wrapS": 10497,
      "wrapT": 10497
    }
  ],
  "scene": 0,
  "scenes": [
    {
      "name": "Sketchfab_Scene",
      "nodes": [
        0
      ]
    }
  ],
  "textures": [
    {
      "sampler": 0,
      "source": 0
    },
    {
      "sampler": 0,
      "source": 1
    },
    {
      "sampler": 0,
      "source": 2
    }
  ]
}
