{
  "accessors": [
    {
      "bufferView": 2,
      "componentType": 5126,
      "count": 2220,
      "max": [
        1.0,
        1.3223727941513062,
        1.0
      ],
      "min": [
        -1.0,
        -1.0,
        -1.0322524309158325
      ],
      "type": "VEC3"
    },
    {
      "bufferView": 2,
      "byteOffset": 26640,
      "componentType": 5126,
      "count": 2220,
      "max": [
        1.0,
        1.0,
        1.0
      ],
      "min": [
        -1.0,
        -1.0,
        -1.0
      ],
      "type": "VEC3"
    },
    {
      "bufferView": 1,
      "componentType": 5126,
      "count": 2220,
      "max": [
        0.8267901539802551,
        0.5650361180305481
      ],
      "min": [
        0.027810629457235336,
        0.020291030406951904
      ],
      "type": "VEC2"
    },
    {
      "bufferView": 0,
      "componentType": 5125,
      "count": 6972,
      "type": "SCALAR"
    },
    {
      "bufferView": 2,
      "byteOffset": 53280,
      "componentType": 5126,
      "count": 1152,
      "max": [
        1.0272178649902344,
        1.3387000560760498,
        0.9482050538063049
      ],
      "min": [
        -1.0302261114120483,
        -0.9433121681213379,
        -0.593889594078064
      ],
      "type": "VEC3"
    },
    {
      "bufferView": 2,
      "byteOffset": 67104,
      "componentType": 5126,
      "count": 1152,
      "max": [
        1.0,
        1.0,
        0.9993767738342285
      ],
      "min": [
        -1.0,
        -1.0,
        -0.9993767738342285
      ],
      "type": "VEC3"
    },
    {
      "bufferView": 1,
      "byteOffset": 17760,
      "componentType": 5126,
      "count": 1152,
      "max": [
        1.0,
        0.9900000095367432
      ],
      "min": [
        0.0,
        0.0
      ],
      "type": "VEC2"
    },
    {
      "bufferView": 0,
      "byteOffset": 27888,
      "componentType": 5125,
      "count": 2160,
      "type": "SCALAR"
    },
    {
      "bufferView": 2,
      "byteOffset": 80928,
      "componentType": 5126,
      "count": 912,
      "max": [
        0.8904973864555359,
        1.0,
        0.6121800541877747
      ],
      "min": [
        -0.9217851758003235,
        -6.079970836639404,
        -1.2110247611999512
      ],
      "type": "VEC3"
    },
    {
      "bufferView": 2,
      "byteOffset": 91872,
      "componentType": 5126,
      "count": 912,
      "max": [
        0.9962326884269714,
        1.0,
        0.980187714099884
      ],
      "min": [
        -0.9959601163864136,
        -1.0,
        -0.9649045467376709
      ],
      "type": "VEC3"
    },
    {
      "bufferView": 1,
      "byteOffset": 26976,
      "componentType": 5126,
      "count": 912,
      "max": [
        0.45995867252349854,
        0.30151432752609253
      ],
      "min": [
        0.39969050884246826,
        0.24731552600860596
      ],
      "type": "VEC2"
    },
    {
      "bufferView": 0,
      "byteOffset": 36528,
      "componentType": 5125,
      "count": 1560,
      "type": "SCALAR"
    }
  ],
  "asset": {
    "extras": {
      "author": "ZwiebelGames (https://sketchfab.com/ZwiebelGames)",
      "license": "CC-BY-4.0 (http://creativecommons.org/licenses/by/4.0/)",
      "source": "https://sketchfab.com/3d-models/psx-public-payphone-285381e21fc5425889c8fdf98ee73d16",
      "title": "PSX Public Payphone"
    },
    "generator": "Sketchfab-17.15.0",
    "version": "2.0"
  },
  "bufferViews": [
    {
      "buffer": 0,
      "byteLength": 42768,
      "name": "floatBufferViews",
      "target": 34963
    },
    {
      "buffer": 0,
      "byteLength": 34272,
      "byteOffset": 42768,
      "byteStride": 8,
      "name": "floatBufferViews",
      "target": 34962
    },
    {
      "buffer": 0,
      "byteLength": 102816,
      "byteOffset": 77040,
      "byteStride": 12,
      "name": "floatBufferViews",
      "target": 34962
    }
  ],
  "buffers": [
    {
      "byteLength": 179856,
      "uri": "scene.bin"
    }
  ],
  "images": [
    {
      "uri": "textures/Material.001_baseColor.png"
    }
  ],
  "materials": [
    {
      "doubleSided": true,
      "name": "Material.001",
      "pbrMetallicRoughness": {
        "baseColorTexture": {
          "index": 0
        },
        "metallicFactor": 0.3132886860526791,
        "roughnessFactor": 0.3249459394871974
      }
    },
    {
      "doubleSided": true,
      "name": "Material.002",
      "pbrMetallicRoughness": {
        "baseColorFactor": [
          0.0363815,
          0.0288103,
          0.0249444,
          1.0
        ],
        "roughnessFactor": 0.330709
      }
    }
  ],
  "meshes": [
    {
      "name": "Object_0",
      "primitives": [
        {
          "attributes": {
            "NORMAL": 1,
            "POSITION": 0,
            "TEXCOORD_0": 2
          },
          "indices": 3,
          "material": 0,
          "mode": 4
        }
      ]
    },
    {
      "name": "Object_1",
      "primitives": [
        {
          "attributes": {
            "NORMAL": 5,
            "POSITION": 4,
            "TEXCOORD_0": 6
          },
          "indices": 7,
          "material": 1,
          "mode": 4
        }
      ]
    },
    {
      "name": "Object_2",
      "primitives": [
        {
          "attributes": {
            "NORMAL": 9,
            "POSITION": 8,
            "TEXCOORD_0": 10
          },
          "indices": 11,
          "material": 0,
          "mode": 4
        }
      ]
    }
  ],
  "nodes": [
    {
      "children": [
        1
      ],
      "matrix": [
        1.0,
        0.0,
        0.0,
        0.0,
        0.0,
        2.220446049250313e-16,
        -1.0,
        0.0,
        0.0,
        1.0,
        2.220446049250313e-16,
        0.0,
        0.0,
        0.0,
        0.0,
        1.0
      ],
      "name": "Sketchfab_model"
    },
    {
      "children": [
        2
      ],
      "name": "root"
    },
    {
      "children": [
        3,
        6
      ],
      "matrix": [
        1.0,
        0.0,
        0.0,
        0.0,
        0.0,
        2.220446049250313e-16,
        1.0,
        0.0,
        0.0,
        -1.0,
        2.220446049250313e-16,
        0.0,
        0.0,
        0.0,
        0.0,
        1.0
      ],
      "name": "GLTF_SceneRootNode"
    },
    {
      "children": [
        4,
        5
      ],
      "matrix": [
        0.8123350143432617,
        0.0,
        0.0,
        0.0,
        0.0,
        1.2017086744308472,
        0.0,
        0.0,
        0.0,
        0.0,
        0.8123350143432617,
        0.0,
        0.0,
        0.0,
        0.0,
        1.0
      ],
      "name": "box_0"
    },
    {
      "mesh": 0,
      "name": "Object_4"
    },
    {
      "mesh": 1,
      "name": "Object_5"
    },
    {
      "children": [
        7
      ],
      "matrix": [
        -0.1729316014409203,
        0.0,
        -0.30879148343828033,
        0.0,
        0.0,
        0.3539173901081085,
        0.0,
        0.0,
        0.30879148343828033,
        0.0,
        -0.1729316014409203,
        0.0,
        -0.826917827129364,
        1.1479861736297607,
        0.05023098737001419,
        1.0
      ],
      "name": "phone_1"
    },
    {
      "mesh": 2,
      "name": "Object_7"
    }
  ],
  "samplers": [
    {
      "magFilter": 9729,
      "minFilter": 9987,
      "wrapS": 10497,
      "wrapT": 10497
    }
  ],
  "scene": 0,
  "scenes": [
    {
      "name": "Sketchfab_Scene",
      "nodes": [
        0
      ]
    }
  ],
  "textures": [
    {
      "sampler": 0,
      "source": 0
    }
  ]
}
