{"accessors":[{"bufferView":2,"componentType":5126,"count":3338,"max":[17.520620346069336,5.966565132141113,0.7908802032470703],"min":[-2.1099748611450195,-1.7184910774230957,-4.954590320587158],"type":"VEC3"},{"bufferView":2,"byteOffset":40056,"componentType":5126,"count":3338,"max":[0.9808124899864197,0.9999992847442627,0.9999972581863403],"min":[-1.0,-0.9999992847442627,-0.9999972581863403],"type":"VEC3"},{"bufferView":3,"componentType":5126,"count":3338,"max":[0.9849995374679565,0.9850157499313354,1.0,1.0],"min":[-0.9849995970726013,-1.0,-1.0,1.0],"type":"VEC4"},{"bufferView":1,"componentType":5126,"count":3338,"max":[1.0,0.9395043849945068],"min":[0.0,0.0],"type":"VEC2"},{"bufferView":0,"componentType":5125,"count":11316,"type":"SCALAR"}],"asset":{"extras":{"author":"Nullazy (https://sketchfab.com/Nullazy)","license":"CC-BY-4.0 (http://creativecommons.org/licenses/by/4.0/)","source":"https://sketchfab.com/3d-models/old-bathroom-cabinet-with-weathered-wood-texture-ad9d9f215bff4000bc371bc93c379a2b","title":"old bathroom cabinet with weathered wood texture"},"generator":"Sketchfab-14.22.0","version":"2.0"},"bufferViews":[{"buffer":0,"byteLength":45264,"name":"floatBufferViews","target":34963},{"buffer":0,"byteLength":26704,"byteOffset":45264,"byteStride":8,"name":"floatBufferViews","target":34962},{"buffer":0,"byteLength":80112,"byteOffset":71968,"byteStride":12,"name":"floatBufferViews","target":34962},{"buffer":0,"byteLength":53408,"byteOffset":152080,"byteStride":16,"name":"floatBufferViews","target":34962}],"buffers":[{"byteLength":205488,"uri":"scene.bin"}],"images":[{"uri":"textures/LACHI_diffuse.png"},{"uri":"textures/LACHI_specularGlossiness.png"},{"uri":"textures/LACHI_normal.png"},{"uri":"textures/LACHI_occlusion.png"}],"materials":[{"doubleSided":true,"name":"LACHI","normalTexture":{"index":2},"occlusionTexture":{"index":3,"strength":0.7481927563969718},"pbrMetallicRoughness":{"baseColorFactor":[1.0,1.0,1.0,1.0],"baseColorTexture":{"index":0},"metallicFactor":0.0,"roughnessFactor":0.0}}],"meshes":[{"name":"LACI_LACHI_0","primitives":[{"attributes":{"NORMAL":1,"POSITION":0,"TANGENT":2,"TEXCOORD_0":3},"indices":4,"material":0,"mode":4}]}],"nodes":[{"children":[1],"matrix":[1.0,0.0,0.0,0.0,0.0,2.220446049250313e-16,-1.0,0.0,0.0,1.0,2.220446049250313e-16,0.0,0.0,0.0,0.0,1.0],"name":"Sketchfab_model"},{"children":[2],"matrix":[0.009999999776482582,0.0,0.0,0.0,0.0,0.0,0.009999999776482582,0.0,0.0,-0.009999999776482582,0.0,0.0,0.0,0.0,0.0,1.0],"name":"ae3b6553f2ae438bac56cdd53fb54d04.fbx"},{"children":[3],"name":"RootNode"},{"children":[4],"matrix":[1.983711881073134e-06,-1.011295793785127e-22,-10.188179969787404,0.0,4.0292467468778305e-06,92.1784133911132,7.845233066974207e-13,0.0,47.25467681884672,-2.0655676946753005e-06,9.200825281826424e-06,0.0,98.37738037109375,100.96526336669922,78.50322723388672,1.0],"name":"LACI"},{"mesh":0,"name":"LACI_LACHI_0"}],"samplers":[{"magFilter":9729,"minFilter":9987,"wrapS":10497,"wrapT":10497}],"scene":0,"scenes":[{"name":"Sketchfab_Scene","nodes":[0]}],"textures":[{"sampler":0,"source":0},{"sampler":0,"source":1},{"sampler":0,"source":2},{"sampler":0,"source":3}]}