{
  "accessors": [
    {
      "bufferView": 2,
      "componentType": 5126,
      "count": 629,
      "max": [
        13.316650390625,
        15.979724884033203,
        39.45988845825195
      ],
      "min": [
        -15.467996597290039,
        -17.156789779663086,
        -17.08577537536621
      ],
      "type": "VEC3"
    },
    {
      "bufferView": 2,
      "byteOffset": 7548,
      "componentType": 5126,
      "count": 629,
      "max": [
        1.0,
        1.0,
        0.997972309589386
      ],
      "min": [
        -1.0,
        -1.0,
        -0.9986685514450073
      ],
      "type": "VEC3"
    },
    {
      "bufferView": 3,
      "componentType": 5126,
      "count": 629,
      "max": [
        0.9510565400123596,
        1.0,
        0.9240860342979431,
        1.0
      ],
      "min": [
        -0.9999099969863892,
        -1.0,
        -0.9953924417495728,
        1.0
      ],
      "type": "VEC4"
    },
    {
      "bufferView": 1,
      "componentType": 5126,
      "count": 629,
      "max": [
        0.9963477849960327,
        0.999500036239624
      ],
      "min": [
        0.0005000000237487257,
        0.0005000000237487257
      ],
      "type": "VEC2"
    },
    {
      "bufferView": 0,
      "componentType": 5125,
      "count": 1443,
      "type": "SCALAR"
    }
  ],
  "asset": {
    "extras": {
      "author": "Sophie (https://sketchfab.com/Sofi_EX)",
      "license": "CC-BY-4.0 (http://creativecommons.org/licenses/by/4.0/)",
      "source": "https://sketchfab.com/3d-models/hanging-voodoo-doll-2ecec7c9b5b946dab7a7e40b76e220fd",
      "title": "Hanging voodoo doll"
    },
    "generator": "Sketchfab-15.30.0",
    "version": "2.0"
  },
  "bufferViews": [
    {
      "buffer": 0,
      "byteLength": 5772,
      "name": "floatBufferViews",
      "target": 34963
    },
    {
      "buffer": 0,
      "byteLength": 5032,
      "byteOffset": 5772,
      "byteStride": 8,
      "name": "floatBufferViews",
      "target": 34962
    },
    {
      "buffer": 0,
      "byteLength": 15096,
      "byteOffset": 10804,
      "byteStride": 12,
      "name": "floatBufferViews",
      "target": 34962
    },
    {
      "buffer": 0,
      "byteLength": 10064,
      "byteOffset": 25900,
      "byteStride": 16,
      "name": "floatBufferViews",
      "target": 34962
    }
  ],
  "buffers": [
    {
      "byteLength": 35964,
      "uri": "scene.bin"
    }
  ],
  "images": [
    {
      "uri": "textures/Hanging_Doll_baseColor.jpeg"
    },
    {
      "uri": "textures/Hanging_Doll_metallicRoughness.png"
    },
    {
      "uri": "textures/Hanging_Doll_normal.png"
    }
  ],
  "materials": [
    {
      "doubleSided": true,
      "name": "Hanging_Doll",
      "normalTexture": {
        "index": 2
      },
      "pbrMetallicRoughness": {
        "baseColorTexture": {
          "index": 0
        },
        "metallicRoughnessTexture": {
          "index": 1
        }
      }
    }
  ],
  "meshes": [
    {
      "name": "doll_Hanging Doll_0",
      "primitives": [
        {
          "attributes": {
            "NORMAL": 1,
            "POSITION": 0,
            "TANGENT": 2,
            "TEXCOORD_0": 3
          },
          "indices": 4,
          "material": 0,
          "mode": 4
        }
      ]
    }
  ],
  "nodes": [
    {
      "children": [
        1
      ],
      "matrix": [
        1.0,
        0.0,
        0.0,
        0.0,
        0.0,
        2.220446049250313e-16,
        -1.0,
        0.0,
        0.0,
        1.0,
        2.220446049250313e-16,
        0.0,
        0.0,
        0.0,
        0.0,
        1.0
      ],
      "name": "Sketchfab_model"
    },
    {
      "children": [
        2
      ],
      "matrix": [
        1.0,
        0.0,
        0.0,
        0.0,
        0.0,
        0.0,
        1.0,
        0.0,
        0.0,
        -1.0,
        0.0,
        0.0,
        0.0,
        0.0,
        0.0,
        1.0
      ],
      "name": "17d9ce374dba464a8155d4f04d78b920.fbx"
    },
    {
      "children": [
        3
      ],
      "name": "RootNode"
    },
    {
      "children": [
        4
      ],
      "matrix": [
        0.3958180167818002,
        -2.814289135692829e-17,
        0.31678705759921155,
        0.0,
        0.2704063838813878,
        9.60900049574839e-17,
        -0.337866450113887,
        0.0,
        -5.551115123125783e-17,
        0.9999999999999999,
        2.220446049250313e-16,
        0.0,
        0.0,
        0.0,
        0.0,
        1.0
      ],
      "name": "doll"
    },
    {
      "children": [
        5
      ],
      "matrix": [
        1.0,
        0.0,
        -0.0,
        0.0,
        0.0,
        1.0,
        0.0,
        0.0,
        0.0,
        0.0,
        1.0,
        0.0,
        1.0756758451461792,
        0.5885337591171265,
        -11.187053680419922,
        1.0
      ],
      "name": "Object_4"
    },
    {
      "mesh": 0,
      "name": "doll_Hanging Doll_0"
    }
  ],
  "samplers": [
    {
      "magFilter": 9729,
      "minFilter": 9987,
      "wrapS": 10497,
      "wrapT": 10497
    }
  ],
  "scene": 0,
  "scenes": [
    {
      "name": "Sketchfab_Scene",
      "nodes": [
        0
      ]
    }
  ],
  "textures": [
    {
      "sampler": 0,
      "source": 0
    },
    {
      "sampler": 0,
      "source": 1
    },
    {
      "sampler": 0,
      "source": 2
    }
  ]
}
