{
  "accessors": [
    {
      "bufferView": 2,
      "componentType": 5126,
      "count": 904,
      "max": [
        89.25892639160156,
        116.11128234863281,
        151.73159790039063
      ],
      "min": [
        -89.28120422363281,
        -100.95653533935547,
        -151.73159790039063
      ],
      "type": "VEC3"
    },
    {
      "bufferView": 2,
      "byteOffset": 10848,
      "componentType": 5126,
      "count": 904,
      "max": [
        1.0,
        0.9993547797203064,
        0.7888462543487549
      ],
      "min": [
        -1.0,
        -0.9993337988853455,
        -0.7888405323028564
      ],
      "type": "VEC3"
    },
    {
      "bufferView": 1,
      "componentType": 5126,
      "count": 904,
      "max": [
        0.9837221503257751,
        0.9809896945953369
      ],
      "min": [
        0.003738660831004381,
        0.003738660831004381
      ],
      "type": "VEC2"
    },
    {
      "bufferView": 1,
      "byteOffset": 7232,
      "componentType": 5126,
      "count": 904,
      "max": [
        0.9837221503257751,
        0.9809896945953369
      ],
      "min": [
        0.003738660831004381,
        0.003738660831004381
      ],
      "type": "VEC2"
    },
    {
      "bufferView": 0,
      "componentType": 5125,
      "count": 1920,
      "type": "SCALAR"
    },
    {
      "bufferView": 2,
      "byteOffset": 21696,
      "componentType": 5126,
      "count": 198,
      "max": [
        1.389390230178833,
        6.063961982727051,
        71.95263671875
      ],
      "min": [
        -175.50836181640625,
        -50.259422302246094,
        -71.0849380493164
      ],
      "type": "VEC3"
    },
    {
      "bufferView": 2,
      "byteOffset": 24072,
      "componentType": 5126,
      "count": 198,
      "max": [
        0.8659210205078125,
        0.9975484013557434,
        0.7245012521743774
      ],
      "min": [
        -0.8643174767494202,
        -0.9638202786445618,
        -0.7237579226493835
      ],
      "type": "VEC3"
    },
    {
      "bufferView": 1,
      "byteOffset": 14464,
      "componentType": 5126,
      "count": 198,
      "max": [
        0.9962603449821472,
        0.9916391968727112
      ],
      "min": [
        0.003738660831004381,
        0.13193608820438385
      ],
      "type": "VEC2"
    },
    {
      "bufferView": 1,
      "byteOffset": 16048,
      "componentType": 5126,
      "count": 198,
      "max": [
        0.9962603449821472,
        0.9916391968727112
      ],
      "min": [
        0.003738660831004381,
        0.13193608820438385
      ],
      "type": "VEC2"
    },
    {
      "bufferView": 0,
      "byteOffset": 7680,
      "componentType": 5125,
      "count": 636,
      "type": "SCALAR"
    },
    {
      "bufferView": 2,
      "byteOffset": 26448,
      "componentType": 5126,
      "count": 198,
      "max": [
        1.3894438743591309,
        6.051790714263916,
        71.92655944824219
      ],
      "min": [
        -175.5084686279297,
        -50.25963592529297,
        -71.10689544677734
      ],
      "type": "VEC3"
    },
    {
      "bufferView": 2,
      "byteOffset": 28824,
      "componentType": 5126,
      "count": 198,
      "max": [
        0.8658657670021057,
        0.9974117875099182,
        0.7234351634979248
      ],
      "min": [
        -0.8642964363098145,
        -0.9638202786445618,
        -0.7223228812217712
      ],
      "type": "VEC3"
    },
    {
      "bufferView": 1,
      "byteOffset": 17632,
      "componentType": 5126,
      "count": 198,
      "max": [
        0.9962612986564636,
        0.9768707752227783
      ],
      "min": [
        0.003738660831004381,
        0.09242435544729233
      ],
      "type": "VEC2"
    },
    {
      "bufferView": 1,
      "byteOffset": 19216,
      "componentType": 5126,
      "count": 198,
      "max": [
        0.9962612986564636,
        0.9768707752227783
      ],
      "min": [
        0.003738660831004381,
        0.09242435544729233
      ],
      "type": "VEC2"
    },
    {
      "bufferView": 0,
      "byteOffset": 10224,
      "componentType": 5125,
      "count": 636,
      "type": "SCALAR"
    }
  ],
  "asset": {
    "extras": {
      "author": "ScaryBaboonRipper (https://sketchfab.com/sbarchiver)",
      "license": "CC-BY-4.0 (http://creativecommons.org/licenses/by/4.0/)",
      "source": "https://sketchfab.com/3d-models/garbage-bin-scary-baboon-5b0c9258aed946fa9bc7793dc01ae338",
      "title": "Garbage Bin Scary Baboon"
    },
    "generator": "Sketchfab-17.8.0",
    "version": "2.0"
  },
  "bufferViews": [
    {
      "buffer": 0,
      "byteLength": 12768,
      "name": "floatBufferViews",
      "target": 34963
    },
    {
      "buffer": 0,
      "byteLength": 20800,
      "byteOffset": 12768,
      "byteStride": 8,
      "name": "floatBufferViews",
      "target": 34962
    },
    {
      "buffer": 0,
      "byteLength": 31200,
      "byteOffset": 33568,
      "byteStride": 12,
      "name": "floatBufferViews",
      "target": 34962
    }
  ],
  "buffers": [
    {
      "byteLength": 64768,
      "uri": "scene.bin"
    }
  ],
  "images": [
    {
      "uri": "textures/Material_baseColor.png"
    }
  ],
  "materials": [
    {
      "doubleSided": true,
      "name": "Material",
      "pbrMetallicRoughness": {
        "baseColorTexture": {
          "index": 0
        },
        "metallicFactor": 0.0,
        "roughnessFactor": 0.6
      }
    }
  ],
  "meshes": [
    {
      "name": "Garbage_Material_0",
      "primitives": [
        {
          "attributes": {
            "NORMAL": 1,
            "POSITION": 0,
            "TEXCOORD_0": 2,
            "TEXCOORD_1": 3
          },
          "indices": 4,
          "material": 0,
          "mode": 4
        }
      ]
    },
    {
      "name": "Door_A_Material_0",
      "primitives": [
        {
          "attributes": {
            "NORMAL": 6,
            "POSITION": 5,
            "TEXCOORD_0": 7,
            "TEXCOORD_1": 8
          },
          "indices": 9,
          "material": 0,
          "mode": 4
        }
      ]
    },
    {
      "name": "Door_B_Material_0",
      "primitives": [
        {
          "attributes": {
            "NORMAL": 11,
            "POSITION": 10,
            "TEXCOORD_0": 12,
            "TEXCOORD_1": 13
          },
          "indices": 14,
          "material": 0,
          "mode": 4
        }
      ]
    }
  ],
  "nodes": [
    {
      "children": [
        1
      ],
      "matrix": [
        -1.0,
        -6.290011496532519e-32,
        2.832769343193999e-16,
        0.0,
        2.832769343193999e-16,
        -2.220446049250313e-16,
        1.0,
        0.0,
        0.0,
        1.0,
        2.220446049250313e-16,
        0.0,
        0.0,
        0.0,
        0.0,
        1.0
      ],
      "name": "Sketchfab_model"
    },
    {
      "children": [
        2
      ],
      "matrix": [
        0.009999999776482582,
        0.0,
        0.0,
        0.0,
        0.0,
        0.0,
        0.009999999776482582,
        0.0,
        0.0,
        -0.009999999776482582,
        0.0,
        0.0,
        0.0,
        0.0,
        0.0,
        1.0
      ],
      "name": "ea8a5761b6bc4394807ce0e88ebdcca4.fbx"
    },
    {
      "children": [
        3
      ],
      "name": "RootNode"
    },
    {
      "children": [
        4,
        5,
        7
      ],
      "matrix": [
        1.5531575962192135e-16,
        0.0,
        0.6994799971580505,
        0.0,
        0.0,
        0.6994799971580505,
        0.0,
        0.0,
        -0.6994799971580505,
        0.0,
        1.5531575962192135e-16,
        0.0,
        0.0,
        0.0,
        0.0,
        1.0
      ],
      "name": "Garbage"
    },
    {
      "mesh": 0,
      "name": "Garbage_Material_0"
    },
    {
      "children": [
        6
      ],
      "matrix": [
        -0.3354674758162006,
        -0.9420517887406583,
        -1.804754102771913e-07,
        0.0,
        0.942051788740669,
        -0.33546747581621483,
        5.4366978190513346e-08,
        0.0,
        -1.1176013938538262e-07,
        -1.5177883013400823e-07,
        0.9999999999999822,
        0.0,
        86.91470336914063,
        117.5999984741211,
        71.76836395263672,
        1.0
      ],
      "name": "Door_A"
    },
    {
      "mesh": 1,
      "name": "Door_A_Material_0"
    },
    {
      "children": [
        8
      ],
      "matrix": [
        1.0,
        0.0,
        0.0,
        0.0,
        0.0,
        1.0,
        0.0,
        0.0,
        0.0,
        0.0,
        1.0,
        0.0,
        86.91470336914063,
        117.5999984741211,
        -71.43951416015625,
        1.0
      ],
      "name": "Door_B"
    },
    {
      "mesh": 2,
      "name": "Door_B_Material_0"
    }
  ],
  "samplers": [
    {
      "magFilter": 9729,
      "minFilter": 9987,
      "wrapS": 10497,
      "wrapT": 10497
    }
  ],
  "scene": 0,
  "scenes": [
    {
      "name": "Sketchfab_Scene",
      "nodes": [
        0
      ]
    }
  ],
  "textures": [
    {
      "sampler": 0,
      "source": 0
    }
  ]
}
