{
  "accessors": [
    {
      "bufferView": 2,
      "componentType": 5126,
      "count": 24,
      "max": [
        10.205743789672852,
        0.1479565054178238,
        7.638175964355469
      ],
      "min": [
        -11.808658599853516,
        0.0,
        -7.299327850341797
      ],
      "type": "VEC3"
    },
    {
      "bufferView": 2,
      "byteOffset": 288,
      "componentType": 5126,
      "count": 24,
      "max": [
        1.0,
        1.0,
        1.0
      ],
      "min": [
        -1.0,
        -1.0,
        -1.0
      ],
      "type": "VEC3"
    },
    {
      "bufferView": 1,
      "componentType": 5126,
      "count": 24,
      "max": [
        1.0,
        1.0
      ],
      "min": [
        0.0,
        5.962440319251527e-09
      ],
      "type": "VEC2"
    },
    {
      "bufferView": 0,
      "componentType": 5125,
      "count": 36,
      "type": "SCALAR"
    },
    {
      "bufferView": 2,
      "byteOffset": 576,
      "componentType": 5126,
      "count": 507,
      "max": [
        2.50347900390625,
        0.24252255260944366,
        2.9511618614196777
      ],
      "min": [
        -2.503480911254883,
        -0.24333806335926056,
        -2.8923964500427246
      ],
      "type": "VEC3"
    },
    {
      "bufferView": 2,
      "byteOffset": 6660,
      "componentType": 5126,
      "count": 507,
      "max": [
        1.0,
        0.999998152256012,
        1.0
      ],
      "min": [
        -1.0,
        -0.9999996423721313,
        -1.0
      ],
      "type": "VEC3"
    },
    {
      "bufferView": 1,
      "byteOffset": 192,
      "componentType": 5126,
      "count": 507,
      "max": [
        0.9758675694465637,
        0.9621137976646423
      ],
      "min": [
        0.007094234228134155,
        7.757142620205908e-18
      ],
      "type": "VEC2"
    },
    {
      "bufferView": 0,
      "byteOffset": 144,
      "componentType": 5125,
      "count": 2808,
      "type": "SCALAR"
    },
    {
      "bufferView": 2,
      "byteOffset": 12744,
      "componentType": 5126,
      "count": 84,
      "max": [
        -18.372262954711914,
        7.518130302429199,
        -5.668555736541748
      ],
      "min": [
        -18.541196823120117,
        5.7731733322143555,
        -5.837490558624268
      ],
      "type": "VEC3"
    },
    {
      "bufferView": 2,
      "byteOffset": 13752,
      "componentType": 5126,
      "count": 84,
      "max": [
        1.0,
        1.0,
        1.0
      ],
      "min": [
        -1.0,
        -1.0,
        -1.0
      ],
      "type": "VEC3"
    },
    {
      "bufferView": 1,
      "byteOffset": 4248,
      "componentType": 5126,
      "count": 84,
      "max": [
        0.65625,
        1.0
      ],
      "min": [
        0.3437499701976776,
        -7.450580596923828e-08
      ],
      "type": "VEC2"
    },
    {
      "bufferView": 0,
      "byteOffset": 11376,
      "componentType": 5125,
      "count": 240,
      "type": "SCALAR"
    },
    {
      "bufferView": 2,
      "byteOffset": 14760,
      "componentType": 5126,
      "count": 2557,
      "max": [
        -16.35425567626953,
        8.048727035522461,
        -3.910769462585449
      ],
      "min": [
        -20.371498107910156,
        -2.384185791015625e-07,
        -7.672065258026123
      ],
      "type": "VEC3"
    },
    {
      "bufferView": 2,
      "byteOffset": 45444,
      "componentType": 5126,
      "count": 2557,
      "max": [
        0.9991481900215149,
        0.9992081522941589,
        1.0
      ],
      "min": [
        -1.0,
        -1.0,
        -1.0
      ],
      "type": "VEC3"
    },
    {
      "bufferView": 1,
      "byteOffset": 4920,
      "componentType": 5126,
      "count": 2557,
      "max": [
        0.65625,
        1.0
      ],
      "min": [
        0.3437499403953552,
        -1.043081283569336e-07
      ],
      "type": "VEC2"
    },
    {
      "bufferView": 0,
      "byteOffset": 12336,
      "componentType": 5125,
      "count": 14640,
      "type": "SCALAR"
    },
    {
      "bufferView": 2,
      "byteOffset": 76128,
      "componentType": 5126,
      "count": 439,
      "max": [
        0.3228886127471924,
        1.4964745044708252,
        0.3228890597820282
      ],
      "min": [
        -0.322890043258667,
        -0.011620261706411839,
        -0.32288864254951477
      ],
      "type": "VEC3"
    },
    {
      "bufferView": 2,
      "byteOffset": 81396,
      "componentType": 5126,
      "count": 439,
      "max": [
        1.0,
        1.0,
        1.0
      ],
      "min": [
        -1.0,
        -1.0,
        -1.0
      ],
      "type": "VEC3"
    },
    {
      "bufferView": 1,
      "byteOffset": 25376,
      "componentType": 5126,
      "count": 439,
      "max": [
        1.0000001192092896,
        1.0
      ],
      "min": [
        0.0,
        0.0
      ],
      "type": "VEC2"
    },
    {
      "bufferView": 0,
      "byteOffset": 70896,
      "componentType": 5125,
      "count": 2280,
      "type": "SCALAR"
    },
    {
      "bufferView": 2,
      "byteOffset": 86664,
      "componentType": 5126,
      "count": 4,
      "max": [
        22.771451950073242,
        0.0,
        22.771451950073242
      ],
      "min": [
        -22.771451950073242,
        0.0,
        -22.771451950073242
      ],
      "type": "VEC3"
    },
    {
      "bufferView": 2,
      "byteOffset": 86712,
      "componentType": 5126,
      "count": 4,
      "max": [
        0.0,
        1.0,
        0.0
      ],
      "min": [
        0.0,
        1.0,
        0.0
      ],
      "type": "VEC3"
    },
    {
      "bufferView": 1,
      "byteOffset": 28888,
      "componentType": 5126,
      "count": 4,
      "max": [
        1.000000238418579,
        1.000000238418579
      ],
      "min": [
        1.1920928955078125e-07,
        5.960464477539063e-08
      ],
      "type": "VEC2"
    },
    {
      "bufferView": 0,
      "byteOffset": 80016,
      "componentType": 5125,
      "count": 6,
      "type": "SCALAR"
    },
    {
      "bufferView": 3,
      "componentType": 5126,
      "count": 349,
      "max": [
        11.5
      ],
      "min": [
        0.0416666679084301
      ],
      "type": "SCALAR"
    },
    {
      "bufferView": 4,
      "componentType": 5126,
      "count": 349,
      "max": [
        -0.4741155803203583,
        0.37761566042900085,
        4.069677829742432
      ],
      "min": [
        -9.445274353027344,
        0.37761566042900085,
        -0.20030808448791504
      ],
      "type": "VEC3"
    },
    {
      "bufferView": 3,
      "byteOffset": 1396,
      "componentType": 5126,
      "count": 558,
      "max": [
        11.666666984558105
      ],
      "min": [
        0.0416666679084301
      ],
      "type": "SCALAR"
    },
    {
      "bufferView": 4,
      "byteOffset": 4188,
      "componentType": 5126,
      "count": 558,
      "max": [
        1.0,
        1.1999856233596802,
        1.0
      ],
      "min": [
        1.0,
        1.000909447669983,
        1.0
      ],
      "type": "VEC3"
    }
  ],
  "animations": [
    {
      "channels": [
        {
          "sampler": 0,
          "target": {
            "node": 6,
            "path": "translation"
          }
        },
        {
          "sampler": 1,
          "target": {
            "node": 11,
            "path": "scale"
          }
        }
      ],
      "name": "Take 001",
      "samplers": [
        {
          "input": 24,
          "interpolation": "LINEAR",
          "output": 25
        },
        {
          "input": 26,
          "interpolation": "LINEAR",
          "output": 27
        }
      ]
    }
  ],
  "asset": {
    "extras": {
      "author": "Carlos Rubio (https://sketchfab.com/lurubio)",
      "license": "CC-BY-4.0 (http://creativecommons.org/licenses/by/4.0/)",
      "source": "https://sketchfab.com/3d-models/october-horror-nights-day-7-7c098ea80c214759be996c1447278eb0",
      "title": "October horror nights - Day 7"
    },
    "generator": "Sketchfab-12.66.0",
    "version": "2.0"
  },
  "bufferViews": [
    {
      "buffer": 0,
      "byteLength": 80040,
      "name": "floatBufferViews",
      "target": 34963
    },
    {
      "buffer": 0,
      "byteLength": 28920,
      "byteOffset": 80040,
      "byteStride": 8,
      "name": "floatBufferViews",
      "target": 34962
    },
    {
      "buffer": 0,
      "byteLength": 86760,
      "byteOffset": 108960,
      "byteStride": 12,
      "name": "floatBufferViews",
      "target": 34962
    },
    {
      "buffer": 0,
      "byteLength": 3628,
      "byteOffset": 195720,
      "name": "floatBufferViews"
    },
    {
      "buffer": 0,
      "byteLength": 10884,
      "byteOffset": 199348,
      "byteStride": 12,
      "name": "floatBufferViews"
    }
  ],
  "buffers": [
    {
      "byteLength": 210232,
      "uri": "scene.bin"
    }
  ],
  "images": [
    {
      "uri": "textures/tabla_baseColor.jpeg"
    },
    {
      "uri": "textures/oraculo_baseColor.jpeg"
    },
    {
      "uri": "textures/lambert5_baseColor.jpeg"
    }
  ],
  "materials": [
    {
      "doubleSided": true,
      "name": "tabla",
      "pbrMetallicRoughness": {
        "baseColorTexture": {
          "index": 0
        },
        "metallicFactor": 0.0,
        "roughnessFactor": 0.6
      }
    },
    {
      "doubleSided": true,
      "name": "oraculo",
      "pbrMetallicRoughness": {
        "baseColorTexture": {
          "index": 1
        },
        "metallicFactor": 0.0,
        "roughnessFactor": 0.9207483816249483
      }
    },
    {
      "doubleSided": true,
      "name": "pavil",
      "pbrMetallicRoughness": {
        "baseColorFactor": [
          0.0,
          0.0,
          0.0,
          1.0
        ],
        "metallicFactor": 0.0
      }
    },
    {
      "doubleSided": true,
      "emissiveFactor": [
        0.012636743612147882,
        0.012636743612147882,
        0.012636743612147882
      ],
      "name": "vela",
      "pbrMetallicRoughness": {
        "baseColorFactor": [
          0.5,
          0.5,
          0.5,
          1.0
        ],
        "metallicFactor": 0.0,
        "roughnessFactor": 0.6385289634146342
      }
    },
    {
      "doubleSided": true,
      "emissiveFactor": [
        1.0,
        1.0,
        1.0
      ],
      "name": "lambert1",
      "pbrMetallicRoughness": {
        "metallicFactor": 0.0
      }
    },
    {
      "doubleSided": true,
      "name": "lambert5",
      "pbrMetallicRoughness": {
        "baseColorTexture": {
          "index": 2
        },
        "metallicFactor": 0.0,
        "roughnessFactor": 0.6
      }
    }
  ],
  "meshes": [
    {
      "name": "pPlane1_tabla_0",
      "primitives": [
        {
          "attributes": {
            "NORMAL": 1,
            "POSITION": 0,
            "TEXCOORD_0": 2
          },
          "indices": 3,
          "material": 0,
          "mode": 4
        }
      ]
    },
    {
      "name": "polySurface2_oraculo_0",
      "primitives": [
        {
          "attributes": {
            "NORMAL": 5,
            "POSITION": 4,
            "TEXCOORD_0": 6
          },
          "indices": 7,
          "material": 1,
          "mode": 4
        }
      ]
    },
    {
      "name": "pCylinder3_pavil_0",
      "primitives": [
        {
          "attributes": {
            "NORMAL": 9,
            "POSITION": 8,
            "TEXCOORD_0": 10
          },
          "indices": 11,
          "material": 2,
          "mode": 4
        }
      ]
    },
    {
      "name": "pCylinder3_vela_0",
      "primitives": [
        {
          "attributes": {
            "NORMAL": 13,
            "POSITION": 12,
            "TEXCOORD_0": 14
          },
          "indices": 15,
          "material": 3,
          "mode": 4
        }
      ]
    },
    {
      "name": "pSphere1_lambert1_0",
      "primitives": [
        {
          "attributes": {
            "NORMAL": 17,
            "POSITION": 16,
            "TEXCOORD_0": 18
          },
          "indices": 19,
          "material": 4,
          "mode": 4
        }
      ]
    },
    {
      "name": "pPlane2_lambert5_0",
      "primitives": [
        {
          "attributes": {
            "NORMAL": 21,
            "POSITION": 20,
            "TEXCOORD_0": 22
          },
          "indices": 23,
          "material": 5,
          "mode": 4
        }
      ]
    }
  ],
  "nodes": [
    {
      "children": [
        1
      ],
      "matrix": [
        1.0,
        0.0,
        0.0,
        0.0,
        0.0,
        2.220446049250313e-16,
        -1.0,
        0.0,
        0.0,
        1.0,
        2.220446049250313e-16,
        0.0,
        0.0,
        0.0,
        0.0,
        1.0
      ],
      "name": "Sketchfab_model"
    },
    {
      "children": [
        2
      ],
      "matrix": [
        1.0,
        0.0,
        0.0,
        0.0,
        0.0,
        0.0,
        1.0,
        0.0,
        0.0,
        -1.0,
        0.0,
        0.0,
        0.0,
        0.0,
        0.0,
        1.0
      ],
      "name": "c88905f9d61c42b88dc739b463c0cf92.fbx"
    },
    {
      "children": [
        3
      ],
      "name": "Object_2"
    },
    {
      "children": [
        4,
        6,
        8,
        13
      ],
      "name": "RootNode"
    },
    {
      "children": [
        5
      ],
      "name": "pPlane1"
    },
    {
      "mesh": 0,
      "name": "pPlane1_tabla_0"
    },
    {
      "children": [
        7
      ],
      "name": "polySurface2",
      "translation": [
        -9.325472831726074,
        0.37761566042900085,
        0.16015203297138214
      ]
    },
    {
      "mesh": 1,
      "name": "polySurface2_oraculo_0"
    },
    {
      "children": [
        9,
        10,
        11
      ],
      "name": "pCylinder3",
      "translation": [
        17.973133087158203,
        3.552713678800501e-15,
        -3.599655866622925
      ]
    },
    {
      "mesh": 2,
      "name": "pCylinder3_pavil_0"
    },
    {
      "mesh": 3,
      "name": "pCylinder3_vela_0"
    },
    {
      "children": [
        12
      ],
      "name": "pSphere1",
      "scale": [
        1.0,
        1.1344643831253052,
        1.0
      ],
      "translation": [
        -18.45822525024414,
        7.1036505699157715,
        -5.752255916595459
      ]
    },
    {
      "mesh": 4,
      "name": "pSphere1_lambert1_0"
    },
    {
      "children": [
        14
      ],
      "name": "pPlane2",
      "scale": [
        2.0704822540283203,
        2.0704822540283203,
        2.0704822540283203
      ],
      "translation": [
        -0.6014140248298645,
        0.0,
        0.7119349241256714
      ]
    },
    {
      "mesh": 5,
      "name": "pPlane2_lambert5_0"
    }
  ],
  "samplers": [
    {
      "magFilter": 9729,
      "minFilter": 9987,
      "wrapS": 10497,
      "wrapT": 10497
    }
  ],
  "scene": 0,
  "scenes": [
    {
      "name": "Sketchfab_Scene",
      "nodes": [
        0
      ]
    }
  ],
  "textures": [
    {
      "sampler": 0,
      "source": 0
    },
    {
      "sampler": 0,
      "source": 1
    },
    {
      "sampler": 0,
      "source": 2
    }
  ]
}
