{
  "accessors": [
    {
      "bufferView": 2,
      "componentType": 5126,
      "count": 696,
      "max": [
        4153.5400390625,
        388.88299560546875,
        282.85601806640625
      ],
      "min": [
        3093.75,
        1.1920899851247668e-05,
        -768.8479614257813
      ],
      "type": "VEC3"
    },
    {
      "bufferView": 2,
      "byteOffset": 8352,
      "componentType": 5126,
      "count": 696,
      "max": [
        1.0,
        1.0,
        1.0
      ],
      "min": [
        -1.0,
        -1.0,
        -1.0
      ],
      "type": "VEC3"
    },
    {
      "bufferView": 1,
      "componentType": 5126,
      "count": 696,
      "max": [
        44.66239929199219,
        -46.34270095825195
      ],
      "min": [
        43.33760070800781,
        -47.65729904174805
      ],
      "type": "VEC2"
    },
    {
      "bufferView": 1,
      "byteOffset": 5568,
      "componentType": 5126,
      "count": 696,
      "max": [
        0.9894880056381226,
        0.989866316318512
      ],
      "min": [
        0.020000001415610313,
        0.020000001415610313
      ],
      "type": "VEC2"
    },
    {
      "bufferView": 0,
      "componentType": 5125,
      "count": 1044,
      "type": "SCALAR"
    }
  ],
  "asset": {
    "extras": {
      "author": "ScaryBaboonArchiver (https://sketchfab.com/sbarchiver)",
      "license": "CC-BY-4.0 (http://creativecommons.org/licenses/by/4.0/)",
      "source": "https://sketchfab.com/3d-models/cafeteria-table-scary-baboon-2aa1e5705ba64436aced838f35f3d5af",
      "title": "Cafeteria Table Scary Baboon"
    },
    "generator": "Sketchfab-16.67.0",
    "version": "2.0"
  },
  "bufferViews": [
    {
      "buffer": 0,
      "byteLength": 4176,
      "name": "floatBufferViews",
      "target": 34963
    },
    {
      "buffer": 0,
      "byteLength": 11136,
      "byteOffset": 4176,
      "byteStride": 8,
      "name": "floatBufferViews",
      "target": 34962
    },
    {
      "buffer": 0,
      "byteLength": 16704,
      "byteOffset": 15312,
      "byteStride": 12,
      "name": "floatBufferViews",
      "target": 34962
    }
  ],
  "buffers": [
    {
      "byteLength": 32016,
      "uri": "scene.bin"
    }
  ],
  "images": [
    {
      "uri": "textures/Default_Material_baseColor.png"
    }
  ],
  "materials": [
    {
      "doubleSided": true,
      "name": "Default_Material",
      "pbrMetallicRoughness": {
        "baseColorTexture": {
          "index": 0
        },
        "metallicFactor": 0.0,
        "roughnessFactor": 0.6
      }
    }
  ],
  "meshes": [
    {
      "name": "pb_Mesh789276_Clone__Default_Material_0",
      "primitives": [
        {
          "attributes": {
            "NORMAL": 1,
            "POSITION": 0,
            "TEXCOORD_0": 2,
            "TEXCOORD_1": 3
          },
          "indices": 4,
          "material": 0,
          "mode": 4
        }
      ]
    }
  ],
  "nodes": [
    {
      "children": [
        1
      ],
      "matrix": [
        1.0,
        0.0,
        0.0,
        0.0,
        0.0,
        2.220446049250313e-16,
        -1.0,
        0.0,
        0.0,
        1.0,
        2.220446049250313e-16,
        0.0,
        0.0,
        0.0,
        0.0,
        1.0
      ],
      "name": "Sketchfab_model"
    },
    {
      "children": [
        2
      ],
      "matrix": [
        0.009999999776482582,
        0.0,
        0.0,
        0.0,
        0.0,
        0.0,
        0.009999999776482582,
        0.0,
        0.0,
        -0.009999999776482582,
        0.0,
        0.0,
        0.0,
        0.0,
        0.0,
        1.0
      ],
      "name": "a7d55346c2f44eeca9636189124238ca.fbx"
    },
    {
      "children": [
        3
      ],
      "name": "RootNode"
    },
    {
      "children": [
        4
      ],
      "name": "pb_Mesh789276_Clone_"
    },
    {
      "mesh": 0,
      "name": "pb_Mesh789276_Clone__Default_Material_0"
    }
  ],
  "samplers": [
    {
      "magFilter": 9729,
      "minFilter": 9987,
      "wrapS": 10497,
      "wrapT": 10497
    }
  ],
  "scene": 0,
  "scenes": [
    {
      "name": "Sketchfab_Scene",
      "nodes": [
        0
      ]
    }
  ],
  "textures": [
    {
      "sampler": 0,
      "source": 0
    }
  ]
}
