{
  "accessors": [
    {
      "bufferView": 2,
      "componentType": 5126,
      "count": 329,
      "max": [
        1.0,
        0.4779449999332428,
        0.9092140197753906
      ],
      "min": [
        -1.0,
        -0.4779449999332428,
        -0.9092140197753906
      ],
      "type": "VEC3"
    },
    {
      "bufferView": 2,
      "byteOffset": 3948,
      "componentType": 5126,
      "count": 329,
      "max": [
        0.9710673093795776,
        0.9999105930328369,
        0.9976892471313477
      ],
      "min": [
        -0.9283382296562195,
        -1.0,
        -0.992262601852417
      ],
      "type": "VEC3"
    },
    {
      "bufferView": 3,
      "componentType": 5126,
      "count": 329,
      "max": [
        0.9999480247497559,
        0.9994270205497742,
        0.998865008354187,
        1.0
      ],
      "min": [
        -0.9999489784240723,
        -0.902301013469696,
        -0.9961820244789124,
        1.0
      ],
      "type": "VEC4"
    },
    {
      "bufferView": 1,
      "componentType": 5126,
      "count": 329,
      "max": [
        0.9900000095367432,
        0.989300012588501
      ],
      "min": [
        0.009999999776482582,
        0.009999999776482582
      ],
      "type": "VEC2"
    },
    {
      "bufferView": 0,
      "componentType": 5125,
      "count": 1116,
      "type": "SCALAR"
    }
  ],
  "asset": {
    "extras": {
      "author": "Plutonium.software (https://sketchfab.com/plutonium.software)",
      "license": "CC-BY-NC-4.0 (http://creativecommons.org/licenses/by-nc/4.0/)",
      "source": "https://sketchfab.com/3d-models/stone-with-moss-01fce300303645b4aa3086cce3d4250f",
      "title": "Stone with moss"
    },
    "generator": "Sketchfab-12.66.0",
    "version": "2.0"
  },
  "bufferViews": [
    {
      "buffer": 0,
      "byteLength": 4464,
      "name": "floatBufferViews",
      "target": 34963
    },
    {
      "buffer": 0,
      "byteLength": 2632,
      "byteOffset": 4464,
      "byteStride": 8,
      "name": "floatBufferViews",
      "target": 34962
    },
    {
      "buffer": 0,
      "byteLength": 7896,
      "byteOffset": 7096,
      "byteStride": 12,
      "name": "floatBufferViews",
      "target": 34962
    },
    {
      "buffer": 0,
      "byteLength": 5264,
      "byteOffset": 14992,
      "byteStride": 16,
      "name": "floatBufferViews",
      "target": 34962
    }
  ],
  "buffers": [
    {
      "byteLength": 20256,
      "uri": "scene.bin"
    }
  ],
  "images": [
    {
      "uri": "textures/wire_027177148_baseColor.jpeg"
    },
    {
      "uri": "textures/wire_027177148_metallicRoughness.png"
    },
    {
      "uri": "textures/wire_027177148_normal.jpeg"
    }
  ],
  "materials": [
    {
      "doubleSided": true,
      "name": "wire_027177148",
      "normalTexture": {
        "index": 2
      },
      "pbrMetallicRoughness": {
        "baseColorTexture": {
          "index": 0
        },
        "metallicRoughnessTexture": {
          "index": 1
        }
      }
    }
  ],
  "meshes": [
    {
      "name": "defaultMaterial",
      "primitives": [
        {
          "attributes": {
            "NORMAL": 1,
            "POSITION": 0,
            "TANGENT": 2,
            "TEXCOORD_0": 3
          },
          "indices": 4,
          "material": 0,
          "mode": 4
        }
      ]
    }
  ],
  "nodes": [
    {
      "children": [
        1
      ],
      "matrix": [
        1.1707799434661865,
        0.0,
        0.0,
        0.0,
        0.0,
        2.599653700010999e-16,
        -1.1707799434661865,
        0.0,
        0.0,
        1.1707799434661865,
        2.599653700010999e-16,
        0.0,
        0.0,
        0.0,
        0.0,
        1.0
      ],
      "name": "Sketchfab_model"
    },
    {
      "children": [
        2
      ],
      "matrix": [
        1.0,
        0.0,
        0.0,
        0.0,
        0.0,
        -4.371139006309477e-08,
        0.999999999999999,
        0.0,
        0.0,
        -0.999999999999999,
        -4.371139006309477e-08,
        0.0,
        0.0,
        0.0,
        0.0,
        1.0
      ],
      "name": "Collada visual scene group"
    },
    {
      "children": [
        3
      ],
      "name": "g"
    },
    {
      "mesh": 0,
      "name": "defaultMaterial"
    }
  ],
  "samplers": [
    {
      "magFilter": 9729,
      "minFilter": 9987,
      "wrapS": 10497,
      "wrapT": 10497
    }
  ],
  "scene": 0,
  "scenes": [
    {
      "name": "Sketchfab_Scene",
      "nodes": [
        0
      ]
    }
  ],
  "textures": [
    {
      "sampler": 0,
      "source": 0
    },
    {
      "sampler": 0,
      "source": 1
    },
    {
      "sampler": 0,
      "source": 2
    }
  ]
}
