{
  "accessors": [
    {
      "bufferView": 2,
      "componentType": 5126,
      "count": 216,
      "max": [
        0.18314075469970703,
        0.01817203126847744,
        0.18314099311828613
      ],
      "min": [
        -0.18314170837402344,
        -0.007272547576576471,
        -0.18314170837402344
      ],
      "type": "VEC3"
    },
    {
      "bufferView": 2,
      "byteOffset": 2592,
      "componentType": 5126,
      "count": 216,
      "max": [
        0.9659262299537659,
        1.0,
        0.9659258127212524
      ],
      "min": [
        -0.9659262299537659,
        -1.0,
        -0.9659258127212524
      ],
      "type": "VEC3"
    },
    {
      "bufferView": 1,
      "componentType": 5126,
      "count": 216,
      "max": [
        0.5778363347053528,
        0.9410588145256042
      ],
      "min": [
        0.376915842294693,
        0.6569494605064392
      ],
      "type": "VEC2"
    },
    {
      "bufferView": 0,
      "componentType": 5125,
      "count": 348,
      "type": "SCALAR"
    },
    {
      "bufferView": 2,
      "byteOffset": 5184,
      "componentType": 5126,
      "count": 216,
      "max": [
        0.15814733505249023,
        0.01569213531911373,
        0.1581484079360962
      ],
      "min": [
        -0.15814924240112305,
        -0.006280079949647188,
        -0.1581484079360962
      ],
      "type": "VEC3"
    },
    {
      "bufferView": 2,
      "byteOffset": 7776,
      "componentType": 5126,
      "count": 216,
      "max": [
        0.9659261703491211,
        1.0,
        0.965925931930542
      ],
      "min": [
        -0.9659261703491211,
        -1.0,
        -0.965925931930542
      ],
      "type": "VEC3"
    },
    {
      "bufferView": 1,
      "byteOffset": 1728,
      "componentType": 5126,
      "count": 216,
      "max": [
        0.5692431926727295,
        0.558934211730957
      ],
      "min": [
        0.30897027254104614,
        0.19089820981025696
      ],
      "type": "VEC2"
    },
    {
      "bufferView": 0,
      "byteOffset": 1392,
      "componentType": 5125,
      "count": 348,
      "type": "SCALAR"
    },
    {
      "bufferView": 2,
      "byteOffset": 10368,
      "componentType": 5126,
      "count": 216,
      "max": [
        0.16590404510498047,
        0.01646183431148529,
        0.16590535640716553
      ],
      "min": [
        -0.1659069061279297,
        -0.00658811628818512,
        -0.16590583324432373
      ],
      "type": "VEC3"
    },
    {
      "bufferView": 2,
      "byteOffset": 12960,
      "componentType": 5126,
      "count": 216,
      "max": [
        0.9659267663955688,
        1.0,
        0.9659259915351868
      ],
      "min": [
        -0.9659267663955688,
        -1.0,
        -0.965925931930542
      ],
      "type": "VEC3"
    },
    {
      "bufferView": 1,
      "byteOffset": 3456,
      "componentType": 5126,
      "count": 216,
      "max": [
        0.9270370602607727,
        0.42910733819007874
      ],
      "min": [
        0.6401386857032776,
        0.023423437029123306
      ],
      "type": "VEC2"
    },
    {
      "bufferView": 0,
      "byteOffset": 2784,
      "componentType": 5125,
      "count": 348,
      "type": "SCALAR"
    },
    {
      "bufferView": 2,
      "byteOffset": 15552,
      "componentType": 5126,
      "count": 216,
      "max": [
        0.18677186965942383,
        0.01853230781853199,
        0.18677210807800293
      ],
      "min": [
        -0.18677282333374023,
        -0.0074167316779494286,
        -0.18677234649658203
      ],
      "type": "VEC3"
    },
    {
      "bufferView": 2,
      "byteOffset": 18144,
      "componentType": 5126,
      "count": 216,
      "max": [
        0.9659252762794495,
        1.0,
        0.965925931930542
      ],
      "min": [
        -0.9659252762794495,
        -1.0,
        -0.965925931930542
      ],
      "type": "VEC3"
    },
    {
      "bufferView": 1,
      "byteOffset": 5184,
      "componentType": 5126,
      "count": 216,
      "max": [
        0.9416925311088562,
        0.9553393721580505
      ],
      "min": [
        0.7250328063964844,
        0.6489750742912292
      ],
      "type": "VEC2"
    },
    {
      "bufferView": 0,
      "byteOffset": 4176,
      "componentType": 5125,
      "count": 348,
      "type": "SCALAR"
    },
    {
      "bufferView": 2,
      "byteOffset": 20736,
      "componentType": 5126,
      "count": 216,
      "max": [
        0.1895589828491211,
        0.018808919936418533,
        0.18955981731414795
      ],
      "min": [
        -0.1895608901977539,
        -0.007527432404458523,
        -0.18956005573272705
      ],
      "type": "VEC3"
    },
    {
      "bufferView": 2,
      "byteOffset": 23328,
      "componentType": 5126,
      "count": 216,
      "max": [
        0.9659255743026733,
        1.0,
        0.9659258723258972
      ],
      "min": [
        -0.9659255743026733,
        -1.0,
        -0.9659258723258972
      ],
      "type": "VEC3"
    },
    {
      "bufferView": 1,
      "byteOffset": 6912,
      "componentType": 5126,
      "count": 216,
      "max": [
        0.27881139516830444,
        0.9893606901168823
      ],
      "min": [
        0.008395141921937466,
        0.6069828271865845
      ],
      "type": "VEC2"
    },
    {
      "bufferView": 0,
      "byteOffset": 5568,
      "componentType": 5125,
      "count": 348,
      "type": "SCALAR"
    },
    {
      "bufferView": 2,
      "byteOffset": 25920,
      "componentType": 5126,
      "count": 56,
      "max": [
        0.17832136154174805,
        0.03759603202342987,
        0.1783214807510376
      ],
      "min": [
        -0.17832136154174805,
        -0.01682763546705246,
        -0.1783212423324585
      ],
      "type": "VEC3"
    },
    {
      "bufferView": 2,
      "byteOffset": 26592,
      "componentType": 5126,
      "count": 56,
      "max": [
        1.0,
        1.0,
        1.0
      ],
      "min": [
        -1.0,
        -1.0,
        -1.0
      ],
      "type": "VEC3"
    },
    {
      "bufferView": 1,
      "byteOffset": 8640,
      "componentType": 5126,
      "count": 56,
      "max": [
        0.2547019124031067,
        0.5452226400375366
      ],
      "min": [
        0.017269501462578773,
        0.2094847708940506
      ],
      "type": "VEC2"
    },
    {
      "bufferView": 0,
      "byteOffset": 6960,
      "componentType": 5125,
      "count": 84,
      "type": "SCALAR"
    },
    {
      "bufferView": 2,
      "byteOffset": 27264,
      "componentType": 5126,
      "count": 216,
      "max": [
        0.18314075469970703,
        0.01817203126847744,
        0.18314099311828613
      ],
      "min": [
        -0.18314170837402344,
        -0.007272547576576471,
        -0.18314170837402344
      ],
      "type": "VEC3"
    },
    {
      "bufferView": 2,
      "byteOffset": 29856,
      "componentType": 5126,
      "count": 216,
      "max": [
        0.9659263491630554,
        1.0,
        0.9659260511398315
      ],
      "min": [
        -0.9659263491630554,
        -1.0,
        -0.9659255743026733
      ],
      "type": "VEC3"
    },
    {
      "bufferView": 1,
      "byteOffset": 9088,
      "componentType": 5126,
      "count": 216,
      "max": [
        0.5778363347053528,
        0.9410588145256042
      ],
      "min": [
        0.376915842294693,
        0.6569494605064392
      ],
      "type": "VEC2"
    },
    {
      "bufferView": 0,
      "byteOffset": 7296,
      "componentType": 5125,
      "count": 348,
      "type": "SCALAR"
    },
    {
      "bufferView": 2,
      "byteOffset": 32448,
      "componentType": 5126,
      "count": 216,
      "max": [
        0.15814733505249023,
        0.01569213531911373,
        0.1581484079360962
      ],
      "min": [
        -0.15814924240112305,
        -0.006280079949647188,
        -0.1581484079360962
      ],
      "type": "VEC3"
    },
    {
      "bufferView": 2,
      "byteOffset": 35040,
      "componentType": 5126,
      "count": 216,
      "max": [
        0.9659261703491211,
        1.0,
        0.9659259915351868
      ],
      "min": [
        -0.9659261703491211,
        -1.0,
        -0.9659262895584106
      ],
      "type": "VEC3"
    },
    {
      "bufferView": 1,
      "byteOffset": 10816,
      "componentType": 5126,
      "count": 216,
      "max": [
        0.5692431926727295,
        0.558934211730957
      ],
      "min": [
        0.30897027254104614,
        0.19089820981025696
      ],
      "type": "VEC2"
    },
    {
      "bufferView": 0,
      "byteOffset": 8688,
      "componentType": 5125,
      "count": 348,
      "type": "SCALAR"
    },
    {
      "bufferView": 2,
      "byteOffset": 37632,
      "componentType": 5126,
      "count": 216,
      "max": [
        0.16590404510498047,
        0.01646183431148529,
        0.16590535640716553
      ],
      "min": [
        -0.1659069061279297,
        -0.00658811628818512,
        -0.16590583324432373
      ],
      "type": "VEC3"
    },
    {
      "bufferView": 2,
      "byteOffset": 40224,
      "componentType": 5126,
      "count": 216,
      "max": [
        0.9659268856048584,
        1.0,
        0.9659252762794495
      ],
      "min": [
        -0.9659268856048584,
        -1.0,
        -0.965925395488739
      ],
      "type": "VEC3"
    },
    {
      "bufferView": 1,
      "byteOffset": 12544,
      "componentType": 5126,
      "count": 216,
      "max": [
        0.9270370602607727,
        0.42910733819007874
      ],
      "min": [
        0.6401386857032776,
        0.023423437029123306
      ],
      "type": "VEC2"
    },
    {
      "bufferView": 0,
      "byteOffset": 10080,
      "componentType": 5125,
      "count": 348,
      "type": "SCALAR"
    },
    {
      "bufferView": 2,
      "byteOffset": 42816,
      "componentType": 5126,
      "count": 216,
      "max": [
        0.18677186965942383,
        0.01853230781853199,
        0.18677210807800293
      ],
      "min": [
        -0.18677282333374023,
        -0.0074167316779494286,
        -0.18677234649658203
      ],
      "type": "VEC3"
    },
    {
      "bufferView": 2,
      "byteOffset": 45408,
      "componentType": 5126,
      "count": 216,
      "max": [
        0.9659253358840942,
        1.0,
        0.9659255146980286
      ],
      "min": [
        -0.9659253358840942,
        -1.0,
        -0.9659256935119629
      ],
      "type": "VEC3"
    },
    {
      "bufferView": 1,
      "byteOffset": 14272,
      "componentType": 5126,
      "count": 216,
      "max": [
        0.9416925311088562,
        0.9553393721580505
      ],
      "min": [
        0.7250328063964844,
        0.6489750742912292
      ],
      "type": "VEC2"
    },
    {
      "bufferView": 0,
      "byteOffset": 11472,
      "componentType": 5125,
      "count": 348,
      "type": "SCALAR"
    },
    {
      "bufferView": 2,
      "byteOffset": 48000,
      "componentType": 5126,
      "count": 216,
      "max": [
        0.1895589828491211,
        0.018808919936418533,
        0.18955981731414795
      ],
      "min": [
        -0.1895608901977539,
        -0.007527432404458523,
        -0.18956005573272705
      ],
      "type": "VEC3"
    },
    {
      "bufferView": 2,
      "byteOffset": 50592,
      "componentType": 5126,
      "count": 216,
      "max": [
        0.9659255743026733,
        1.0,
        0.9659257531166077
      ],
      "min": [
        -0.9659255743026733,
        -1.0,
        -0.965925931930542
      ],
      "type": "VEC3"
    },
    {
      "bufferView": 1,
      "byteOffset": 16000,
      "componentType": 5126,
      "count": 216,
      "max": [
        0.27881139516830444,
        0.9893606901168823
      ],
      "min": [
        0.008395141921937466,
        0.6069828271865845
      ],
      "type": "VEC2"
    },
    {
      "bufferView": 0,
      "byteOffset": 12864,
      "componentType": 5125,
      "count": 348,
      "type": "SCALAR"
    },
    {
      "bufferView": 2,
      "byteOffset": 53184,
      "componentType": 5126,
      "count": 56,
      "max": [
        0.17832136154174805,
        0.03759603202342987,
        0.1783214807510376
      ],
      "min": [
        -0.17832136154174805,
        -0.01682763546705246,
        -0.1783212423324585
      ],
      "type": "VEC3"
    },
    {
      "bufferView": 2,
      "byteOffset": 53856,
      "componentType": 5126,
      "count": 56,
      "max": [
        1.0,
        1.0,
        1.0
      ],
      "min": [
        -1.0,
        -1.0,
        -1.0
      ],
      "type": "VEC3"
    },
    {
      "bufferView": 1,
      "byteOffset": 17728,
      "componentType": 5126,
      "count": 56,
      "max": [
        0.2547019124031067,
        0.5452226400375366
      ],
      "min": [
        0.017269501462578773,
        0.2094847708940506
      ],
      "type": "VEC2"
    },
    {
      "bufferView": 0,
      "byteOffset": 14256,
      "componentType": 5125,
      "count": 84,
      "type": "SCALAR"
    },
    {
      "bufferView": 2,
      "byteOffset": 54528,
      "componentType": 5126,
      "count": 24,
      "max": [
        2.0551323890686035,
        0.19128134846687317,
        1.167880654335022
      ],
      "min": [
        -2.0551323890686035,
        -0.19128136336803436,
        -1.1678804159164429
      ],
      "type": "VEC3"
    },
    {
      "bufferView": 2,
      "byteOffset": 54816,
      "componentType": 5126,
      "count": 24,
      "max": [
        1.0,
        1.0,
        1.0
      ],
      "min": [
        -1.0,
        -1.0,
        -1.0
      ],
      "type": "VEC3"
    },
    {
      "bufferView": 1,
      "byteOffset": 18176,
      "componentType": 5126,
      "count": 24,
      "max": [
        0.875,
        1.0
      ],
      "min": [
        0.125,
        0.0
      ],
      "type": "VEC2"
    },
    {
      "bufferView": 0,
      "byteOffset": 14592,
      "componentType": 5125,
      "count": 36,
      "type": "SCALAR"
    }
  ],
  "asset": {
    "extras": {
      "author": "Icevanilla (https://sketchfab.com/vanillao03)",
      "license": "CC-BY-4.0 (http://creativecommons.org/licenses/by/4.0/)",
      "source": "https://sketchfab.com/3d-models/psx-style-vintage-wall-clocks-9dc475ad89874ccc9d2b199d0ec00806",
      "title": "PSX-Style Vintage Wall Clocks"
    },
    "generator": "Sketchfab-17.1.0",
    "version": "2.0"
  },
  "bufferViews": [
    {
      "buffer": 0,
      "byteLength": 14736,
      "name": "floatBufferViews",
      "target": 34963
    },
    {
      "buffer": 0,
      "byteLength": 18368,
      "byteOffset": 14736,
      "byteStride": 8,
      "name": "floatBufferViews",
      "target": 34962
    },
    {
      "buffer": 0,
      "byteLength": 55104,
      "byteOffset": 33104,
      "byteStride": 12,
      "name": "floatBufferViews",
      "target": 34962
    }
  ],
  "buffers": [
    {
      "byteLength": 88208,
      "uri": "scene.bin"
    }
  ],
  "extensionsUsed": [
    "KHR_materials_unlit"
  ],
  "images": [
    {
      "uri": "textures/Wall_Clocks_baseColor.jpeg"
    },
    {
      "uri": "textures/Clock_Broken_baseColor.jpeg"
    }
  ],
  "materials": [
    {
      "doubleSided": true,
      "extensions": {
        "KHR_materials_unlit": {}
      },
      "name": "Wall_Clocks",
      "pbrMetallicRoughness": {
        "baseColorTexture": {
          "index": 0
        },
        "metallicFactor": 0.0
      }
    },
    {
      "doubleSided": true,
      "extensions": {
        "KHR_materials_unlit": {}
      },
      "name": "Clock_Broken",
      "pbrMetallicRoughness": {
        "baseColorTexture": {
          "index": 1
        },
        "metallicFactor": 0.0
      }
    },
    {
      "doubleSided": true,
      "extensions": {
        "KHR_materials_unlit": {}
      },
      "name": "Wall",
      "pbrMetallicRoughness": {
        "baseColorFactor": [
          0.003688590695205539,
          0.003688590695205539,
          0.003688590695205539,
          1.0
        ],
        "metallicFactor": 0.0
      }
    }
  ],
  "meshes": [
    {
      "name": "Wall Clock_Wall Clocks_0",
      "primitives": [
        {
          "attributes": {
            "NORMAL": 1,
            "POSITION": 0,
            "TEXCOORD_0": 2
          },
          "indices": 3,
          "material": 0,
          "mode": 4
        }
      ]
    },
    {
      "name": "Wall Clock.001_Wall Clocks_0",
      "primitives": [
        {
          "attributes": {
            "NORMAL": 5,
            "POSITION": 4,
            "TEXCOORD_0": 6
          },
          "indices": 7,
          "material": 0,
          "mode": 4
        }
      ]
    },
    {
      "name": "Wall Clock.002_Wall Clocks_0",
      "primitives": [
        {
          "attributes": {
            "NORMAL": 9,
            "POSITION": 8,
            "TEXCOORD_0": 10
          },
          "indices": 11,
          "material": 0,
          "mode": 4
        }
      ]
    },
    {
      "name": "Wall Clock.003_Wall Clocks_0",
      "primitives": [
        {
          "attributes": {
            "NORMAL": 13,
            "POSITION": 12,
            "TEXCOORD_0": 14
          },
          "indices": 15,
          "material": 0,
          "mode": 4
        }
      ]
    },
    {
      "name": "Wall Clock.004_Wall Clocks_0",
      "primitives": [
        {
          "attributes": {
            "NORMAL": 17,
            "POSITION": 16,
            "TEXCOORD_0": 18
          },
          "indices": 19,
          "material": 0,
          "mode": 4
        }
      ]
    },
    {
      "name": "Wall Clock.005_Wall Clocks_0",
      "primitives": [
        {
          "attributes": {
            "NORMAL": 21,
            "POSITION": 20,
            "TEXCOORD_0": 22
          },
          "indices": 23,
          "material": 0,
          "mode": 4
        }
      ]
    },
    {
      "name": "Wall Clock.006_Clock Broken_0",
      "primitives": [
        {
          "attributes": {
            "NORMAL": 25,
            "POSITION": 24,
            "TEXCOORD_0": 26
          },
          "indices": 27,
          "material": 1,
          "mode": 4
        }
      ]
    },
    {
      "name": "Wall Clock.007_Clock Broken_0",
      "primitives": [
        {
          "attributes": {
            "NORMAL": 29,
            "POSITION": 28,
            "TEXCOORD_0": 30
          },
          "indices": 31,
          "material": 1,
          "mode": 4
        }
      ]
    },
    {
      "name": "Wall Clock.008_Clock Broken_0",
      "primitives": [
        {
          "attributes": {
            "NORMAL": 33,
            "POSITION": 32,
            "TEXCOORD_0": 34
          },
          "indices": 35,
          "material": 1,
          "mode": 4
        }
      ]
    },
    {
      "name": "Wall Clock.009_Clock Broken_0",
      "primitives": [
        {
          "attributes": {
            "NORMAL": 37,
            "POSITION": 36,
            "TEXCOORD_0": 38
          },
          "indices": 39,
          "material": 1,
          "mode": 4
        }
      ]
    },
    {
      "name": "Wall Clock.010_Clock Broken_0",
      "primitives": [
        {
          "attributes": {
            "NORMAL": 41,
            "POSITION": 40,
            "TEXCOORD_0": 42
          },
          "indices": 43,
          "material": 1,
          "mode": 4
        }
      ]
    },
    {
      "name": "Wall Clock.011_Clock Broken_0",
      "primitives": [
        {
          "attributes": {
            "NORMAL": 45,
            "POSITION": 44,
            "TEXCOORD_0": 46
          },
          "indices": 47,
          "material": 1,
          "mode": 4
        }
      ]
    },
    {
      "name": "Wall.001_Wall_0",
      "primitives": [
        {
          "attributes": {
            "NORMAL": 49,
            "POSITION": 48,
            "TEXCOORD_0": 50
          },
          "indices": 51,
          "material": 2,
          "mode": 4
        }
      ]
    }
  ],
  "nodes": [
    {
      "children": [
        1
      ],
      "matrix": [
        1.0,
        0.0,
        0.0,
        0.0,
        0.0,
        2.220446049250313e-16,
        -1.0,
        0.0,
        0.0,
        1.0,
        2.220446049250313e-16,
        0.0,
        0.0,
        0.0,
        0.0,
        1.0
      ],
      "name": "Sketchfab_model"
    },
    {
      "children": [
        2
      ],
      "matrix": [
        0.009999999776482582,
        0.0,
        0.0,
        0.0,
        0.0,
        0.0,
        0.009999999776482582,
        0.0,
        0.0,
        -0.009999999776482582,
        0.0,
        0.0,
        0.0,
        0.0,
        0.0,
        1.0
      ],
      "name": "7bc6d2d7c461412db13af86702516e10.fbx"
    },
    {
      "children": [
        3,
        5,
        7,
        9,
        11,
        13,
        15,
        17,
        19,
        21,
        23,
        25,
        27
      ],
      "name": "RootNode"
    },
    {
      "children": [
        4
      ],
      "matrix": [
        100.0,
        0.0,
        0.0,
        0.0,
        0.0,
        -1.629206793918314e-05,
        -99.99999999999868,
        0.0,
        0.0,
        99.99999999999868,
        -1.629206793918314e-05,
        0.0,
        464.4211730957031,
        179.5015106201172,
        0.7263076305389404,
        1.0
      ],
      "name": "Wall Clock"
    },
    {
      "mesh": 0,
      "name": "Wall Clock_Wall Clocks_0"
    },
    {
      "children": [
        6
      ],
      "matrix": [
        100.0,
        0.0,
        0.0,
        0.0,
        0.0,
        -1.629206793918314e-05,
        -99.99999999999868,
        0.0,
        0.0,
        99.99999999999868,
        -1.629206793918314e-05,
        0.0,
        678.7717895507813,
        179.904541015625,
        0.478317528963089,
        1.0
      ],
      "name": "Wall Clock.001"
    },
    {
      "mesh": 1,
      "name": "Wall Clock.001_Wall Clocks_0"
    },
    {
      "children": [
        8
      ],
      "matrix": [
        100.0,
        0.0,
        0.0,
        0.0,
        0.0,
        -1.629206793918314e-05,
        -99.99999999999868,
        0.0,
        0.0,
        99.99999999999868,
        -1.629206793918314e-05,
        0.0,
        630.69921875,
        180.4689178466797,
        0.5552854537963867,
        1.0
      ],
      "name": "Wall Clock.002"
    },
    {
      "mesh": 2,
      "name": "Wall Clock.002_Wall Clocks_0"
    },
    {
      "children": [
        10
      ],
      "matrix": [
        100.0,
        0.0,
        0.0,
        0.0,
        0.0,
        -1.629206793918314e-05,
        -99.99999999999868,
        0.0,
        0.0,
        99.99999999999868,
        -1.629206793918314e-05,
        0.0,
        577.4553833007813,
        179.39178466796875,
        0.7623324990272522,
        1.0
      ],
      "name": "Wall Clock.003"
    },
    {
      "mesh": 3,
      "name": "Wall Clock.003_Wall Clocks_0"
    },
    {
      "children": [
        12
      ],
      "matrix": [
        100.0,
        0.0,
        0.0,
        0.0,
        0.0,
        -1.629206793918314e-05,
        -99.99999999999868,
        0.0,
        0.0,
        99.99999999999868,
        -1.629206793918314e-05,
        0.0,
        518.9615478515625,
        179.51382446289063,
        0.7899918556213379,
        1.0
      ],
      "name": "Wall Clock.004"
    },
    {
      "mesh": 4,
      "name": "Wall Clock.004_Wall Clocks_0"
    },
    {
      "children": [
        14
      ],
      "matrix": [
        100.0,
        0.0,
        0.0,
        0.0,
        0.0,
        -1.629206793918314e-05,
        -99.99999999999868,
        0.0,
        0.0,
        99.99999999999868,
        -1.629206793918314e-05,
        0.0,
        411.9595947265625,
        178.48486328125,
        -0.036707326769828796,
        1.0
      ],
      "name": "Wall Clock.005"
    },
    {
      "mesh": 5,
      "name": "Wall Clock.005_Wall Clocks_0"
    },
    {
      "children": [
        16
      ],
      "matrix": [
        100.0,
        0.0,
        0.0,
        0.0,
        0.0,
        -1.629206793918314e-05,
        -99.99999999999868,
        0.0,
        0.0,
        99.99999999999868,
        -1.629206793918314e-05,
        0.0,
        464.4211730957031,
        124.92555236816406,
        0.7263076305389404,
        1.0
      ],
      "name": "Wall Clock.006"
    },
    {
      "mesh": 6,
      "name": "Wall Clock.006_Clock Broken_0"
    },
    {
      "children": [
        18
      ],
      "matrix": [
        100.0,
        0.0,
        0.0,
        0.0,
        0.0,
        -1.629206793918314e-05,
        -99.99999999999868,
        0.0,
        0.0,
        99.99999999999868,
        -1.629206793918314e-05,
        0.0,
        678.7717895507813,
        125.3285903930664,
        0.478317528963089,
        1.0
      ],
      "name": "Wall Clock.007"
    },
    {
      "mesh": 7,
      "name": "Wall Clock.007_Clock Broken_0"
    },
    {
      "children": [
        20
      ],
      "matrix": [
        100.0,
        0.0,
        0.0,
        0.0,
        0.0,
        -1.629206793918314e-05,
        -99.99999999999868,
        0.0,
        0.0,
        99.99999999999868,
        -1.629206793918314e-05,
        0.0,
        630.69921875,
        125.89295959472656,
        0.5552854537963867,
        1.0
      ],
      "name": "Wall Clock.008"
    },
    {
      "mesh": 8,
      "name": "Wall Clock.008_Clock Broken_0"
    },
    {
      "children": [
        22
      ],
      "matrix": [
        100.0,
        0.0,
        0.0,
        0.0,
        0.0,
        -1.629206793918314e-05,
        -99.99999999999868,
        0.0,
        0.0,
        99.99999999999868,
        -1.629206793918314e-05,
        0.0,
        577.4553833007813,
        124.81583404541016,
        0.7623324990272522,
        1.0
      ],
      "name": "Wall Clock.009"
    },
    {
      "mesh": 9,
      "name": "Wall Clock.009_Clock Broken_0"
    },
    {
      "children": [
        24
      ],
      "matrix": [
        100.0,
        0.0,
        0.0,
        0.0,
        0.0,
        -1.629206793918314e-05,
        -99.99999999999868,
        0.0,
        0.0,
        99.99999999999868,
        -1.629206793918314e-05,
        0.0,
        518.9615478515625,
        124.9378662109375,
        0.7899918556213379,
        1.0
      ],
      "name": "Wall Clock.010"
    },
    {
      "mesh": 10,
      "name": "Wall Clock.010_Clock Broken_0"
    },
    {
      "children": [
        26
      ],
      "matrix": [
        100.0,
        0.0,
        0.0,
        0.0,
        0.0,
        -1.629206793918314e-05,
        -99.99999999999868,
        0.0,
        0.0,
        99.99999999999868,
        -1.629206793918314e-05,
        0.0,
        411.9595947265625,
        123.90890502929688,
        -0.036707326769828796,
        1.0
      ],
      "name": "Wall Clock.011"
    },
    {
      "mesh": 11,
      "name": "Wall Clock.011_Clock Broken_0"
    },
    {
      "children": [
        28
      ],
      "matrix": [
        100.0,
        0.0,
        0.0,
        0.0,
        0.0,
        -1.629206793918314e-05,
        -99.99999999999868,
        0.0,
        0.0,
        99.99999999999868,
        -1.629206793918314e-05,
        0.0,
        540.22119140625,
        118.91676330566406,
        -19.86883544921875,
        1.0
      ],
      "name": "Wall.001"
    },
    {
      "mesh": 12,
      "name": "Wall.001_Wall_0"
    }
  ],
  "samplers": [
    {
      "magFilter": 9729,
      "minFilter": 9987,
      "wrapS": 10497,
      "wrapT": 10497
    }
  ],
  "scene": 0,
  "scenes": [
    {
      "name": "Sketchfab_Scene",
      "nodes": [
        0
      ]
    }
  ],
  "textures": [
    {
      "sampler": 0,
      "source": 0
    },
    {
      "sampler": 0,
      "source": 1
    }
  ]
}
