{
  "accessors": [
    {
      "bufferView": 2,
      "componentType": 5126,
      "count": 52,
      "max": [
        14.5,
        36.541343688964844,
        3.328456163406372
      ],
      "min": [
        -14.5,
        -36.541343688964844,
        0.0
      ],
      "type": "VEC3"
    },
    {
      "bufferView": 2,
      "byteOffset": 624,
      "componentType": 5126,
      "count": 52,
      "max": [
        0.8016411662101746,
        0.8240189552307129,
        0.9840449690818787
      ],
      "min": [
        -0.8016411662101746,
        -0.8240214586257935,
        -0.9839503169059753
      ],
      "type": "VEC3"
    },
    {
      "bufferView": 1,
      "componentType": 5126,
      "count": 52,
      "max": [
        0.9962573647499084,
        0.7182942628860474
      ],
      "min": [
        0.4414811432361603,
        0.0039390018209815025
      ],
      "type": "VEC2"
    },
    {
      "bufferView": 0,
      "componentType": 5125,
      "count": 180,
      "type": "SCALAR"
    },
    {
      "bufferView": 2,
      "byteOffset": 1248,
      "componentType": 5126,
      "count": 56,
      "max": [
        15.29750919342041,
        37.36027526855469,
        2.7928576469421387
      ],
      "min": [
        -15.29750919342041,
        -37.36027526855469,
        -1.1920928955078125e-07
      ],
      "type": "VEC3"
    },
    {
      "bufferView": 2,
      "byteOffset": 1920,
      "componentType": 5126,
      "count": 56,
      "max": [
        1.0,
        1.0,
        1.0
      ],
      "min": [
        -1.0,
        -1.0,
        -1.0
      ],
      "type": "VEC3"
    },
    {
      "bufferView": 1,
      "byteOffset": 416,
      "componentType": 5126,
      "count": 56,
      "max": [
        0.9141525626182556,
        0.7376706004142761
      ],
      "min": [
        0.003884617006406188,
        0.005050002131611109
      ],
      "type": "VEC2"
    },
    {
      "bufferView": 0,
      "byteOffset": 720,
      "componentType": 5125,
      "count": 84,
      "type": "SCALAR"
    },
    {
      "bufferView": 2,
      "byteOffset": 2592,
      "componentType": 5126,
      "count": 134,
      "max": [
        1.498740553855896,
        1.2458672523498535,
        2.554809331893921
      ],
      "min": [
        -1.4987404346466064,
        -1.2458674907684326,
        -5.418702125549316
      ],
      "type": "VEC3"
    },
    {
      "bufferView": 2,
      "byteOffset": 4200,
      "componentType": 5126,
      "count": 134,
      "max": [
        1.0,
        1.0,
        0.9999992847442627
      ],
      "min": [
        -1.0,
        -1.0,
        -1.0
      ],
      "type": "VEC3"
    },
    {
      "bufferView": 1,
      "byteOffset": 864,
      "componentType": 5126,
      "count": 134,
      "max": [
        0.9982200860977173,
        0.9986698031425476
      ],
      "min": [
        0.6494796276092529,
        0.9352900981903076
      ],
      "type": "VEC2"
    },
    {
      "bufferView": 0,
      "byteOffset": 1056,
      "componentType": 5125,
      "count": 222,
      "type": "SCALAR"
    },
    {
      "bufferView": 2,
      "byteOffset": 5808,
      "componentType": 5126,
      "count": 39,
      "max": [
        6.2103047370910645,
        6.2103047370910645,
        0.192571759223938
      ],
      "min": [
        -6.2103047370910645,
        -6.2103047370910645,
        -1.0280438661575317
      ],
      "type": "VEC3"
    },
    {
      "bufferView": 2,
      "byteOffset": 6276,
      "componentType": 5126,
      "count": 39,
      "max": [
        1.0,
        1.0,
        0.6317955851554871
      ],
      "min": [
        -1.0,
        -1.0,
        -0.6317955851554871
      ],
      "type": "VEC3"
    },
    {
      "bufferView": 1,
      "byteOffset": 1936,
      "componentType": 5126,
      "count": 39,
      "max": [
        0.28471827507019043,
        0.7738118171691895
      ],
      "min": [
        0.0034943977370858192,
        0.7637914419174194
      ],
      "type": "VEC2"
    },
    {
      "bufferView": 0,
      "byteOffset": 1944,
      "componentType": 5125,
      "count": 144,
      "type": "SCALAR"
    },
    {
      "bufferView": 2,
      "byteOffset": 6744,
      "componentType": 5126,
      "count": 85,
      "max": [
        5.712856769561768,
        5.712856769561768,
        0.9331868290901184
      ],
      "min": [
        -5.712856769561768,
        -5.712856769561768,
        -0.17586420476436615
      ],
      "type": "VEC3"
    },
    {
      "bufferView": 2,
      "byteOffset": 7764,
      "componentType": 5126,
      "count": 85,
      "max": [
        0.9900010824203491,
        0.9900005459785461,
        1.0
      ],
      "min": [
        -0.9900004863739014,
        -0.9900005459785461,
        0.14106041193008423
      ],
      "type": "VEC3"
    },
    {
      "bufferView": 1,
      "byteOffset": 2248,
      "componentType": 5126,
      "count": 85,
      "max": [
        0.18332882225513458,
        0.9961935877799988
      ],
      "min": [
        0.09719778597354889,
        0.9100624918937683
      ],
      "type": "VEC2"
    },
    {
      "bufferView": 0,
      "byteOffset": 2520,
      "componentType": 5125,
      "count": 252,
      "type": "SCALAR"
    },
    {
      "bufferView": 2,
      "byteOffset": 8784,
      "componentType": 5126,
      "count": 85,
      "max": [
        5.712856769561768,
        5.712856769561768,
        0.9331868290901184
      ],
      "min": [
        -5.712856769561768,
        -5.712856769561768,
        -0.17586420476436615
      ],
      "type": "VEC3"
    },
    {
      "bufferView": 2,
      "byteOffset": 9804,
      "componentType": 5126,
      "count": 85,
      "max": [
        0.9900010824203491,
        0.9900005459785461,
        1.0
      ],
      "min": [
        -0.9900004863739014,
        -0.9900005459785461,
        0.14106041193008423
      ],
      "type": "VEC3"
    },
    {
      "bufferView": 1,
      "byteOffset": 2928,
      "componentType": 5126,
      "count": 85,
      "max": [
        0.3159061670303345,
        0.9127473831176758
      ],
      "min": [
        0.229775071144104,
        0.8266163468360901
      ],
      "type": "VEC2"
    },
    {
      "bufferView": 0,
      "byteOffset": 3528,
      "componentType": 5125,
      "count": 252,
      "type": "SCALAR"
    },
    {
      "bufferView": 2,
      "byteOffset": 10824,
      "componentType": 5126,
      "count": 39,
      "max": [
        6.2103047370910645,
        6.2103047370910645,
        0.192571759223938
      ],
      "min": [
        -6.2103047370910645,
        -6.2103047370910645,
        -1.0280438661575317
      ],
      "type": "VEC3"
    },
    {
      "bufferView": 2,
      "byteOffset": 11292,
      "componentType": 5126,
      "count": 39,
      "max": [
        1.0,
        1.0,
        0.6317955851554871
      ],
      "min": [
        -1.0,
        -1.0,
        -0.6317955851554871
      ],
      "type": "VEC3"
    },
    {
      "bufferView": 1,
      "byteOffset": 3608,
      "componentType": 5126,
      "count": 39,
      "max": [
        0.28450366854667664,
        0.7591711282730103
      ],
      "min": [
        0.0032798228785395622,
        0.749150812625885
      ],
      "type": "VEC2"
    },
    {
      "bufferView": 0,
      "byteOffset": 4536,
      "componentType": 5125,
      "count": 144,
      "type": "SCALAR"
    },
    {
      "bufferView": 2,
      "byteOffset": 11760,
      "componentType": 5126,
      "count": 85,
      "max": [
        5.712856769561768,
        5.712856769561768,
        0.9331868290901184
      ],
      "min": [
        -5.712856769561768,
        -5.712856769561768,
        -0.17586420476436615
      ],
      "type": "VEC3"
    },
    {
      "bufferView": 2,
      "byteOffset": 12780,
      "componentType": 5126,
      "count": 85,
      "max": [
        0.9900010824203491,
        0.9900005459785461,
        1.0
      ],
      "min": [
        -0.9900004863739014,
        -0.9900005459785461,
        0.14106041193008423
      ],
      "type": "VEC3"
    },
    {
      "bufferView": 1,
      "byteOffset": 3920,
      "componentType": 5126,
      "count": 85,
      "max": [
        0.1346185803413391,
        0.9153098464012146
      ],
      "min": [
        0.048487547785043716,
        0.8291788101196289
      ],
      "type": "VEC2"
    },
    {
      "bufferView": 0,
      "byteOffset": 5112,
      "componentType": 5125,
      "count": 252,
      "type": "SCALAR"
    },
    {
      "bufferView": 2,
      "byteOffset": 13800,
      "componentType": 5126,
      "count": 85,
      "max": [
        5.712856769561768,
        5.712856769561768,
        0.9331868290901184
      ],
      "min": [
        -5.712856769561768,
        -5.712856769561768,
        -0.17586420476436615
      ],
      "type": "VEC3"
    },
    {
      "bufferView": 2,
      "byteOffset": 14820,
      "componentType": 5126,
      "count": 85,
      "max": [
        0.9900010824203491,
        0.9900005459785461,
        1.0
      ],
      "min": [
        -0.9900004863739014,
        -0.9900005459785461,
        0.14106041193008423
      ],
      "type": "VEC3"
    },
    {
      "bufferView": 1,
      "byteOffset": 4600,
      "componentType": 5126,
      "count": 85,
      "max": [
        0.36773931980133057,
        0.9948894381523132
      ],
      "min": [
        0.2816082835197449,
        0.9087582230567932
      ],
      "type": "VEC2"
    },
    {
      "bufferView": 0,
      "byteOffset": 6120,
      "componentType": 5125,
      "count": 252,
      "type": "SCALAR"
    },
    {
      "bufferView": 2,
      "byteOffset": 15840,
      "componentType": 5126,
      "count": 134,
      "max": [
        1.498740553855896,
        1.2458672523498535,
        2.554809331893921
      ],
      "min": [
        -1.4987404346466064,
        -1.2458674907684326,
        -5.418702125549316
      ],
      "type": "VEC3"
    },
    {
      "bufferView": 2,
      "byteOffset": 17448,
      "componentType": 5126,
      "count": 134,
      "max": [
        1.0,
        1.0,
        0.9999992847442627
      ],
      "min": [
        -1.0,
        -1.0,
        -1.0
      ],
      "type": "VEC3"
    },
    {
      "bufferView": 1,
      "byteOffset": 5280,
      "componentType": 5126,
      "count": 134,
      "max": [
        0.9759120345115662,
        0.9963251948356628
      ],
      "min": [
        0.6895959377288818,
        0.9228289127349854
      ],
      "type": "VEC2"
    },
    {
      "bufferView": 0,
      "byteOffset": 7128,
      "componentType": 5125,
      "count": 222,
      "type": "SCALAR"
    },
    {
      "bufferView": 2,
      "byteOffset": 19056,
      "componentType": 5126,
      "count": 39,
      "max": [
        6.2103047370910645,
        6.2103047370910645,
        0.192571759223938
      ],
      "min": [
        -6.2103047370910645,
        -6.2103047370910645,
        -1.0280438661575317
      ],
      "type": "VEC3"
    },
    {
      "bufferView": 2,
      "byteOffset": 19524,
      "componentType": 5126,
      "count": 39,
      "max": [
        1.0,
        1.0,
        0.6317955851554871
      ],
      "min": [
        -1.0,
        -1.0,
        -0.6317955851554871
      ],
      "type": "VEC3"
    },
    {
      "bufferView": 1,
      "byteOffset": 6352,
      "componentType": 5126,
      "count": 39,
      "max": [
        0.5729246735572815,
        0.7591381669044495
      ],
      "min": [
        0.2917008101940155,
        0.7491178512573242
      ],
      "type": "VEC2"
    },
    {
      "bufferView": 0,
      "byteOffset": 8016,
      "componentType": 5125,
      "count": 144,
      "type": "SCALAR"
    },
    {
      "bufferView": 2,
      "byteOffset": 19992,
      "componentType": 5126,
      "count": 85,
      "max": [
        5.712856769561768,
        5.712856769561768,
        0.9331868290901184
      ],
      "min": [
        -5.712856769561768,
        -5.712856769561768,
        -0.17586420476436615
      ],
      "type": "VEC3"
    },
    {
      "bufferView": 2,
      "byteOffset": 21012,
      "componentType": 5126,
      "count": 85,
      "max": [
        0.9900010824203491,
        0.9900005459785461,
        1.0
      ],
      "min": [
        -0.9900004863739014,
        -0.9900005459785461,
        0.14106041193008423
      ],
      "type": "VEC3"
    },
    {
      "bufferView": 1,
      "byteOffset": 6664,
      "componentType": 5126,
      "count": 85,
      "max": [
        0.2738766074180603,
        0.9908544421195984
      ],
      "min": [
        0.18774569034576416,
        0.9047233462333679
      ],
      "type": "VEC2"
    },
    {
      "bufferView": 0,
      "byteOffset": 8592,
      "componentType": 5125,
      "count": 252,
      "type": "SCALAR"
    },
    {
      "bufferView": 2,
      "byteOffset": 22032,
      "componentType": 5126,
      "count": 85,
      "max": [
        5.712856769561768,
        5.712856769561768,
        0.9331868290901184
      ],
      "min": [
        -5.712856769561768,
        -5.712856769561768,
        -0.17586420476436615
      ],
      "type": "VEC3"
    },
    {
      "bufferView": 2,
      "byteOffset": 23052,
      "componentType": 5126,
      "count": 85,
      "max": [
        0.9900010824203491,
        0.9900005459785461,
        1.0
      ],
      "min": [
        -0.9900004863739014,
        -0.9900005459785461,
        0.14106041193008423
      ],
      "type": "VEC3"
    },
    {
      "bufferView": 1,
      "byteOffset": 7344,
      "componentType": 5126,
      "count": 85,
      "max": [
        0.4074774384498596,
        0.9145152568817139
      ],
      "min": [
        0.3213464021682739,
        0.828384280204773
      ],
      "type": "VEC2"
    },
    {
      "bufferView": 0,
      "byteOffset": 9600,
      "componentType": 5125,
      "count": 252,
      "type": "SCALAR"
    },
    {
      "bufferView": 2,
      "byteOffset": 24072,
      "componentType": 5126,
      "count": 134,
      "max": [
        1.498740553855896,
        1.2458672523498535,
        2.554809331893921
      ],
      "min": [
        -1.4987404346466064,
        -1.2458674907684326,
        -5.418702125549316
      ],
      "type": "VEC3"
    },
    {
      "bufferView": 2,
      "byteOffset": 25680,
      "componentType": 5126,
      "count": 134,
      "max": [
        1.0,
        1.0,
        0.9999992847442627
      ],
      "min": [
        -1.0,
        -1.0,
        -1.0
      ],
      "type": "VEC3"
    },
    {
      "bufferView": 1,
      "byteOffset": 8024,
      "componentType": 5126,
      "count": 134,
      "max": [
        0.955255925655365,
        0.9984426498413086
      ],
      "min": [
        0.7305723428726196,
        0.9351463913917542
      ],
      "type": "VEC2"
    },
    {
      "bufferView": 0,
      "byteOffset": 10608,
      "componentType": 5125,
      "count": 222,
      "type": "SCALAR"
    },
    {
      "bufferView": 2,
      "byteOffset": 27288,
      "componentType": 5126,
      "count": 39,
      "max": [
        6.2103047370910645,
        6.2103047370910645,
        0.192571759223938
      ],
      "min": [
        -6.2103047370910645,
        -6.2103047370910645,
        -1.0280438661575317
      ],
      "type": "VEC3"
    },
    {
      "bufferView": 2,
      "byteOffset": 27756,
      "componentType": 5126,
      "count": 39,
      "max": [
        1.0,
        1.0,
        0.6317955851554871
      ],
      "min": [
        -1.0,
        -1.0,
        -0.6317955851554871
      ],
      "type": "VEC3"
    },
    {
      "bufferView": 1,
      "byteOffset": 9096,
      "componentType": 5126,
      "count": 39,
      "max": [
        0.572790265083313,
        0.7738118171691895
      ],
      "min": [
        0.2915664315223694,
        0.7637914419174194
      ],
      "type": "VEC2"
    },
    {
      "bufferView": 0,
      "byteOffset": 11496,
      "componentType": 5125,
      "count": 144,
      "type": "SCALAR"
    },
    {
      "bufferView": 2,
      "byteOffset": 28224,
      "componentType": 5126,
      "count": 85,
      "max": [
        5.712856769561768,
        5.712856769561768,
        0.9331868290901184
      ],
      "min": [
        -5.712856769561768,
        -5.712856769561768,
        -0.17586420476436615
      ],
      "type": "VEC3"
    },
    {
      "bufferView": 2,
      "byteOffset": 29244,
      "componentType": 5126,
      "count": 85,
      "max": [
        0.9900010824203491,
        0.9900005459785461,
        1.0
      ],
      "min": [
        -0.9900004863739014,
        -0.9900005459785461,
        0.14106041193008423
      ],
      "type": "VEC3"
    },
    {
      "bufferView": 1,
      "byteOffset": 9408,
      "componentType": 5126,
      "count": 85,
      "max": [
        0.08844323456287384,
        0.997164785861969
      ],
      "min": [
        0.0023121386766433716,
        0.9110336899757385
      ],
      "type": "VEC2"
    },
    {
      "bufferView": 0,
      "byteOffset": 12072,
      "componentType": 5125,
      "count": 252,
      "type": "SCALAR"
    },
    {
      "bufferView": 2,
      "byteOffset": 30264,
      "componentType": 5126,
      "count": 85,
      "max": [
        5.712856769561768,
        5.712856769561768,
        0.9331868290901184
      ],
      "min": [
        -5.712856769561768,
        -5.712856769561768,
        -0.17586420476436615
      ],
      "type": "VEC3"
    },
    {
      "bufferView": 2,
      "byteOffset": 31284,
      "componentType": 5126,
      "count": 85,
      "max": [
        0.9900010824203491,
        0.9900005459785461,
        1.0
      ],
      "min": [
        -0.9900004863739014,
        -0.9900005459785461,
        0.14106041193008423
      ],
      "type": "VEC3"
    },
    {
      "bufferView": 1,
      "byteOffset": 10088,
      "componentType": 5126,
      "count": 85,
      "max": [
        0.2254313975572586,
        0.9126760363578796
      ],
      "min": [
        0.13930031657218933,
        0.8265449404716492
      ],
      "type": "VEC2"
    },
    {
      "bufferView": 0,
      "byteOffset": 13080,
      "componentType": 5125,
      "count": 252,
      "type": "SCALAR"
    },
    {
      "bufferView": 2,
      "byteOffset": 32304,
      "componentType": 5126,
      "count": 134,
      "max": [
        1.498740553855896,
        1.2458672523498535,
        2.554809331893921
      ],
      "min": [
        -1.4987404346466064,
        -1.2458674907684326,
        -5.418702125549316
      ],
      "type": "VEC3"
    },
    {
      "bufferView": 2,
      "byteOffset": 33912,
      "componentType": 5126,
      "count": 134,
      "max": [
        1.0,
        1.0,
        0.9999992847442627
      ],
      "min": [
        -1.0,
        -1.0,
        -1.0
      ],
      "type": "VEC3"
    },
    {
      "bufferView": 1,
      "byteOffset": 10768,
      "componentType": 5126,
      "count": 134,
      "max": [
        0.9352163076400757,
        0.9957495331764221
      ],
      "min": [
        0.7739046812057495,
        0.9235131144523621
      ],
      "type": "VEC2"
    },
    {
      "bufferView": 0,
      "byteOffset": 14088,
      "componentType": 5125,
      "count": 222,
      "type": "SCALAR"
    },
    {
      "bufferView": 2,
      "byteOffset": 35520,
      "componentType": 5126,
      "count": 374,
      "max": [
        27.781160354614258,
        3.325282096862793,
        62.81961441040039
      ],
      "min": [
        -1.1412627696990967,
        -19.728734970092773,
        -2.7808709144592285
      ],
      "type": "VEC3"
    },
    {
      "bufferView": 2,
      "byteOffset": 40008,
      "componentType": 5126,
      "count": 374,
      "max": [
        1.0,
        1.0,
        1.0
      ],
      "min": [
        -1.0,
        -1.0,
        -1.0
      ],
      "type": "VEC3"
    },
    {
      "bufferView": 1,
      "byteOffset": 11840,
      "componentType": 5126,
      "count": 374,
      "max": [
        0.8306100368499756,
        0.7421243190765381
      ],
      "min": [
        0.0031449580565094948,
        0.5077924132347107
      ],
      "type": "VEC2"
    },
    {
      "bufferView": 0,
      "byteOffset": 14976,
      "componentType": 5125,
      "count": 1368,
      "type": "SCALAR"
    }
  ],
  "asset": {
    "extras": {
      "author": "Jan_Strydom (https://sketchfab.com/JanStrydom)",
      "license": "CC-BY-4.0 (http://creativecommons.org/licenses/by/4.0/)",
      "source": "https://sketchfab.com/3d-models/ps1-horror-hospital-gurney-7fce61ac484343959e25208bc75c08ff",
      "title": "PS1 Horror Hospital Gurney"
    },
    "generator": "Sketchfab-16.9.0",
    "version": "2.0"
  },
  "bufferViews": [
    {
      "buffer": 0,
      "byteLength": 20448,
      "name": "floatBufferViews",
      "target": 34963
    },
    {
      "buffer": 0,
      "byteLength": 14832,
      "byteOffset": 20448,
      "byteStride": 8,
      "name": "floatBufferViews",
      "target": 34962
    },
    {
      "buffer": 0,
      "byteLength": 44496,
      "byteOffset": 35280,
      "byteStride": 12,
      "name": "floatBufferViews",
      "target": 34962
    }
  ],
  "buffers": [
    {
      "byteLength": 79776,
      "uri": "scene.bin"
    }
  ],
  "extensionsUsed": [
    "KHR_materials_unlit"
  ],
  "images": [
    {
      "uri": "textures/Gurney_baseColor.png"
    }
  ],
  "materials": [
    {
      "doubleSided": true,
      "extensions": {
        "KHR_materials_unlit": {}
      },
      "name": "Gurney",
      "pbrMetallicRoughness": {
        "baseColorTexture": {
          "index": 0
        },
        "metallicFactor": 0.0
      }
    }
  ],
  "meshes": [
    {
      "name": "Mattress_Gurney_0",
      "primitives": [
        {
          "attributes": {
            "NORMAL": 1,
            "POSITION": 0,
            "TEXCOORD_0": 2
          },
          "indices": 3,
          "material": 0,
          "mode": 4
        }
      ]
    },
    {
      "name": "Top_Gurney_0",
      "primitives": [
        {
          "attributes": {
            "NORMAL": 5,
            "POSITION": 4,
            "TEXCOORD_0": 6
          },
          "indices": 7,
          "material": 0,
          "mode": 4
        }
      ]
    },
    {
      "name": "Wheel Holder 01_Gurney_0",
      "primitives": [
        {
          "attributes": {
            "NORMAL": 9,
            "POSITION": 8,
            "TEXCOORD_0": 10
          },
          "indices": 11,
          "material": 0,
          "mode": 4
        }
      ]
    },
    {
      "name": "Wheel Rubber 01_Gurney_0",
      "primitives": [
        {
          "attributes": {
            "NORMAL": 13,
            "POSITION": 12,
            "TEXCOORD_0": 14
          },
          "indices": 15,
          "material": 0,
          "mode": 4
        }
      ]
    },
    {
      "name": "Outer Wheel_01_Gurney_0",
      "primitives": [
        {
          "attributes": {
            "NORMAL": 17,
            "POSITION": 16,
            "TEXCOORD_0": 18
          },
          "indices": 19,
          "material": 0,
          "mode": 4
        }
      ]
    },
    {
      "name": "Outer Wheel_02_Gurney_0",
      "primitives": [
        {
          "attributes": {
            "NORMAL": 21,
            "POSITION": 20,
            "TEXCOORD_0": 22
          },
          "indices": 23,
          "material": 0,
          "mode": 4
        }
      ]
    },
    {
      "name": "Wheel Rubber 02_Gurney_0",
      "primitives": [
        {
          "attributes": {
            "NORMAL": 25,
            "POSITION": 24,
            "TEXCOORD_0": 26
          },
          "indices": 27,
          "material": 0,
          "mode": 4
        }
      ]
    },
    {
      "name": "Outer Wheel_03_Gurney_0",
      "primitives": [
        {
          "attributes": {
            "NORMAL": 29,
            "POSITION": 28,
            "TEXCOORD_0": 30
          },
          "indices": 31,
          "material": 0,
          "mode": 4
        }
      ]
    },
    {
      "name": "Outer Wheel_04_Gurney_0",
      "primitives": [
        {
          "attributes": {
            "NORMAL": 33,
            "POSITION": 32,
            "TEXCOORD_0": 34
          },
          "indices": 35,
          "material": 0,
          "mode": 4
        }
      ]
    },
    {
      "name": "Wheel Holder 02_Gurney_0",
      "primitives": [
        {
          "attributes": {
            "NORMAL": 37,
            "POSITION": 36,
            "TEXCOORD_0": 38
          },
          "indices": 39,
          "material": 0,
          "mode": 4
        }
      ]
    },
    {
      "name": "Wheel Rubber 04_Gurney_0",
      "primitives": [
        {
          "attributes": {
            "NORMAL": 41,
            "POSITION": 40,
            "TEXCOORD_0": 42
          },
          "indices": 43,
          "material": 0,
          "mode": 4
        }
      ]
    },
    {
      "name": "Outer Wheel_07_Gurney_0",
      "primitives": [
        {
          "attributes": {
            "NORMAL": 45,
            "POSITION": 44,
            "TEXCOORD_0": 46
          },
          "indices": 47,
          "material": 0,
          "mode": 4
        }
      ]
    },
    {
      "name": "Outer Wheel_08_Gurney_0",
      "primitives": [
        {
          "attributes": {
            "NORMAL": 49,
            "POSITION": 48,
            "TEXCOORD_0": 50
          },
          "indices": 51,
          "material": 0,
          "mode": 4
        }
      ]
    },
    {
      "name": "Wheel Holder 04_Gurney_0",
      "primitives": [
        {
          "attributes": {
            "NORMAL": 53,
            "POSITION": 52,
            "TEXCOORD_0": 54
          },
          "indices": 55,
          "material": 0,
          "mode": 4
        }
      ]
    },
    {
      "name": "Wheel Rubber 03_Gurney_0",
      "primitives": [
        {
          "attributes": {
            "NORMAL": 57,
            "POSITION": 56,
            "TEXCOORD_0": 58
          },
          "indices": 59,
          "material": 0,
          "mode": 4
        }
      ]
    },
    {
      "name": "Outer Wheel_05_Gurney_0",
      "primitives": [
        {
          "attributes": {
            "NORMAL": 61,
            "POSITION": 60,
            "TEXCOORD_0": 62
          },
          "indices": 63,
          "material": 0,
          "mode": 4
        }
      ]
    },
    {
      "name": "Outer Wheel_06_Gurney_0",
      "primitives": [
        {
          "attributes": {
            "NORMAL": 65,
            "POSITION": 64,
            "TEXCOORD_0": 66
          },
          "indices": 67,
          "material": 0,
          "mode": 4
        }
      ]
    },
    {
      "name": "Wheel Holder 03_Gurney_0",
      "primitives": [
        {
          "attributes": {
            "NORMAL": 69,
            "POSITION": 68,
            "TEXCOORD_0": 70
          },
          "indices": 71,
          "material": 0,
          "mode": 4
        }
      ]
    },
    {
      "name": "Metal Underside_Gurney_0",
      "primitives": [
        {
          "attributes": {
            "NORMAL": 73,
            "POSITION": 72,
            "TEXCOORD_0": 74
          },
          "indices": 75,
          "material": 0,
          "mode": 4
        }
      ]
    }
  ],
  "nodes": [
    {
      "children": [
        1
      ],
      "matrix": [
        0.9766640663146973,
        0.0,
        0.0,
        0.0,
        0.0,
        2.1686298674932153e-16,
        -0.9766640663146973,
        0.0,
        0.0,
        0.9766640663146973,
        2.1686298674932153e-16,
        0.0,
        0.0,
        0.0,
        0.0,
        1.0
      ],
      "name": "Sketchfab_model"
    },
    {
      "children": [
        2
      ],
      "matrix": [
        0.02539999969303608,
        0.0,
        0.0,
        0.0,
        0.0,
        0.0,
        0.02539999969303608,
        0.0,
        0.0,
        -0.02539999969303608,
        0.0,
        0.0,
        0.0,
        0.0,
        0.0,
        1.0
      ],
      "name": "927fad94d4e74bce8f949e7388431a90.fbx"
    },
    {
      "children": [
        3,
        5,
        7,
        9,
        12,
        15,
        18,
        21,
        24,
        27,
        29,
        32,
        35,
        38,
        40,
        43,
        46,
        49,
        51
      ],
      "name": "RootNode"
    },
    {
      "children": [
        4
      ],
      "matrix": [
        1.0,
        0.0,
        0.0,
        0.0,
        0.0,
        8.742277435302981e-08,
        0.9999999999999962,
        0.0,
        0.0,
        -0.9999999999999962,
        8.742277435302981e-08,
        0.0,
        0.0,
        40.01862716674805,
        0.0,
        1.0
      ],
      "name": "Mattress"
    },
    {
      "mesh": 0,
      "name": "Mattress_Gurney_0"
    },
    {
      "children": [
        6
      ],
      "matrix": [
        1.0,
        0.0,
        0.0,
        0.0,
        0.0,
        8.742277435302981e-08,
        0.9999999999999962,
        0.0,
        0.0,
        -0.9999999999999962,
        8.742277435302981e-08,
        0.0,
        0.0,
        38.39247512817383,
        0.0,
        1.0
      ],
      "name": "Top"
    },
    {
      "mesh": 1,
      "name": "Top_Gurney_0"
    },
    {
      "children": [
        8
      ],
      "matrix": [
        1.2896610498428345,
        0.0,
        0.0,
        0.0,
        0.0,
        3.9635826799757235e-16,
        -1.785038948059082,
        0.0,
        0.0,
        1.0,
        2.220446049250313e-16,
        0.0,
        -13.289286613464355,
        10.524003982543945,
        -31.645498275756836,
        1.0
      ],
      "name": "Wheel Holder 01"
    },
    {
      "mesh": 2,
      "name": "Wheel Holder 01_Gurney_0"
    },
    {
      "children": [
        10
      ],
      "matrix": [
        1.5838122085354462e-07,
        3.216531431662552e-24,
        0.9721369743347038,
        0.0,
        -4.2493455614223736e-08,
        0.9721369743347158,
        6.923062851077434e-15,
        0.0,
        -0.972136974334703,
        -4.24934556142243e-08,
        1.5838122085354462e-07,
        0.0,
        -13.283065795898438,
        6.161101341247559,
        -31.664926528930664,
        1.0
      ],
      "name": "Wheel Rubber 01"
    },
    {
      "children": [
        11
      ],
      "matrix": [
        1.0,
        0.0,
        -0.0,
        0.0,
        0.0,
        1.0,
        0.0,
        0.0,
        0.0,
        0.0,
        1.0,
        0.0,
        6.80578438050361e-08,
        1.82598220987984e-08,
        0.417736053466797,
        1.0
      ],
      "name": "Object_10"
    },
    {
      "mesh": 3,
      "name": "Wheel Rubber 01_Gurney_0"
    },
    {
      "children": [
        13
      ],
      "matrix": [
        1.5838122074561573e-07,
        -1.2866125726650208e-23,
        0.9721369743347038,
        0.0,
        -1.5838122079401562e-07,
        0.9721369743347038,
        2.580357681551559e-14,
        0.0,
        -0.9721369743346909,
        -1.5838122079401774e-07,
        1.5838122074561573e-07,
        0.0,
        -13.283065795898438,
        6.161101341247559,
        -31.664926528930664,
        1.0
      ],
      "name": "Outer Wheel_01"
    },
    {
      "children": [
        14
      ],
      "matrix": [
        1.0,
        0.0,
        -0.0,
        0.0,
        0.0,
        1.0,
        0.0,
        0.0,
        0.0,
        0.0,
        1.0,
        0.0,
        6.80578438050361e-08,
        1.82598220987984e-08,
        0.417736053466797,
        1.0
      ],
      "name": "Object_13"
    },
    {
      "mesh": 4,
      "name": "Outer Wheel_01_Gurney_0"
    },
    {
      "children": [
        16
      ],
      "matrix": [
        -1.8187414198412773e-07,
        -0.0,
        0.9721369743346997,
        -0.0,
        1.583812209725936e-07,
        0.9721369743347038,
        2.963105963683144e-14,
        -0.0,
        0.9721369743346868,
        -1.5838122097259637e-07,
        1.8187414209205662e-07,
        -0.0,
        -13.283065795898438,
        6.161101341247559,
        -31.664926528930664,
        1.0
      ],
      "name": "Outer Wheel_02"
    },
    {
      "children": [
        17
      ],
      "matrix": [
        1.0,
        0.0,
        -0.0,
        0.0,
        0.0,
        1.0,
        0.0,
        0.0,
        0.0,
        0.0,
        1.0,
        0.0,
        6.80578438050361e-08,
        1.82598220987984e-08,
        0.417736053466797,
        1.0
      ],
      "name": "Object_16"
    },
    {
      "mesh": 5,
      "name": "Outer Wheel_02_Gurney_0"
    },
    {
      "children": [
        19
      ],
      "matrix": [
        1.5838122085354462e-07,
        3.216531431662552e-24,
        0.9721369743347038,
        0.0,
        -4.2493455614223736e-08,
        0.9721369743347158,
        6.923062851077434e-15,
        0.0,
        -0.972136974334703,
        -4.24934556142243e-08,
        1.5838122085354462e-07,
        0.0,
        -13.283065795898438,
        6.161101341247559,
        31.673559188842773,
        1.0
      ],
      "name": "Wheel Rubber 02"
    },
    {
      "children": [
        20
      ],
      "matrix": [
        1.0,
        0.0,
        -0.0,
        0.0,
        0.0,
        1.0,
        0.0,
        0.0,
        0.0,
        0.0,
        1.0,
        0.0,
        6.80578438050361e-08,
        1.82598220987984e-08,
        0.417736053466797,
        1.0
      ],
      "name": "Object_19"
    },
    {
      "mesh": 6,
      "name": "Wheel Rubber 02_Gurney_0"
    },
    {
      "children": [
        22
      ],
      "matrix": [
        1.5838122074561573e-07,
        -1.2866125726650208e-23,
        0.9721369743347038,
        0.0,
        -1.5838122079401562e-07,
        0.9721369743347038,
        2.580357681551559e-14,
        0.0,
        -0.9721369743346909,
        -1.5838122079401774e-07,
        1.5838122074561573e-07,
        0.0,
        -13.283065795898438,
        6.161101341247559,
        31.673559188842773,
        1.0
      ],
      "name": "Outer Wheel_03"
    },
    {
      "children": [
        23
      ],
      "matrix": [
        1.0,
        0.0,
        -0.0,
        0.0,
        0.0,
        1.0,
        0.0,
        0.0,
        0.0,
        0.0,
        1.0,
        0.0,
        6.80578438050361e-08,
        1.82598220987984e-08,
        0.417736053466797,
        1.0
      ],
      "name": "Object_22"
    },
    {
      "mesh": 7,
      "name": "Outer Wheel_03_Gurney_0"
    },
    {
      "children": [
        25
      ],
      "matrix": [
        -1.8187414198412773e-07,
        -0.0,
        0.9721369743346997,
        -0.0,
        1.583812209725936e-07,
        0.9721369743347038,
        2.963105963683144e-14,
        -0.0,
        0.9721369743346868,
        -1.5838122097259637e-07,
        1.8187414209205662e-07,
        -0.0,
        -13.283065795898438,
        6.161101341247559,
        31.673559188842773,
        1.0
      ],
      "name": "Outer Wheel_04"
    },
    {
      "children": [
        26
      ],
      "matrix": [
        1.0,
        0.0,
        -0.0,
        0.0,
        0.0,
        1.0,
        0.0,
        0.0,
        0.0,
        0.0,
        1.0,
        0.0,
        6.80578438050361e-08,
        1.82598220987984e-08,
        0.417736053466797,
        1.0
      ],
      "name": "Object_25"
    },
    {
      "mesh": 8,
      "name": "Outer Wheel_04_Gurney_0"
    },
    {
      "children": [
        28
      ],
      "matrix": [
        1.2896610498428345,
        0.0,
        0.0,
        0.0,
        0.0,
        3.9635826799757235e-16,
        -1.785038948059082,
        0.0,
        0.0,
        1.0,
        2.220446049250313e-16,
        0.0,
        -13.289286613464355,
        10.524003982543945,
        31.6929874420166,
        1.0
      ],
      "name": "Wheel Holder 02"
    },
    {
      "mesh": 9,
      "name": "Wheel Holder 02_Gurney_0"
    },
    {
      "children": [
        30
      ],
      "matrix": [
        1.5838122085354462e-07,
        3.216531431662552e-24,
        0.9721369743347038,
        0.0,
        -4.2493455614223736e-08,
        0.9721369743347158,
        6.923062851077434e-15,
        0.0,
        -0.972136974334703,
        -4.24934556142243e-08,
        1.5838122085354462e-07,
        0.0,
        13.34392261505127,
        6.161101341247559,
        31.673559188842773,
        1.0
      ],
      "name": "Wheel Rubber 04"
    },
    {
      "children": [
        31
      ],
      "matrix": [
        1.0,
        0.0,
        -0.0,
        0.0,
        0.0,
        1.0,
        0.0,
        0.0,
        0.0,
        0.0,
        1.0,
        0.0,
        6.80578438050361e-08,
        1.82598220987984e-08,
        0.417736053466797,
        1.0
      ],
      "name": "Object_30"
    },
    {
      "mesh": 10,
      "name": "Wheel Rubber 04_Gurney_0"
    },
    {
      "children": [
        33
      ],
      "matrix": [
        1.5838122074561573e-07,
        -1.2866125726650208e-23,
        0.9721369743347038,
        0.0,
        -1.5838122079401562e-07,
        0.9721369743347038,
        2.580357681551559e-14,
        0.0,
        -0.9721369743346909,
        -1.5838122079401774e-07,
        1.5838122074561573e-07,
        0.0,
        13.34392261505127,
        6.161101341247559,
        31.673559188842773,
        1.0
      ],
      "name": "Outer Wheel_07"
    },
    {
      "children": [
        34
      ],
      "matrix": [
        1.0,
        0.0,
        -0.0,
        0.0,
        0.0,
        1.0,
        0.0,
        0.0,
        0.0,
        0.0,
        1.0,
        0.0,
        6.80578438050361e-08,
        1.82598220987984e-08,
        0.417736053466797,
        1.0
      ],
      "name": "Object_33"
    },
    {
      "mesh": 11,
      "name": "Outer Wheel_07_Gurney_0"
    },
    {
      "children": [
        36
      ],
      "matrix": [
        -1.8187414198412773e-07,
        -0.0,
        0.9721369743346997,
        -0.0,
        1.583812209725936e-07,
        0.9721369743347038,
        2.963105963683144e-14,
        -0.0,
        0.9721369743346868,
        -1.5838122097259637e-07,
        1.8187414209205662e-07,
        -0.0,
        13.34392261505127,
        6.161101341247559,
        31.673559188842773,
        1.0
      ],
      "name": "Outer Wheel_08"
    },
    {
      "children": [
        37
      ],
      "matrix": [
        1.0,
        0.0,
        -0.0,
        0.0,
        0.0,
        1.0,
        0.0,
        0.0,
        0.0,
        0.0,
        1.0,
        0.0,
        6.80578438050361e-08,
        1.82598220987984e-08,
        0.417736053466797,
        1.0
      ],
      "name": "Object_36"
    },
    {
      "mesh": 12,
      "name": "Outer Wheel_08_Gurney_0"
    },
    {
      "children": [
        39
      ],
      "matrix": [
        1.2896610498428345,
        0.0,
        0.0,
        0.0,
        0.0,
        3.9635826799757235e-16,
        -1.785038948059082,
        0.0,
        0.0,
        1.0,
        2.220446049250313e-16,
        0.0,
        13.337701797485352,
        10.524003982543945,
        31.6929874420166,
        1.0
      ],
      "name": "Wheel Holder 04"
    },
    {
      "mesh": 13,
      "name": "Wheel Holder 04_Gurney_0"
    },
    {
      "children": [
        41
      ],
      "matrix": [
        1.5838122085354462e-07,
        3.216531431662552e-24,
        0.9721369743347038,
        0.0,
        -4.2493455614223736e-08,
        0.9721369743347158,
        6.923062851077434e-15,
        0.0,
        -0.972136974334703,
        -4.24934556142243e-08,
        1.5838122085354462e-07,
        0.0,
        13.34392261505127,
        6.161101341247559,
        -31.67076873779297,
        1.0
      ],
      "name": "Wheel Rubber 03"
    },
    {
      "children": [
        42
      ],
      "matrix": [
        1.0,
        0.0,
        -0.0,
        0.0,
        0.0,
        1.0,
        0.0,
        0.0,
        0.0,
        0.0,
        1.0,
        0.0,
        6.80578438050361e-08,
        1.82598220987984e-08,
        0.417736053466797,
        1.0
      ],
      "name": "Object_41"
    },
    {
      "mesh": 14,
      "name": "Wheel Rubber 03_Gurney_0"
    },
    {
      "children": [
        44
      ],
      "matrix": [
        1.5838122074561573e-07,
        -1.2866125726650208e-23,
        0.9721369743347038,
        0.0,
        -1.5838122079401562e-07,
        0.9721369743347038,
        2.580357681551559e-14,
        0.0,
        -0.9721369743346909,
        -1.5838122079401774e-07,
        1.5838122074561573e-07,
        0.0,
        13.34392261505127,
        6.161101341247559,
        -31.67076873779297,
        1.0
      ],
      "name": "Outer Wheel_05"
    },
    {
      "children": [
        45
      ],
      "matrix": [
        1.0,
        0.0,
        -0.0,
        0.0,
        0.0,
        1.0,
        0.0,
        0.0,
        0.0,
        0.0,
        1.0,
        0.0,
        6.80578438050361e-08,
        1.82598220987984e-08,
        0.417736053466797,
        1.0
      ],
      "name": "Object_44"
    },
    {
      "mesh": 15,
      "name": "Outer Wheel_05_Gurney_0"
    },
    {
      "children": [
        47
      ],
      "matrix": [
        -1.8187414198412773e-07,
        -0.0,
        0.9721369743346997,
        -0.0,
        1.583812209725936e-07,
        0.9721369743347038,
        2.963105963683144e-14,
        -0.0,
        0.9721369743346868,
        -1.5838122097259637e-07,
        1.8187414209205662e-07,
        -0.0,
        13.34392261505127,
        6.161101341247559,
        -31.67076873779297,
        1.0
      ],
      "name": "Outer Wheel_06"
    },
    {
      "children": [
        48
      ],
      "matrix": [
        1.0,
        0.0,
        -0.0,
        0.0,
        0.0,
        1.0,
        0.0,
        0.0,
        0.0,
        0.0,
        1.0,
        0.0,
        6.80578438050361e-08,
        1.82598220987984e-08,
        0.417736053466797,
        1.0
      ],
      "name": "Object_47"
    },
    {
      "mesh": 16,
      "name": "Outer Wheel_06_Gurney_0"
    },
    {
      "children": [
        50
      ],
      "matrix": [
        1.2896610498428345,
        0.0,
        0.0,
        0.0,
        0.0,
        3.9635826799757235e-16,
        -1.785038948059082,
        0.0,
        0.0,
        1.0,
        2.220446049250313e-16,
        0.0,
        13.337701797485352,
        10.524003982543945,
        -31.65134048461914,
        1.0
      ],
      "name": "Wheel Holder 03"
    },
    {
      "mesh": 17,
      "name": "Wheel Holder 03_Gurney_0"
    },
    {
      "children": [
        52
      ],
      "matrix": [
        -0.9999999999999929,
        7.29946406236391e-24,
        -1.1920928955078043e-07,
        -0.0,
        -5.210803656118914e-15,
        0.9999999999999991,
        4.371138929738071e-08,
        -0.0,
        -1.1920928955078032e-07,
        -4.3711389297381014e-08,
        0.999999999999992,
        -0.0,
        0.030664443969726563,
        16.413856506347656,
        31.66214370727539,
        1.0
      ],
      "name": "Metal Underside"
    },
    {
      "children": [
        53
      ],
      "matrix": [
        1.0,
        0.0,
        -0.0,
        0.0,
        0.0,
        1.0,
        0.0,
        0.0,
        0.0,
        0.0,
        1.0,
        0.0,
        -13.3199491500854,
        15.9553890228271,
        -61.669261932373,
        1.0
      ],
      "name": "Object_52"
    },
    {
      "mesh": 18,
      "name": "Metal Underside_Gurney_0"
    }
  ],
  "samplers": [
    {
      "magFilter": 9729,
      "minFilter": 9987,
      "wrapS": 10497,
      "wrapT": 10497
    }
  ],
  "scene": 0,
  "scenes": [
    {
      "name": "Sketchfab_Scene",
      "nodes": [
        0
      ]
    }
  ],
  "textures": [
    {
      "sampler": 0,
      "source": 0
    }
  ]
}
