{
  "accessors": [
    {
      "bufferView": 2,
      "componentType": 5126,
      "count": 8125,
      "max": [
        12.301981925964355,
        62.56501770019531,
        12.70206356048584
      ],
      "min": [
        -10.809174537658691,
        30.4132022857666,
        -13.658964157104492
      ],
      "type": "VEC3"
    },
    {
      "bufferView": 2,
      "byteOffset": 97500,
      "componentType": 5126,
      "count": 8125,
      "max": [
        0.9995942115783691,
        0.9999905824661255,
        0.9999826550483704
      ],
      "min": [
        -0.9997488856315613,
        -0.9998601078987122,
        -0.9992666244506836
      ],
      "type": "VEC3"
    },
    {
      "bufferView": 3,
      "componentType": 5126,
      "count": 8125,
      "max": [
        0.9986076354980469,
        0.9981865286827087,
        0.9999681711196899,
        1.0
      ],
      "min": [
        -0.9997851252555847,
        -0.9999986290931702,
        -0.9998777508735657,
        -1.0
      ],
      "type": "VEC4"
    },
    {
      "bufferView": 1,
      "componentType": 5126,
      "count": 8125,
      "max": [
        1.0,
        0.991366982460022
      ],
      "min": [
        0.0,
        0.0
      ],
      "type": "VEC2"
    },
    {
      "bufferView": 0,
      "componentType": 5125,
      "count": 44487,
      "type": "SCALAR"
    }
  ],
  "asset": {
    "extras": {
      "author": "aldenchappellP (https://sketchfab.com/aldenchappellP)",
      "license": "CC-BY-4.0 (http://creativecommons.org/licenses/by/4.0/)",
      "source": "https://sketchfab.com/3d-models/scare-bear-c0b8ff28d4aa44aa8bb536b1af1c1be3",
      "title": "Scare Bear"
    },
    "generator": "Sketchfab-15.44.0",
    "version": "2.0"
  },
  "bufferViews": [
    {
      "buffer": 0,
      "byteLength": 177948,
      "name": "floatBufferViews",
      "target": 34963
    },
    {
      "buffer": 0,
      "byteLength": 65000,
      "byteOffset": 177948,
      "byteStride": 8,
      "name": "floatBufferViews",
      "target": 34962
    },
    {
      "buffer": 0,
      "byteLength": 195000,
      "byteOffset": 242948,
      "byteStride": 12,
      "name": "floatBufferViews",
      "target": 34962
    },
    {
      "buffer": 0,
      "byteLength": 130000,
      "byteOffset": 437948,
      "byteStride": 16,
      "name": "floatBufferViews",
      "target": 34962
    }
  ],
  "buffers": [
    {
      "byteLength": 567948,
      "uri": "scene.bin"
    }
  ],
  "images": [
    {
      "uri": "textures/ScareBear_LP_baseColor.jpeg"
    },
    {
      "uri": "textures/ScareBear_LP_metallicRoughness.png"
    },
    {
      "uri": "textures/ScareBear_LP_normal.png"
    }
  ],
  "materials": [
    {
      "doubleSided": true,
      "name": "ScareBear_LP",
      "normalTexture": {
        "index": 2
      },
      "pbrMetallicRoughness": {
        "baseColorTexture": {
          "index": 0
        },
        "metallicRoughnessTexture": {
          "index": 1
        }
      }
    }
  ],
  "meshes": [
    {
      "name": "defaultMaterial",
      "primitives": [
        {
          "attributes": {
            "NORMAL": 1,
            "POSITION": 0,
            "TANGENT": 2,
            "TEXCOORD_0": 3
          },
          "indices": 4,
          "material": 0,
          "mode": 4
        }
      ]
    }
  ],
  "nodes": [
    {
      "children": [
        1
      ],
      "matrix": [
        1.0,
        0.0,
        0.0,
        0.0,
        0.0,
        2.220446049250313e-16,
        -1.0,
        0.0,
        0.0,
        1.0,
        2.220446049250313e-16,
        0.0,
        0.0,
        0.0,
        0.0,
        1.0
      ],
      "name": "Sketchfab_model"
    },
    {
      "children": [
        2
      ],
      "matrix": [
        1.0,
        0.0,
        0.0,
        0.0,
        0.0,
        -4.371139006309477e-08,
        0.999999999999999,
        0.0,
        0.0,
        -0.999999999999999,
        -4.371139006309477e-08,
        0.0,
        0.0,
        0.0,
        0.0,
        1.0
      ],
      "name": "Collada visual scene group"
    },
    {
      "children": [
        3
      ],
      "matrix": [
        0.903279,
        0.016041,
        -0.428754,
        0.0,
        0.0,
        -0.999301,
        -0.037388,
        0.0,
        -0.429054,
        0.033772,
        -0.902647,
        0.0,
        0.0,
        62.375397,
        2.005363,
        1.0
      ],
      "name": "ScareBear_LP"
    },
    {
      "mesh": 0,
      "name": "defaultMaterial"
    }
  ],
  "samplers": [
    {
      "magFilter": 9729,
      "minFilter": 9987,
      "wrapS": 10497,
      "wrapT": 10497
    }
  ],
  "scene": 0,
  "scenes": [
    {
      "name": "Sketchfab_Scene",
      "nodes": [
        0
      ]
    }
  ],
  "textures": [
    {
      "sampler": 0,
      "source": 0
    },
    {
      "sampler": 0,
      "source": 1
    },
    {
      "sampler": 0,
      "source": 2
    }
  ]
}
