{
  "accessors": [
    {
      "bufferView": 2,
      "componentType": 5126,
      "count": 143,
      "max": [
        37.353824615478516,
        68.17848205566406,
        77.63090515136719
      ],
      "min": [
        -37.37491989135742,
        -68.06326293945313,
        -0.3995780944824219
      ],
      "type": "VEC3"
    },
    {
      "bufferView": 2,
      "byteOffset": 1716,
      "componentType": 5126,
      "count": 143,
      "max": [
        1.0,
        0.999999463558197,
        0.9999998807907104
      ],
      "min": [
        -1.0,
        -0.9999994039535522,
        -0.999346137046814
      ],
      "type": "VEC3"
    },
    {
      "bufferView": 1,
      "componentType": 5126,
      "count": 143,
      "max": [
        0.9626753926277161,
        0.9999998211860657
      ],
      "min": [
        2.9802322387695313e-08,
        0.0004265117458999157
      ],
      "type": "VEC2"
    },
    {
      "bufferView": 0,
      "componentType": 5125,
      "count": 408,
      "type": "SCALAR"
    }
  ],
  "asset": {
    "extras": {
      "author": "randombug (https://sketchfab.com/randombug)",
      "license": "CC-BY-4.0 (http://creativecommons.org/licenses/by/4.0/)",
      "source": "https://sketchfab.com/3d-models/rusty-electric-box-2d7b31aeab5f4b90991e137dd3786fad",
      "title": "Rusty Electric Box"
    },
    "generator": "Sketchfab-12.66.0",
    "version": "2.0"
  },
  "bufferViews": [
    {
      "buffer": 0,
      "byteLength": 1632,
      "name": "floatBufferViews",
      "target": 34963
    },
    {
      "buffer": 0,
      "byteLength": 1144,
      "byteOffset": 1632,
      "byteStride": 8,
      "name": "floatBufferViews",
      "target": 34962
    },
    {
      "buffer": 0,
      "byteLength": 3432,
      "byteOffset": 2776,
      "byteStride": 12,
      "name": "floatBufferViews",
      "target": 34962
    }
  ],
  "buffers": [
    {
      "byteLength": 6208,
      "uri": "scene.bin"
    }
  ],
  "images": [
    {
      "uri": "textures/electric_box_baseColor.jpeg"
    }
  ],
  "materials": [
    {
      "doubleSided": true,
      "name": "electric_box",
      "pbrMetallicRoughness": {
        "baseColorTexture": {
          "index": 0
        },
        "metallicFactor": 0.0,
        "roughnessFactor": 0.8929713596497552
      }
    }
  ],
  "meshes": [
    {
      "name": "Box001_electric box_0",
      "primitives": [
        {
          "attributes": {
            "NORMAL": 1,
            "POSITION": 0,
            "TEXCOORD_0": 2
          },
          "indices": 3,
          "material": 0,
          "mode": 4
        }
      ]
    }
  ],
  "nodes": [
    {
      "children": [
        1
      ],
      "matrix": [
        1.0026403566988407,
        -1.9515816151553052e-16,
        0.8789142234796543,
        0.0,
        0.8789142234796543,
        2.2263088188508654e-16,
        -1.0026403566988407,
        0.0,
        0.0,
        1.3333333730697632,
        2.9605948205663494e-16,
        0.0,
        -0.0010302624432370067,
        -4.44047691344829e-16,
        -0.00018698272469919175,
        1.0
      ],
      "name": "Sketchfab_model"
    },
    {
      "children": [
        2
      ],
      "matrix": [
        0.02539999969303608,
        0.0,
        0.0,
        0.0,
        0.0,
        0.0,
        0.02539999969303608,
        0.0,
        0.0,
        -0.02539999969303608,
        0.0,
        0.0,
        0.0,
        0.0,
        0.0,
        1.0
      ],
      "name": "electric_box.FBX"
    },
    {
      "children": [
        3
      ],
      "name": "RootNode"
    },
    {
      "children": [
        4
      ],
      "matrix": [
        1.0,
        0.0,
        0.0,
        0.0,
        0.0,
        2.220446049250313e-16,
        -1.0,
        0.0,
        0.0,
        1.0,
        2.220446049250313e-16,
        0.0,
        0.0,
        0.0,
        0.0,
        1.0
      ],
      "name": "Box001"
    },
    {
      "mesh": 0,
      "name": "Box001_electric box_0"
    }
  ],
  "samplers": [
    {
      "magFilter": 9729,
      "minFilter": 9987,
      "wrapS": 10497,
      "wrapT": 10497
    }
  ],
  "scene": 0,
  "scenes": [
    {
      "name": "Sketchfab_Scene",
      "nodes": [
        0
      ]
    }
  ],
  "textures": [
    {
      "sampler": 0,
      "source": 0
    }
  ]
}
