{
  "accessors": [
    {
      "bufferView": 2,
      "componentType": 5126,
      "count": 83,
      "max": [
        0.08821511268615723,
        0.9186776876449585,
        0.0735757127404213
      ],
      "min": [
        -0.10343021154403687,
        -0.8817171454429626,
        -0.0691385492682457
      ],
      "type": "VEC3"
    },
    {
      "bufferView": 2,
      "byteOffset": 996,
      "componentType": 5126,
      "count": 83,
      "max": [
        0.9817348122596741,
        1.0,
        0.9999966025352478
      ],
      "min": [
        -0.982232928276062,
        -0.996794581413269,
        -0.9580354690551758
      ],
      "type": "VEC3"
    },
    {
      "bufferView": 3,
      "componentType": 5126,
      "count": 83,
      "max": [
        0.9997803568840027,
        0.03926991671323776,
        0.9819268584251404,
        1.0
      ],
      "min": [
        -0.7966493368148804,
        -0.04041833057999611,
        -0.9830222725868225,
        1.0
      ],
      "type": "VEC4"
    },
    {
      "bufferView": 1,
      "componentType": 5126,
      "count": 83,
      "max": [
        0.7762402892112732,
        0.9009572863578796
      ],
      "min": [
        0.010960566811263561,
        0.010960540734231472
      ],
      "type": "VEC2"
    },
    {
      "bufferView": 1,
      "byteOffset": 664,
      "componentType": 5126,
      "count": 83,
      "max": [
        0.7762402892112732,
        0.9009572863578796
      ],
      "min": [
        0.010960566811263561,
        0.010960540734231472
      ],
      "type": "VEC2"
    },
    {
      "bufferView": 1,
      "byteOffset": 1328,
      "componentType": 5126,
      "count": 83,
      "max": [
        0.7762402892112732,
        0.9009572863578796
      ],
      "min": [
        0.010960566811263561,
        0.010960540734231472
      ],
      "type": "VEC2"
    },
    {
      "bufferView": 0,
      "componentType": 5125,
      "count": 258,
      "type": "SCALAR"
    },
    {
      "bufferView": 2,
      "byteOffset": 1992,
      "componentType": 5126,
      "count": 218,
      "max": [
        0.30884552001953125,
        0.07012110948562622,
        0.07166682183742523
      ],
      "min": [
        -0.2944716215133667,
        -0.07135307788848877,
        -0.06898047029972076
      ],
      "type": "VEC3"
    },
    {
      "bufferView": 2,
      "byteOffset": 4608,
      "componentType": 5126,
      "count": 218,
      "max": [
        1.0,
        1.0,
        1.0
      ],
      "min": [
        -1.0,
        -0.9997873902320862,
        -1.0
      ],
      "type": "VEC3"
    },
    {
      "bufferView": 3,
      "byteOffset": 1328,
      "componentType": 5126,
      "count": 218,
      "max": [
        0.5484063029289246,
        0.7076852917671204,
        1.0,
        1.0
      ],
      "min": [
        -0.9997959136962891,
        -1.0,
        -1.0,
        1.0
      ],
      "type": "VEC4"
    },
    {
      "bufferView": 1,
      "byteOffset": 1992,
      "componentType": 5126,
      "count": 218,
      "max": [
        0.9348529577255249,
        0.9622654318809509
      ],
      "min": [
        0.07372530549764633,
        0.15307679772377014
      ],
      "type": "VEC2"
    },
    {
      "bufferView": 1,
      "byteOffset": 3736,
      "componentType": 5126,
      "count": 218,
      "max": [
        0.9348529577255249,
        0.9622654318809509
      ],
      "min": [
        0.07372530549764633,
        0.15307679772377014
      ],
      "type": "VEC2"
    },
    {
      "bufferView": 1,
      "byteOffset": 5480,
      "componentType": 5126,
      "count": 218,
      "max": [
        0.9348529577255249,
        0.9622654318809509
      ],
      "min": [
        0.07372530549764633,
        0.15307679772377014
      ],
      "type": "VEC2"
    },
    {
      "bufferView": 0,
      "byteOffset": 1032,
      "componentType": 5125,
      "count": 366,
      "type": "SCALAR"
    },
    {
      "bufferView": 2,
      "byteOffset": 7224,
      "componentType": 5126,
      "count": 250,
      "max": [
        0.21585100889205933,
        0.5448131561279297,
        0.07786545157432556
      ],
      "min": [
        -0.17145246267318726,
        -1.0771619081497192,
        -0.07786545157432556
      ],
      "type": "VEC3"
    },
    {
      "bufferView": 2,
      "byteOffset": 10224,
      "componentType": 5126,
      "count": 250,
      "max": [
        0.9999997615814209,
        0.9950417280197144,
        1.0
      ],
      "min": [
        -0.9999997615814209,
        -1.0,
        -1.0
      ],
      "type": "VEC3"
    },
    {
      "bufferView": 3,
      "byteOffset": 4816,
      "componentType": 5126,
      "count": 250,
      "max": [
        0.997272789478302,
        0.9002300500869751,
        1.0,
        1.0
      ],
      "min": [
        -1.0,
        -0.9809865355491638,
        -1.0,
        1.0
      ],
      "type": "VEC4"
    },
    {
      "bufferView": 1,
      "byteOffset": 7224,
      "componentType": 5126,
      "count": 250,
      "max": [
        0.9195982813835144,
        0.9142254590988159
      ],
      "min": [
        0.07372529804706573,
        0.010960561223328114
      ],
      "type": "VEC2"
    },
    {
      "bufferView": 1,
      "byteOffset": 9224,
      "componentType": 5126,
      "count": 250,
      "max": [
        0.9195982813835144,
        0.9142254590988159
      ],
      "min": [
        0.07372529804706573,
        0.010960561223328114
      ],
      "type": "VEC2"
    },
    {
      "bufferView": 1,
      "byteOffset": 11224,
      "componentType": 5126,
      "count": 250,
      "max": [
        0.9195982813835144,
        0.9142254590988159
      ],
      "min": [
        0.07372529804706573,
        0.010960561223328114
      ],
      "type": "VEC2"
    },
    {
      "bufferView": 0,
      "byteOffset": 2496,
      "componentType": 5125,
      "count": 792,
      "type": "SCALAR"
    },
    {
      "bufferView": 2,
      "byteOffset": 13224,
      "componentType": 5126,
      "count": 82,
      "max": [
        0.049142688512802124,
        0.11311912536621094,
        0.07501878589391708
      ],
      "min": [
        -0.054215285927057266,
        -0.0795595645904541,
        -0.07501878589391708
      ],
      "type": "VEC3"
    },
    {
      "bufferView": 2,
      "byteOffset": 14208,
      "componentType": 5126,
      "count": 82,
      "max": [
        0.9893977046012878,
        0.9597000479698181,
        1.0
      ],
      "min": [
        -0.9961884021759033,
        -0.9728240370750427,
        -1.0
      ],
      "type": "VEC3"
    },
    {
      "bufferView": 3,
      "byteOffset": 8816,
      "componentType": 5126,
      "count": 82,
      "max": [
        0.9999410510063171,
        0.9961884617805481,
        5.058612941866159e-07,
        1.0
      ],
      "min": [
        -0.9999410510063171,
        -0.8063979148864746,
        -1.0,
        1.0
      ],
      "type": "VEC4"
    },
    {
      "bufferView": 1,
      "byteOffset": 13224,
      "componentType": 5126,
      "count": 82,
      "max": [
        0.9266182780265808,
        0.9039126634597778
      ],
      "min": [
        0.14904458820819855,
        0.08236910402774811
      ],
      "type": "VEC2"
    },
    {
      "bufferView": 1,
      "byteOffset": 13880,
      "componentType": 5126,
      "count": 82,
      "max": [
        0.9266182780265808,
        0.9039126634597778
      ],
      "min": [
        0.14904458820819855,
        0.08236910402774811
      ],
      "type": "VEC2"
    },
    {
      "bufferView": 1,
      "byteOffset": 14536,
      "componentType": 5126,
      "count": 82,
      "max": [
        0.9266182780265808,
        0.9039126634597778
      ],
      "min": [
        0.14904458820819855,
        0.08236910402774811
      ],
      "type": "VEC2"
    },
    {
      "bufferView": 0,
      "byteOffset": 5664,
      "componentType": 5125,
      "count": 216,
      "type": "SCALAR"
    },
    {
      "bufferView": 2,
      "byteOffset": 15192,
      "componentType": 5126,
      "count": 104,
      "max": [
        0.07848887890577316,
        0.059309422969818115,
        0.0628049224615097
      ],
      "min": [
        -0.13003665208816528,
        -0.10669955611228943,
        -0.0628049224615097
      ],
      "type": "VEC3"
    },
    {
      "bufferView": 2,
      "byteOffset": 16440,
      "componentType": 5126,
      "count": 104,
      "max": [
        0.9946322441101074,
        0.9999285340309143,
        1.0
      ],
      "min": [
        -0.5621457695960999,
        -0.8270382881164551,
        -1.0
      ],
      "type": "VEC3"
    },
    {
      "bufferView": 3,
      "byteOffset": 10128,
      "componentType": 5126,
      "count": 104,
      "max": [
        0.5621477961540222,
        0.8270397186279297,
        1.5896192451236857e-07,
        1.0
      ],
      "min": [
        -0.5621486902236938,
        -0.8270435333251953,
        -1.0,
        1.0
      ],
      "type": "VEC4"
    },
    {
      "bufferView": 1,
      "byteOffset": 15192,
      "componentType": 5126,
      "count": 104,
      "max": [
        0.7719313502311707,
        0.9614234566688538
      ],
      "min": [
        0.010960567742586136,
        0.3001587688922882
      ],
      "type": "VEC2"
    },
    {
      "bufferView": 1,
      "byteOffset": 16024,
      "componentType": 5126,
      "count": 104,
      "max": [
        0.7719313502311707,
        0.9614234566688538
      ],
      "min": [
        0.010960567742586136,
        0.3001587688922882
      ],
      "type": "VEC2"
    },
    {
      "bufferView": 1,
      "byteOffset": 16856,
      "componentType": 5126,
      "count": 104,
      "max": [
        0.7719313502311707,
        0.9614234566688538
      ],
      "min": [
        0.010960567742586136,
        0.3001587688922882
      ],
      "type": "VEC2"
    },
    {
      "bufferView": 0,
      "byteOffset": 6528,
      "componentType": 5125,
      "count": 144,
      "type": "SCALAR"
    },
    {
      "bufferView": 2,
      "byteOffset": 17688,
      "componentType": 5126,
      "count": 40,
      "max": [
        0.09366443008184433,
        0.08590444922447205,
        0.053800806403160095
      ],
      "min": [
        -0.09366443008184433,
        -0.08590441942214966,
        -0.053800810128450394
      ],
      "type": "VEC3"
    },
    {
      "bufferView": 2,
      "byteOffset": 18168,
      "componentType": 5126,
      "count": 40,
      "max": [
        0.9300801753997803,
        0.8385876417160034,
        1.0
      ],
      "min": [
        -0.9300801753997803,
        -0.8385875821113586,
        -1.0
      ],
      "type": "VEC3"
    },
    {
      "bufferView": 3,
      "byteOffset": 11792,
      "componentType": 5126,
      "count": 40,
      "max": [
        0.36735689640045166,
        0.9300801753997803,
        0.9415860772132874,
        1.0
      ],
      "min": [
        -0.3673565685749054,
        -0.9300803542137146,
        -0.9016292691230774,
        1.0
      ],
      "type": "VEC4"
    },
    {
      "bufferView": 1,
      "byteOffset": 17688,
      "componentType": 5126,
      "count": 40,
      "max": [
        0.9247186779975891,
        0.9587295651435852
      ],
      "min": [
        0.10258784890174866,
        0.010960566811263561
      ],
      "type": "VEC2"
    },
    {
      "bufferView": 1,
      "byteOffset": 18008,
      "componentType": 5126,
      "count": 40,
      "max": [
        0.9247186779975891,
        0.9587295651435852
      ],
      "min": [
        0.10258784890174866,
        0.010960566811263561
      ],
      "type": "VEC2"
    },
    {
      "bufferView": 1,
      "byteOffset": 18328,
      "componentType": 5126,
      "count": 40,
      "max": [
        0.9247186779975891,
        0.9587295651435852
      ],
      "min": [
        0.10258784890174866,
        0.010960566811263561
      ],
      "type": "VEC2"
    },
    {
      "bufferView": 0,
      "byteOffset": 7104,
      "componentType": 5125,
      "count": 84,
      "type": "SCALAR"
    },
    {
      "bufferView": 2,
      "byteOffset": 18648,
      "componentType": 5126,
      "count": 458,
      "max": [
        0.10754802078008652,
        0.09369507431983948,
        0.06884880363941193
      ],
      "min": [
        -0.09495796263217926,
        -0.0939050018787384,
        -0.0648384839296341
      ],
      "type": "VEC3"
    },
    {
      "bufferView": 2,
      "byteOffset": 24144,
      "componentType": 5126,
      "count": 458,
      "max": [
        0.9922218918800354,
        0.8907337188720703,
        0.9965623021125793
      ],
      "min": [
        -0.9936634302139282,
        -0.8891191482543945,
        -0.9930812120437622
      ],
      "type": "VEC3"
    },
    {
      "bufferView": 3,
      "byteOffset": 12432,
      "componentType": 5126,
      "count": 458,
      "max": [
        0.9967449307441711,
        0.9826919436454773,
        0.9848578572273254,
        1.0
      ],
      "min": [
        -0.9987526535987854,
        -0.9889818429946899,
        -0.9948266744613647,
        1.0
      ],
      "type": "VEC4"
    },
    {
      "bufferView": 1,
      "byteOffset": 18648,
      "componentType": 5126,
      "count": 458,
      "max": [
        0.9890393614768982,
        0.9872727394104004
      ],
      "min": [
        0.03854181617498398,
        0.01096056867390871
      ],
      "type": "VEC2"
    },
    {
      "bufferView": 1,
      "byteOffset": 22312,
      "componentType": 5126,
      "count": 458,
      "max": [
        0.9890393614768982,
        0.9872727394104004
      ],
      "min": [
        0.03854181617498398,
        0.01096056867390871
      ],
      "type": "VEC2"
    },
    {
      "bufferView": 1,
      "byteOffset": 25976,
      "componentType": 5126,
      "count": 458,
      "max": [
        0.9890393614768982,
        0.9872727394104004
      ],
      "min": [
        0.03854181617498398,
        0.01096056867390871
      ],
      "type": "VEC2"
    },
    {
      "bufferView": 0,
      "byteOffset": 7440,
      "componentType": 5125,
      "count": 1032,
      "type": "SCALAR"
    },
    {
      "bufferView": 2,
      "byteOffset": 29640,
      "componentType": 5126,
      "count": 87,
      "max": [
        0.04036232829093933,
        0.625943660736084,
        0.02839474193751812
      ],
      "min": [
        -0.04233875870704651,
        -0.1520383358001709,
        -0.02839474566280842
      ],
      "type": "VEC3"
    },
    {
      "bufferView": 2,
      "byteOffset": 30684,
      "componentType": 5126,
      "count": 87,
      "max": [
        0.9999603033065796,
        0.8033919334411621,
        1.0
      ],
      "min": [
        -0.9999603033065796,
        -1.0,
        -1.0
      ],
      "type": "VEC3"
    },
    {
      "bufferView": 3,
      "byteOffset": 19760,
      "componentType": 5126,
      "count": 87,
      "max": [
        0.8671000599861145,
        0.2351136952638626,
        0.9999992251396179,
        1.0
      ],
      "min": [
        -0.9999986290931702,
        -0.2366214394569397,
        -1.0,
        1.0
      ],
      "type": "VEC4"
    },
    {
      "bufferView": 1,
      "byteOffset": 29640,
      "componentType": 5126,
      "count": 87,
      "max": [
        0.6184318661689758,
        0.9630377888679504
      ],
      "min": [
        0.23813211917877197,
        0.5597243309020996
      ],
      "type": "VEC2"
    },
    {
      "bufferView": 1,
      "byteOffset": 30336,
      "componentType": 5126,
      "count": 87,
      "max": [
        0.6184318661689758,
        0.9630377888679504
      ],
      "min": [
        0.23813211917877197,
        0.5597243309020996
      ],
      "type": "VEC2"
    },
    {
      "bufferView": 1,
      "byteOffset": 31032,
      "componentType": 5126,
      "count": 87,
      "max": [
        0.6184318661689758,
        0.9630377888679504
      ],
      "min": [
        0.23813211917877197,
        0.5597243309020996
      ],
      "type": "VEC2"
    },
    {
      "bufferView": 0,
      "byteOffset": 11568,
      "componentType": 5125,
      "count": 222,
      "type": "SCALAR"
    },
    {
      "bufferView": 2,
      "byteOffset": 31728,
      "componentType": 5126,
      "count": 137,
      "max": [
        0.11708760261535645,
        0.3926906883716583,
        0.1174110695719719
      ],
      "min": [
        -0.11773453652858734,
        -0.4281550645828247,
        -0.1174110695719719
      ],
      "type": "VEC3"
    },
    {
      "bufferView": 2,
      "byteOffset": 33372,
      "componentType": 5126,
      "count": 137,
      "max": [
        0.9998379349708557,
        1.0,
        0.9999750256538391
      ],
      "min": [
        -0.9999926090240479,
        -1.0,
        -0.9999750256538391
      ],
      "type": "VEC3"
    },
    {
      "bufferView": 3,
      "byteOffset": 21152,
      "componentType": 5126,
      "count": 137,
      "max": [
        0.9999967217445374,
        0.2136918306350708,
        0.9999998807907104,
        1.0
      ],
      "min": [
        -0.7072394490242004,
        -0.2133164405822754,
        -0.9999994039535522,
        1.0
      ],
      "type": "VEC4"
    },
    {
      "bufferView": 1,
      "byteOffset": 31728,
      "componentType": 5126,
      "count": 137,
      "max": [
        0.9208475351333618,
        0.9591943621635437
      ],
      "min": [
        0.3829266130924225,
        0.010960583575069904
      ],
      "type": "VEC2"
    },
    {
      "bufferView": 1,
      "byteOffset": 32824,
      "componentType": 5126,
      "count": 137,
      "max": [
        0.9208475351333618,
        0.9591943621635437
      ],
      "min": [
        0.3829266130924225,
        0.010960583575069904
      ],
      "type": "VEC2"
    },
    {
      "bufferView": 1,
      "byteOffset": 33920,
      "componentType": 5126,
      "count": 137,
      "max": [
        0.9208475351333618,
        0.9591943621635437
      ],
      "min": [
        0.3829266130924225,
        0.010960583575069904
      ],
      "type": "VEC2"
    },
    {
      "bufferView": 0,
      "byteOffset": 12456,
      "componentType": 5125,
      "count": 426,
      "type": "SCALAR"
    },
    {
      "bufferView": 2,
      "byteOffset": 35016,
      "componentType": 5126,
      "count": 201,
      "max": [
        0.11368054151535034,
        0.27429381012916565,
        0.11145009845495224
      ],
      "min": [
        -0.10921972990036011,
        -0.3659820258617401,
        -0.11145012825727463
      ],
      "type": "VEC3"
    },
    {
      "bufferView": 2,
      "byteOffset": 37428,
      "componentType": 5126,
      "count": 201,
      "max": [
        1.0,
        1.0,
        1.0
      ],
      "min": [
        -1.0,
        -1.0,
        -1.0
      ],
      "type": "VEC3"
    },
    {
      "bufferView": 3,
      "byteOffset": 23344,
      "componentType": 5126,
      "count": 201,
      "max": [
        0.7086539268493652,
        0.9994511008262634,
        0.9999954700469971,
        1.0
      ],
      "min": [
        -0.9999254941940308,
        -1.0,
        -0.9999963045120239,
        1.0
      ],
      "type": "VEC4"
    },
    {
      "bufferView": 1,
      "byteOffset": 35016,
      "componentType": 5126,
      "count": 201,
      "max": [
        0.8696752190589905,
        0.9683309197425842
      ],
      "min": [
        0.01096056867390871,
        0.010960575193166733
      ],
      "type": "VEC2"
    },
    {
      "bufferView": 1,
      "byteOffset": 36624,
      "componentType": 5126,
      "count": 201,
      "max": [
        0.8696752190589905,
        0.9683309197425842
      ],
      "min": [
        0.01096056867390871,
        0.010960575193166733
      ],
      "type": "VEC2"
    },
    {
      "bufferView": 1,
      "byteOffset": 38232,
      "componentType": 5126,
      "count": 201,
      "max": [
        0.8696752190589905,
        0.9683309197425842
      ],
      "min": [
        0.01096056867390871,
        0.010960575193166733
      ],
      "type": "VEC2"
    },
    {
      "bufferView": 0,
      "byteOffset": 14160,
      "componentType": 5125,
      "count": 714,
      "type": "SCALAR"
    },
    {
      "bufferView": 2,
      "byteOffset": 39840,
      "componentType": 5126,
      "count": 100,
      "max": [
        0.027639389038085938,
        0.18731749057769775,
        0.014255126938223839
      ],
      "min": [
        -0.027639448642730713,
        -0.6121023297309875,
        -0.01339547336101532
      ],
      "type": "VEC3"
    },
    {
      "bufferView": 2,
      "byteOffset": 41040,
      "componentType": 5126,
      "count": 100,
      "max": [
        0.984804093837738,
        1.0,
        0.9999958276748657
      ],
      "min": [
        -0.9848034977912903,
        -1.0,
        -0.9922990798950195
      ],
      "type": "VEC3"
    },
    {
      "bufferView": 3,
      "byteOffset": 26560,
      "componentType": 5126,
      "count": 100,
      "max": [
        0.9999998211860657,
        0.10749928653240204,
        1.0,
        1.0
      ],
      "min": [
        -0.9668372273445129,
        -0.1279972642660141,
        -0.9847736358642578,
        1.0
      ],
      "type": "VEC4"
    },
    {
      "bufferView": 1,
      "byteOffset": 39840,
      "componentType": 5126,
      "count": 100,
      "max": [
        0.9802969098091125,
        0.8816075325012207
      ],
      "min": [
        0.5272364616394043,
        0.010960583575069904
      ],
      "type": "VEC2"
    },
    {
      "bufferView": 1,
      "byteOffset": 40640,
      "componentType": 5126,
      "count": 100,
      "max": [
        0.9802969098091125,
        0.8816075325012207
      ],
      "min": [
        0.5272364616394043,
        0.010960583575069904
      ],
      "type": "VEC2"
    },
    {
      "bufferView": 1,
      "byteOffset": 41440,
      "componentType": 5126,
      "count": 100,
      "max": [
        0.9802969098091125,
        0.8816075325012207
      ],
      "min": [
        0.5272364616394043,
        0.010960583575069904
      ],
      "type": "VEC2"
    },
    {
      "bufferView": 0,
      "byteOffset": 17016,
      "componentType": 5125,
      "count": 318,
      "type": "SCALAR"
    }
  ],
  "asset": {
    "extras": {
      "author": "Homie (https://sketchfab.com/nurbolnygmanov)",
      "license": "CC-BY-4.0 (http://creativecommons.org/licenses/by/4.0/)",
      "source": "https://sketchfab.com/3d-models/tools-pack-59c5e176b95b4a0c9e0d9bd0f577a837",
      "title": "tools pack"
    },
    "generator": "Sketchfab-16.62.0",
    "version": "2.0"
  },
  "bufferViews": [
    {
      "buffer": 0,
      "byteLength": 18288,
      "name": "floatBufferViews",
      "target": 34963
    },
    {
      "buffer": 0,
      "byteLength": 42240,
      "byteOffset": 18288,
      "byteStride": 8,
      "name": "floatBufferViews",
      "target": 34962
    },
    {
      "buffer": 0,
      "byteLength": 42240,
      "byteOffset": 60528,
      "byteStride": 12,
      "name": "floatBufferViews",
      "target": 34962
    },
    {
      "buffer": 0,
      "byteLength": 28160,
      "byteOffset": 102768,
      "byteStride": 16,
      "name": "floatBufferViews",
      "target": 34962
    }
  ],
  "buffers": [
    {
      "byteLength": 130928,
      "uri": "scene.bin"
    }
  ],
  "images": [
    {
      "uri": "textures/Base_baseColor.png"
    },
    {
      "uri": "textures/Base_metallicRoughness.png"
    },
    {
      "uri": "textures/Base_normal.png"
    }
  ],
  "materials": [
    {
      "doubleSided": true,
      "name": "Base",
      "normalTexture": {
        "index": 2
      },
      "pbrMetallicRoughness": {
        "baseColorTexture": {
          "index": 0
        },
        "metallicRoughnessTexture": {
          "index": 1
        }
      }
    }
  ],
  "meshes": [
    {
      "name": "Cylinder_Base_0",
      "primitives": [
        {
          "attributes": {
            "NORMAL": 1,
            "POSITION": 0,
            "TANGENT": 2,
            "TEXCOORD_0": 3,
            "TEXCOORD_1": 4,
            "TEXCOORD_2": 5
          },
          "indices": 6,
          "material": 0,
          "mode": 4
        }
      ]
    },
    {
      "name": "Cube_Base_0",
      "primitives": [
        {
          "attributes": {
            "NORMAL": 8,
            "POSITION": 7,
            "TANGENT": 9,
            "TEXCOORD_0": 10,
            "TEXCOORD_1": 11,
            "TEXCOORD_2": 12
          },
          "indices": 13,
          "material": 0,
          "mode": 4
        }
      ]
    },
    {
      "name": "Cube.001_Base_0",
      "primitives": [
        {
          "attributes": {
            "NORMAL": 15,
            "POSITION": 14,
            "TANGENT": 16,
            "TEXCOORD_0": 17,
            "TEXCOORD_1": 18,
            "TEXCOORD_2": 19
          },
          "indices": 20,
          "material": 0,
          "mode": 4
        }
      ]
    },
    {
      "name": "Cube.002_Base_0",
      "primitives": [
        {
          "attributes": {
            "NORMAL": 22,
            "POSITION": 21,
            "TANGENT": 23,
            "TEXCOORD_0": 24,
            "TEXCOORD_1": 25,
            "TEXCOORD_2": 26
          },
          "indices": 27,
          "material": 0,
          "mode": 4
        }
      ]
    },
    {
      "name": "Cube.003_Base_0",
      "primitives": [
        {
          "attributes": {
            "NORMAL": 29,
            "POSITION": 28,
            "TANGENT": 30,
            "TEXCOORD_0": 31,
            "TEXCOORD_1": 32,
            "TEXCOORD_2": 33
          },
          "indices": 34,
          "material": 0,
          "mode": 4
        }
      ]
    },
    {
      "name": "Cylinder.001_Base_0",
      "primitives": [
        {
          "attributes": {
            "NORMAL": 36,
            "POSITION": 35,
            "TANGENT": 37,
            "TEXCOORD_0": 38,
            "TEXCOORD_1": 39,
            "TEXCOORD_2": 40
          },
          "indices": 41,
          "material": 0,
          "mode": 4
        }
      ]
    },
    {
      "name": "Spiral_Base_0",
      "primitives": [
        {
          "attributes": {
            "NORMAL": 43,
            "POSITION": 42,
            "TANGENT": 44,
            "TEXCOORD_0": 45,
            "TEXCOORD_1": 46,
            "TEXCOORD_2": 47
          },
          "indices": 48,
          "material": 0,
          "mode": 4
        }
      ]
    },
    {
      "name": "Cube.004_Base_0",
      "primitives": [
        {
          "attributes": {
            "NORMAL": 50,
            "POSITION": 49,
            "TANGENT": 51,
            "TEXCOORD_0": 52,
            "TEXCOORD_1": 53,
            "TEXCOORD_2": 54
          },
          "indices": 55,
          "material": 0,
          "mode": 4
        }
      ]
    },
    {
      "name": "Cylinder.002_Base_0",
      "primitives": [
        {
          "attributes": {
            "NORMAL": 57,
            "POSITION": 56,
            "TANGENT": 58,
            "TEXCOORD_0": 59,
            "TEXCOORD_1": 60,
            "TEXCOORD_2": 61
          },
          "indices": 62,
          "material": 0,
          "mode": 4
        }
      ]
    },
    {
      "name": "Cylinder.003_Base_0",
      "primitives": [
        {
          "attributes": {
            "NORMAL": 64,
            "POSITION": 63,
            "TANGENT": 65,
            "TEXCOORD_0": 66,
            "TEXCOORD_1": 67,
            "TEXCOORD_2": 68
          },
          "indices": 69,
          "material": 0,
          "mode": 4
        }
      ]
    },
    {
      "name": "Cylinder.004_Base_0",
      "primitives": [
        {
          "attributes": {
            "NORMAL": 71,
            "POSITION": 70,
            "TANGENT": 72,
            "TEXCOORD_0": 73,
            "TEXCOORD_1": 74,
            "TEXCOORD_2": 75
          },
          "indices": 76,
          "material": 0,
          "mode": 4
        }
      ]
    }
  ],
  "nodes": [
    {
      "children": [
        1
      ],
      "matrix": [
        1.0,
        0.0,
        0.0,
        0.0,
        0.0,
        2.220446049250313e-16,
        -1.0,
        0.0,
        0.0,
        1.0,
        2.220446049250313e-16,
        0.0,
        0.0,
        0.0,
        0.0,
        1.0
      ],
      "name": "Sketchfab_model"
    },
    {
      "children": [
        2
      ],
      "matrix": [
        0.009999999776482582,
        0.0,
        0.0,
        0.0,
        0.0,
        0.0,
        0.009999999776482582,
        0.0,
        0.0,
        -0.009999999776482582,
        0.0,
        0.0,
        0.0,
        0.0,
        0.0,
        1.0
      ],
      "name": "toolz.fbx"
    },
    {
      "children": [
        3,
        5,
        7,
        9,
        11,
        13,
        15,
        17,
        19,
        21,
        23,
        25,
        28,
        31
      ],
      "name": "RootNode"
    },
    {
      "children": [
        4
      ],
      "matrix": [
        100.0,
        0.0,
        0.0,
        0.0,
        -0.0,
        -1.629206793918314e-05,
        -99.99999999999868,
        0.0,
        0.0,
        99.99999999999868,
        -1.629206793918314e-05,
        0.0,
        -47.95147705078125,
        4.139211640108442e-08,
        -5.703220367431641,
        1.0
      ],
      "name": "Cylinder"
    },
    {
      "mesh": 0,
      "name": "Cylinder_Base_0"
    },
    {
      "children": [
        6
      ],
      "matrix": [
        100.0,
        0.0,
        0.0,
        0.0,
        -0.0,
        -1.629206793918314e-05,
        -99.99999999999868,
        0.0,
        0.0,
        99.99999999999868,
        -1.629206793918314e-05,
        0.0,
        -50.19356155395508,
        -0.13431793451309204,
        -90.63694763183594,
        1.0
      ],
      "name": "Cube"
    },
    {
      "mesh": 1,
      "name": "Cube_Base_0"
    },
    {
      "children": [
        8
      ],
      "matrix": [
        100.0,
        0.0,
        0.0,
        0.0,
        -0.0,
        -1.629206793918314e-05,
        -99.99999999999868,
        0.0,
        0.0,
        57.226955413817606,
        -9.323454455545331e-06,
        0.0,
        -5.053588390350342,
        -0.383064329624176,
        -25.984344482421875,
        1.0
      ],
      "name": "Cube.001"
    },
    {
      "mesh": 2,
      "name": "Cube.001_Base_0"
    },
    {
      "children": [
        10
      ],
      "matrix": [
        100.0,
        0.0,
        0.0,
        0.0,
        0.0,
        -1.629206793918314e-05,
        -99.99999999999868,
        0.0,
        0.0,
        57.226955413817606,
        -9.323454455545331e-06,
        0.0,
        11.662644386291504,
        -0.15352551639080048,
        -61.90338134765625,
        1.0
      ],
      "name": "Cube.002"
    },
    {
      "mesh": 3,
      "name": "Cube.002_Base_0"
    },
    {
      "children": [
        12
      ],
      "matrix": [
        100.0,
        0.0,
        0.0,
        0.0,
        0.0,
        -1.629206793918314e-05,
        -99.99999999999868,
        0.0,
        0.0,
        57.226955413817606,
        -9.323454455545331e-06,
        0.0,
        10.340348243713379,
        -0.07840817421674728,
        -55.498600006103516,
        1.0
      ],
      "name": "Cube.003"
    },
    {
      "mesh": 4,
      "name": "Cube.003_Base_0"
    },
    {
      "children": [
        14
      ],
      "matrix": [
        100.0,
        0.0,
        0.0,
        0.0,
        -0.0,
        -1.629206793918314e-05,
        -99.99999999999868,
        0.0,
        0.0,
        57.226955413817606,
        -9.323454455545331e-06,
        0.0,
        -0.3701306879520416,
        0.09260272979736328,
        -46.56446838378906,
        1.0
      ],
      "name": "Cylinder.001"
    },
    {
      "mesh": 5,
      "name": "Cylinder.001_Base_0"
    },
    {
      "children": [
        16
      ],
      "matrix": [
        100.0,
        0.0,
        0.0,
        0.0,
        -0.0,
        -1.629206793918314e-05,
        -99.99999999999868,
        0.0,
        0.0,
        57.226955413817606,
        -9.323454455545331e-06,
        0.0,
        -0.3700721859931946,
        0.09260615706443787,
        -46.56446838378906,
        1.0
      ],
      "name": "Spiral"
    },
    {
      "mesh": 6,
      "name": "Spiral_Base_0"
    },
    {
      "children": [
        18
      ],
      "matrix": [
        100.0,
        0.0,
        0.0,
        0.0,
        0.0,
        -1.629206793918314e-05,
        -99.99999999999868,
        0.0,
        0.0,
        99.99999999999868,
        -1.629206793918314e-05,
        0.0,
        34.9248046875,
        -0.42164450883865356,
        -16.644927978515625,
        1.0
      ],
      "name": "Cube.004"
    },
    {
      "mesh": 7,
      "name": "Cube.004_Base_0"
    },
    {
      "children": [
        20
      ],
      "matrix": [
        100.0,
        0.0,
        0.0,
        0.0,
        0.0,
        -1.629206793918314e-05,
        -99.99999999999868,
        0.0,
        0.0,
        99.99999999999868,
        -1.629206793918314e-05,
        0.0,
        34.270416259765625,
        -0.6064218282699585,
        37.464820861816406,
        1.0
      ],
      "name": "Cylinder.002"
    },
    {
      "mesh": 8,
      "name": "Cylinder.002_Base_0"
    },
    {
      "children": [
        22
      ],
      "matrix": [
        100.0,
        0.0,
        0.0,
        0.0,
        0.0,
        -1.629206793918314e-05,
        -99.99999999999868,
        0.0,
        0.0,
        99.99999999999868,
        -1.629206793918314e-05,
        0.0,
        67.2995834350586,
        -0.6052249670028687,
        45.12328338623047,
        1.0
      ],
      "name": "Cylinder.003"
    },
    {
      "mesh": 9,
      "name": "Cylinder.003_Base_0"
    },
    {
      "children": [
        24
      ],
      "matrix": [
        100.0,
        0.0,
        0.0,
        0.0,
        0.0,
        -1.629206793918314e-05,
        -99.99999999999868,
        0.0,
        0.0,
        99.99999999999868,
        -1.629206793918314e-05,
        0.0,
        66.97882080078125,
        -0.6052243709564209,
        -42.39017868041992,
        1.0
      ],
      "name": "Cylinder.004"
    },
    {
      "mesh": 10,
      "name": "Cylinder.004_Base_0"
    },
    {
      "children": [
        26
      ],
      "matrix": [
        97.73312408927421,
        -8.819286294529343e-07,
        21.171559457717766,
        0.0,
        -8.953091379057392,
        90.61843989418662,
        41.329674953729075,
        0.0,
        -19.1853372463523,
        -42.288291572842915,
        88.56423223059042,
        0.0,
        -15.200715065002441,
        125.444091796875,
        74.27742767333984,
        1.0
      ],
      "name": "Sun"
    },
    {
      "children": [
        27
      ],
      "matrix": [
        1.0,
        0.0,
        0.0,
        0.0,
        0.0,
        2.220446049250313e-16,
        1.0,
        0.0,
        0.0,
        -1.0,
        2.220446049250313e-16,
        0.0,
        0.0,
        0.0,
        0.0,
        1.0
      ],
      "name": "Object_26"
    },
    {
      "name": "Object_27"
    },
    {
      "children": [
        29
      ],
      "matrix": [
        97.73312408927421,
        -8.819286294529343e-07,
        21.171559457717766,
        0.0,
        -8.953091379057392,
        90.61843989418662,
        41.329674953729075,
        0.0,
        -19.1853372463523,
        -42.288291572842915,
        88.56423223059042,
        0.0,
        -15.200715065002441,
        125.444091796875,
        74.27742767333984,
        1.0
      ],
      "name": "Sun.001"
    },
    {
      "children": [
        30
      ],
      "matrix": [
        1.0,
        0.0,
        0.0,
        0.0,
        0.0,
        2.220446049250313e-16,
        1.0,
        0.0,
        0.0,
        -1.0,
        2.220446049250313e-16,
        0.0,
        0.0,
        0.0,
        0.0,
        1.0
      ],
      "name": "Object_29"
    },
    {
      "name": "Object_30"
    },
    {
      "children": [
        32
      ],
      "matrix": [
        51.27043643166284,
        1.95752828391349e-06,
        -85.85652187287123,
        0.0,
        36.307276630791,
        90.61842985701563,
        21.681405853480037,
        0.0,
        77.80182653965247,
        -42.288313081216,
        46.46046021983516,
        0.0,
        104.6554946899414,
        125.444091796875,
        -2.1773695945739746,
        1.0
      ],
      "name": "Sun.002"
    },
    {
      "children": [
        33
      ],
      "matrix": [
        1.0,
        0.0,
        0.0,
        0.0,
        0.0,
        2.220446049250313e-16,
        1.0,
        0.0,
        0.0,
        -1.0,
        2.220446049250313e-16,
        0.0,
        0.0,
        0.0,
        0.0,
        1.0
      ],
      "name": "Object_32"
    },
    {
      "name": "Object_33"
    }
  ],
  "samplers": [
    {
      "magFilter": 9729,
      "minFilter": 9987,
      "wrapS": 10497,
      "wrapT": 10497
    }
  ],
  "scene": 0,
  "scenes": [
    {
      "name": "Sketchfab_Scene",
      "nodes": [
        0
      ]
    }
  ],
  "textures": [
    {
      "sampler": 0,
      "source": 0
    },
    {
      "sampler": 0,
      "source": 1
    },
    {
      "sampler": 0,
      "source": 2
    }
  ]
}
