{
  "accessors": [
    {
      "bufferView": 3,
      "componentType": 5126,
      "count": 4597,
      "max": [
        0.9592499732971191,
        0.18433000147342682,
        1.2119200229644775
      ],
      "min": [
        -0.9592499732971191,
        -0.2221599966287613,
        -0.7874199748039246
      ],
      "type": "VEC3"
    },
    {
      "bufferView": 3,
      "byteOffset": 55164,
      "componentType": 5126,
      "count": 4597,
      "max": [
        0.9997268915176392,
        0.9996466636657715,
        0.9999812245368958
      ],
      "min": [
        -0.9997268915176392,
        -0.9999608397483826,
        -0.999834418296814
      ],
      "type": "VEC3"
    },
    {
      "bufferView": 4,
      "componentType": 5126,
      "count": 4597,
      "max": [
        0.9999971389770508,
        0.999964714050293,
        0.9998116493225098,
        1.0
      ],
      "min": [
        -0.9995272755622864,
        -0.9999933838844299,
        -0.9993321299552917,
        -1.0
      ],
      "type": "VEC4"
    },
    {
      "bufferView": 2,
      "componentType": 5126,
      "count": 4597,
      "max": [
        0.9656100273132324,
        0.9996700286865234
      ],
      "min": [
        0.00033000000985339284,
        0.00033000000985339284
      ],
      "type": "VEC2"
    },
    {
      "bufferView": 1,
      "componentType": 5125,
      "count": 23025,
      "type": "SCALAR"
    },
    {
      "bufferView": 5,
      "componentType": 5126,
      "count": 54,
      "max": [
        1.0,
        0.9277099967002869,
        0.9990100264549255,
        0.0,
        0.0,
        1.0,
        0.0,
        0.0,
        1.0,
        0.9998599886894226,
        1.0,
        0.0,
        0.8939800262451172,
        0.2936300039291382,
        0.6911500096321106,
        1.0
      ],
      "min": [
        -1.0,
        -0.9277099967002869,
        -0.9990100264549255,
        0.0,
        0.0,
        -1.0,
        -1.0,
        0.0,
        -1.0,
        -0.9958299994468689,
        -0.34119001030921936,
        0.0,
        -0.8939800262451172,
        -0.9343100190162659,
        -0.19008000195026398,
        1.0
      ],
      "type": "MAT4"
    },
    {
      "bufferView": 0,
      "componentType": 5123,
      "count": 4597,
      "type": "VEC4"
    },
    {
      "bufferView": 4,
      "byteOffset": 73552,
      "componentType": 5126,
      "count": 4597,
      "max": [
        1.0,
        0.49929994344711304,
        0.27200549840927124,
        0.15441586077213287
      ],
      "min": [
        0.33585643768310547,
        0.0,
        0.0,
        0.0
      ],
      "type": "VEC4"
    },
    {
      "bufferView": 6,
      "componentType": 5126,
      "count": 167,
      "max": [
        7.0
      ],
      "min": [
        0.041669998317956924
      ],
      "type": "SCALAR"
    },
    {
      "bufferView": 7,
      "componentType": 5126,
      "count": 167,
      "max": [
        0.09573999792337418,
        0.1112930029630661,
        -0.021833568811416626
      ],
      "min": [
        -0.17000000178813934,
        0.07785913348197937,
        -0.133343905210495
      ],
      "type": "VEC3"
    },
    {
      "bufferView": 6,
      "byteOffset": 668,
      "componentType": 5126,
      "count": 1,
      "max": [
        0.041669998317956924
      ],
      "min": [
        0.041669998317956924
      ],
      "type": "SCALAR"
    },
    {
      "bufferView": 8,
      "componentType": 5126,
      "count": 1,
      "max": [
        0.7200381755828857,
        0.0,
        0.0,
        0.693934440612793
      ],
      "min": [
        0.7200381755828857,
        0.0,
        0.0,
        0.693934440612793
      ],
      "type": "VEC4"
    },
    {
      "bufferView": 6,
      "byteOffset": 672,
      "componentType": 5126,
      "count": 168,
      "max": [
        7.0
      ],
      "min": [
        0.041669998317956924
      ],
      "type": "SCALAR"
    },
    {
      "bufferView": 8,
      "byteOffset": 16,
      "componentType": 5126,
      "count": 168,
      "max": [
        0.08624491840600967,
        0.1722206175327301,
        0.04530061408877373,
        0.9973244667053223
      ],
      "min": [
        0.07132433354854584,
        -0.17220863699913025,
        -0.05567676201462746,
        0.9805694222450256
      ],
      "type": "VEC4"
    },
    {
      "bufferView": 6,
      "byteOffset": 1344,
      "componentType": 5126,
      "count": 155,
      "max": [
        7.0
      ],
      "min": [
        0.041669998317956924
      ],
      "type": "SCALAR"
    },
    {
      "bufferView": 8,
      "byteOffset": 2704,
      "componentType": 5126,
      "count": 155,
      "max": [
        0.30433934926986694,
        0.05266261100769043,
        0.10437432676553726,
        0.9927820563316345
      ],
      "min": [
        0.07200879603624344,
        -0.35607677698135376,
        -0.10553711652755737,
        0.9162786602973938
      ],
      "type": "VEC4"
    },
    {
      "bufferView": 6,
      "byteOffset": 1964,
      "componentType": 5126,
      "count": 135,
      "max": [
        7.0
      ],
      "min": [
        0.041669998317956924
      ],
      "type": "SCALAR"
    },
    {
      "bufferView": 8,
      "byteOffset": 5184,
      "componentType": 5126,
      "count": 135,
      "max": [
        0.14677464962005615,
        0.024609344080090523,
        0.026119282469153404,
        0.9957178235054016
      ],
      "min": [
        0.09215135127305984,
        -0.024609344080090523,
        -0.026119282469153404,
        0.988566517829895
      ],
      "type": "VEC4"
    },
    {
      "bufferView": 6,
      "byteOffset": 2504,
      "componentType": 5126,
      "count": 168,
      "max": [
        7.0
      ],
      "min": [
        0.041669998317956924
      ],
      "type": "SCALAR"
    },
    {
      "bufferView": 8,
      "byteOffset": 7344,
      "componentType": 5126,
      "count": 168,
      "max": [
        -0.13664039969444275,
        0.4418696463108063,
        0.33920031785964966,
        0.9830076098442078
      ],
      "min": [
        -0.448726087808609,
        -0.30472302436828613,
        -0.08143148571252823,
        0.7744415998458862
      ],
      "type": "VEC4"
    },
    {
      "bufferView": 6,
      "byteOffset": 3176,
      "componentType": 5126,
      "count": 133,
      "max": [
        7.0
      ],
      "min": [
        0.041669998317956924
      ],
      "type": "SCALAR"
    },
    {
      "bufferView": 8,
      "byteOffset": 10032,
      "componentType": 5126,
      "count": 133,
      "max": [
        0.06450476497411728,
        0.07727155089378357,
        -0.8352531790733337,
        0.5400098562240601
      ],
      "min": [
        -0.10366775095462799,
        -0.1261676847934723,
        -0.903455376625061,
        0.4046564996242523
      ],
      "type": "VEC4"
    },
    {
      "bufferView": 6,
      "byteOffset": 3708,
      "componentType": 5126,
      "count": 137,
      "max": [
        7.0
      ],
      "min": [
        0.041669998317956924
      ],
      "type": "SCALAR"
    },
    {
      "bufferView": 8,
      "byteOffset": 12160,
      "componentType": 5126,
      "count": 137,
      "max": [
        0.1074850857257843,
        0.019503707066178322,
        -0.30945608019828796,
        0.9478580355644226
      ],
      "min": [
        -0.07603038102388382,
        -0.13669002056121826,
        -0.32775333523750305,
        0.9337899684906006
      ],
      "type": "VEC4"
    },
    {
      "bufferView": 6,
      "byteOffset": 4256,
      "componentType": 5126,
      "count": 168,
      "max": [
        7.0
      ],
      "min": [
        0.041669998317956924
      ],
      "type": "SCALAR"
    },
    {
      "bufferView": 8,
      "byteOffset": 14352,
      "componentType": 5126,
      "count": 168,
      "max": [
        0.479601114988327,
        -0.03670225664973259,
        0.05260062217712402,
        0.9796181321144104
      ],
      "min": [
        0.1458982229232788,
        -0.12181241810321808,
        -0.09378141164779663,
        0.8727504014968872
      ],
      "type": "VEC4"
    },
    {
      "bufferView": 6,
      "byteOffset": 4928,
      "componentType": 5126,
      "count": 121,
      "max": [
        7.0
      ],
      "min": [
        0.041669998317956924
      ],
      "type": "SCALAR"
    },
    {
      "bufferView": 8,
      "byteOffset": 17040,
      "componentType": 5126,
      "count": 121,
      "max": [
        -0.09689271450042725,
        0.015828171744942665,
        0.1747962236404419,
        0.994456946849823
      ],
      "min": [
        -0.11290993541479111,
        -0.07179748266935349,
        -0.025210928171873093,
        0.9791119694709778
      ],
      "type": "VEC4"
    },
    {
      "bufferView": 6,
      "byteOffset": 5412,
      "componentType": 5126,
      "count": 83,
      "max": [
        7.0
      ],
      "min": [
        0.041669998317956924
      ],
      "type": "SCALAR"
    },
    {
      "bufferView": 8,
      "byteOffset": 18976,
      "componentType": 5126,
      "count": 83,
      "max": [
        0.24539916217327118,
        0.0011717050801962614,
        0.1793539673089981,
        0.9861282706260681
      ],
      "min": [
        0.13147620856761932,
        -0.12192860245704651,
        -0.3348750174045563,
        0.9015384316444397
      ],
      "type": "VEC4"
    },
    {
      "bufferView": 6,
      "byteOffset": 5744,
      "componentType": 5126,
      "count": 140,
      "max": [
        7.0
      ],
      "min": [
        0.041669998317956924
      ],
      "type": "SCALAR"
    },
    {
      "bufferView": 8,
      "byteOffset": 20304,
      "componentType": 5126,
      "count": 140,
      "max": [
        -0.05797133594751358,
        -0.01801932230591774,
        0.12363296747207642,
        0.9925357699394226
      ],
      "min": [
        -0.20029383897781372,
        -0.26482445001602173,
        -0.5014851093292236,
        0.810846745967865
      ],
      "type": "VEC4"
    },
    {
      "bufferView": 6,
      "byteOffset": 6304,
      "componentType": 5126,
      "count": 140,
      "max": [
        7.0
      ],
      "min": [
        0.041669998317956924
      ],
      "type": "SCALAR"
    },
    {
      "bufferView": 8,
      "byteOffset": 22544,
      "componentType": 5126,
      "count": 140,
      "max": [
        0.19578507542610168,
        0.0663246363401413,
        -0.035831570625305176,
        0.9966665506362915
      ],
      "min": [
        -0.10275676101446152,
        -0.1978977769613266,
        -0.4471733868122101,
        0.884096622467041
      ],
      "type": "VEC4"
    },
    {
      "bufferView": 6,
      "byteOffset": 6864,
      "componentType": 5126,
      "count": 83,
      "max": [
        7.0
      ],
      "min": [
        0.041669998317956924
      ],
      "type": "SCALAR"
    },
    {
      "bufferView": 8,
      "byteOffset": 24784,
      "componentType": 5126,
      "count": 83,
      "max": [
        0.07882539182901382,
        0.005215111654251814,
        0.03962714225053787,
        0.9998805522918701
      ],
      "min": [
        0.014824575744569302,
        -0.05925467237830162,
        -0.35344067215919495,
        0.9302440285682678
      ],
      "type": "VEC4"
    },
    {
      "bufferView": 6,
      "byteOffset": 7196,
      "componentType": 5126,
      "count": 114,
      "max": [
        7.0
      ],
      "min": [
        0.041669998317956924
      ],
      "type": "SCALAR"
    },
    {
      "bufferView": 8,
      "byteOffset": 26112,
      "componentType": 5126,
      "count": 114,
      "max": [
        0.05453440919518471,
        -0.0038266938645392656,
        0.15282535552978516,
        0.9999183416366577
      ],
      "min": [
        -0.0014451290480792522,
        -0.15926165878772736,
        -0.49368512630462646,
        0.8544899225234985
      ],
      "type": "VEC4"
    },
    {
      "bufferView": 6,
      "byteOffset": 7652,
      "componentType": 5126,
      "count": 114,
      "max": [
        7.0
      ],
      "min": [
        0.041669998317956924
      ],
      "type": "SCALAR"
    },
    {
      "bufferView": 8,
      "byteOffset": 27936,
      "componentType": 5126,
      "count": 114,
      "max": [
        0.015948040410876274,
        -0.02035638317465782,
        -0.022248299792408943,
        0.9985365867614746
      ],
      "min": [
        -0.036578044295310974,
        -0.22492735087871552,
        -0.4264203906059265,
        0.8889662623405457
      ],
      "type": "VEC4"
    },
    {
      "bufferView": 6,
      "byteOffset": 8108,
      "componentType": 5126,
      "count": 94,
      "max": [
        7.0
      ],
      "min": [
        0.041669998317956924
      ],
      "type": "SCALAR"
    },
    {
      "bufferView": 8,
      "byteOffset": 29760,
      "componentType": 5126,
      "count": 94,
      "max": [
        -0.04955335333943367,
        0.050435662269592285,
        -0.0023423798847943544,
        0.9930537343025208
      ],
      "min": [
        -0.12610450387001038,
        -0.0054113431833684444,
        -0.3850300908088684,
        0.9215711355209351
      ],
      "type": "VEC4"
    },
    {
      "bufferView": 6,
      "byteOffset": 8484,
      "componentType": 5126,
      "count": 101,
      "max": [
        7.0
      ],
      "min": [
        0.041669998317956924
      ],
      "type": "SCALAR"
    },
    {
      "bufferView": 8,
      "byteOffset": 31264,
      "componentType": 5126,
      "count": 101,
      "max": [
        0.13702800869941711,
        0.10130869597196579,
        0.26583904027938843,
        0.99624103307724
      ],
      "min": [
        0.04826226830482483,
        -0.2195044755935669,
        -0.46811240911483765,
        0.8723657131195068
      ],
      "type": "VEC4"
    },
    {
      "bufferView": 6,
      "byteOffset": 8888,
      "componentType": 5126,
      "count": 101,
      "max": [
        7.0
      ],
      "min": [
        0.041669998317956924
      ],
      "type": "SCALAR"
    },
    {
      "bufferView": 8,
      "byteOffset": 32880,
      "componentType": 5126,
      "count": 101,
      "max": [
        0.24564561247825623,
        0.08976233750581741,
        -0.11289872974157333,
        0.9721688628196716
      ],
      "min": [
        -0.06471139937639236,
        -0.3333958685398102,
        -0.6840701699256897,
        0.7031498551368713
      ],
      "type": "VEC4"
    },
    {
      "bufferView": 6,
      "byteOffset": 9292,
      "componentType": 5126,
      "count": 94,
      "max": [
        7.0
      ],
      "min": [
        0.041669998317956924
      ],
      "type": "SCALAR"
    },
    {
      "bufferView": 8,
      "byteOffset": 34496,
      "componentType": 5126,
      "count": 94,
      "max": [
        -0.16041362285614014,
        0.05446099117398262,
        -0.00958136934787035,
        0.9693007469177246
      ],
      "min": [
        -0.25611159205436707,
        -0.02282281219959259,
        -0.38831090927124023,
        0.9062184691429138
      ],
      "type": "VEC4"
    },
    {
      "bufferView": 6,
      "byteOffset": 9668,
      "componentType": 5126,
      "count": 94,
      "max": [
        7.0
      ],
      "min": [
        0.041669998317956924
      ],
      "type": "SCALAR"
    },
    {
      "bufferView": 8,
      "byteOffset": 36000,
      "componentType": 5126,
      "count": 94,
      "max": [
        0.1920299530029297,
        0.024644307792186737,
        0.22969283163547516,
        0.9741871356964111
      ],
      "min": [
        -0.009243938140571117,
        -0.3896656036376953,
        -0.6098788976669312,
        0.774333119392395
      ],
      "type": "VEC4"
    },
    {
      "bufferView": 6,
      "byteOffset": 10044,
      "componentType": 5126,
      "count": 101,
      "max": [
        7.0
      ],
      "min": [
        0.041669998317956924
      ],
      "type": "SCALAR"
    },
    {
      "bufferView": 8,
      "byteOffset": 37504,
      "componentType": 5126,
      "count": 101,
      "max": [
        0.0691002905368805,
        -0.05461046099662781,
        -0.07488161325454712,
        0.9588695764541626
      ],
      "min": [
        -0.35697752237319946,
        -0.3904479444026947,
        -0.6945837140083313,
        0.7032946348190308
      ],
      "type": "VEC4"
    },
    {
      "bufferView": 6,
      "byteOffset": 10448,
      "componentType": 5126,
      "count": 77,
      "max": [
        7.0
      ],
      "min": [
        0.041669998317956924
      ],
      "type": "SCALAR"
    },
    {
      "bufferView": 8,
      "byteOffset": 39120,
      "componentType": 5126,
      "count": 77,
      "max": [
        0.4238254725933075,
        -0.23734241724014282,
        -0.35214564204216003,
        0.8029799461364746
      ],
      "min": [
        0.41016778349876404,
        -0.39802804589271545,
        -0.5592910051345825,
        0.6004393696784973
      ],
      "type": "VEC4"
    },
    {
      "bufferView": 6,
      "byteOffset": 10756,
      "componentType": 5126,
      "count": 94,
      "max": [
        7.0
      ],
      "min": [
        0.041669998317956924
      ],
      "type": "SCALAR"
    },
    {
      "bufferView": 8,
      "byteOffset": 40352,
      "componentType": 5126,
      "count": 94,
      "max": [
        -0.16173627972602844,
        0.42200207710266113,
        0.2959047257900238,
        0.9459611773490906
      ],
      "min": [
        -0.3816401958465576,
        0.015843255445361137,
        0.055408548563718796,
        0.8733566403388977
      ],
      "type": "VEC4"
    },
    {
      "bufferView": 6,
      "byteOffset": 11132,
      "componentType": 5126,
      "count": 133,
      "max": [
        7.0
      ],
      "min": [
        0.041669998317956924
      ],
      "type": "SCALAR"
    },
    {
      "bufferView": 8,
      "byteOffset": 41856,
      "componentType": 5126,
      "count": 133,
      "max": [
        0.015600372105836868,
        0.032928649336099625,
        0.8864593505859375,
        0.531288743019104
      ],
      "min": [
        -0.0938403382897377,
        -0.03483876213431358,
        0.8462367653846741,
        0.45902469754219055
      ],
      "type": "VEC4"
    },
    {
      "bufferView": 6,
      "byteOffset": 11664,
      "componentType": 5126,
      "count": 149,
      "max": [
        7.0
      ],
      "min": [
        0.041669998317956924
      ],
      "type": "SCALAR"
    },
    {
      "bufferView": 8,
      "byteOffset": 43984,
      "componentType": 5126,
      "count": 149,
      "max": [
        0.1074850857257843,
        0.13669002056121826,
        0.3744666278362274,
        0.9520277976989746
      ],
      "min": [
        -0.11106554418802261,
        -0.020429439842700958,
        0.27806490659713745,
        0.9180856347084045
      ],
      "type": "VEC4"
    },
    {
      "bufferView": 6,
      "byteOffset": 12260,
      "componentType": 5126,
      "count": 138,
      "max": [
        7.0
      ],
      "min": [
        0.041669998317956924
      ],
      "type": "SCALAR"
    },
    {
      "bufferView": 8,
      "byteOffset": 46368,
      "componentType": 5126,
      "count": 138,
      "max": [
        0.44807085394859314,
        0.09327802807092667,
        0.18753878772258759,
        0.9545391201972961
      ],
      "min": [
        0.2817027270793915,
        0.030620958656072617,
        -0.05260062217712402,
        0.8805373907089233
      ],
      "type": "VEC4"
    },
    {
      "bufferView": 6,
      "byteOffset": 12812,
      "componentType": 5126,
      "count": 115,
      "max": [
        7.0
      ],
      "min": [
        0.041669998317956924
      ],
      "type": "SCALAR"
    },
    {
      "bufferView": 8,
      "byteOffset": 48576,
      "componentType": 5126,
      "count": 115,
      "max": [
        -0.04118502140045166,
        0.05540007725358009,
        0.1579619199037552,
        0.9956661462783813
      ],
      "min": [
        -0.11291807889938354,
        -0.3038996756076813,
        -0.07521242648363113,
        0.9517977237701416
      ],
      "type": "VEC4"
    },
    {
      "bufferView": 6,
      "byteOffset": 13272,
      "componentType": 5126,
      "count": 62,
      "max": [
        7.0
      ],
      "min": [
        0.041669998317956924
      ],
      "type": "SCALAR"
    },
    {
      "bufferView": 8,
      "byteOffset": 50416,
      "componentType": 5126,
      "count": 62,
      "max": [
        0.22615110874176025,
        0.02046109363436699,
        0.2559560537338257,
        0.9857820272445679
      ],
      "min": [
        0.13147620856761932,
        0.010153649374842644,
        -0.1793539673089981,
        0.9396679997444153
      ],
      "type": "VEC4"
    },
    {
      "bufferView": 6,
      "byteOffset": 13520,
      "componentType": 5126,
      "count": 123,
      "max": [
        7.0
      ],
      "min": [
        0.041669998317956924
      ],
      "type": "SCALAR"
    },
    {
      "bufferView": 8,
      "byteOffset": 51408,
      "componentType": 5126,
      "count": 123,
      "max": [
        -0.004849354270845652,
        0.23122470080852509,
        0.5766112804412842,
        0.9812575578689575
      ],
      "min": [
        -0.2402115762233734,
        0.03838230296969414,
        -0.11726178228855133,
        0.7836019396781921
      ],
      "type": "VEC4"
    },
    {
      "bufferView": 6,
      "byteOffset": 14012,
      "componentType": 5126,
      "count": 115,
      "max": [
        7.0
      ],
      "min": [
        0.041669998317956924
      ],
      "type": "SCALAR"
    },
    {
      "bufferView": 8,
      "byteOffset": 53376,
      "componentType": 5126,
      "count": 115,
      "max": [
        0.02781732566654682,
        0.30523937940597534,
        0.6848915815353394,
        0.9935429096221924
      ],
      "min": [
        -0.10275676101446152,
        -0.0443589873611927,
        0.05152978375554085,
        0.6611328125
      ],
      "type": "VEC4"
    },
    {
      "bufferView": 6,
      "byteOffset": 14472,
      "componentType": 5126,
      "count": 62,
      "max": [
        7.0
      ],
      "min": [
        0.041669998317956924
      ],
      "type": "SCALAR"
    },
    {
      "bufferView": 8,
      "byteOffset": 55216,
      "componentType": 5126,
      "count": 62,
      "max": [
        0.0528179369866848,
        0.03195957466959953,
        0.25735729932785034,
        0.9997642040252686
      ],
      "min": [
        0.0038612547796219587,
        -0.027460124343633652,
        -0.03962714225053787,
        0.9644822478294373
      ],
      "type": "VEC4"
    },
    {
      "bufferView": 6,
      "byteOffset": 14720,
      "componentType": 5126,
      "count": 109,
      "max": [
        7.0
      ],
      "min": [
        0.041669998317956924
      ],
      "type": "SCALAR"
    },
    {
      "bufferView": 8,
      "byteOffset": 56208,
      "componentType": 5126,
      "count": 109,
      "max": [
        0.16221177577972412,
        0.16705217957496643,
        0.5556169748306274,
        0.9997178912162781
      ],
      "min": [
        -0.056755129247903824,
        -0.0352654792368412,
        -0.13561531901359558,
        0.8066834211349487
      ],
      "type": "VEC4"
    },
    {
      "bufferView": 6,
      "byteOffset": 15156,
      "componentType": 5126,
      "count": 101,
      "max": [
        7.0
      ],
      "min": [
        0.041669998317956924
      ],
      "type": "SCALAR"
    },
    {
      "bufferView": 8,
      "byteOffset": 57952,
      "componentType": 5126,
      "count": 101,
      "max": [
        0.015872225165367126,
        0.2667027413845062,
        0.5789409875869751,
        0.9985365867614746
      ],
      "min": [
        -0.08505827933549881,
        0.02035638317465782,
        0.034270841628313065,
        0.7660414576530457
      ],
      "type": "VEC4"
    },
    {
      "bufferView": 6,
      "byteOffset": 15560,
      "componentType": 5126,
      "count": 62,
      "max": [
        7.0
      ],
      "min": [
        0.041669998317956924
      ],
      "type": "SCALAR"
    },
    {
      "bufferView": 8,
      "byteOffset": 59568,
      "componentType": 5126,
      "count": 62,
      "max": [
        -0.08314931392669678,
        0.0191683117300272,
        0.27886417508125305,
        0.990250825881958
      ],
      "min": [
        -0.13640134036540985,
        -0.06980469077825546,
        0.022305842489004135,
        0.9541753530502319
      ],
      "type": "VEC4"
    },
    {
      "bufferView": 6,
      "byteOffset": 15808,
      "componentType": 5126,
      "count": 80,
      "max": [
        7.0
      ],
      "min": [
        0.041669998317956924
      ],
      "type": "SCALAR"
    },
    {
      "bufferView": 8,
      "byteOffset": 60560,
      "componentType": 5126,
      "count": 80,
      "max": [
        0.23765172064304352,
        0.21153981983661652,
        0.6111627817153931,
        0.9957006573677063
      ],
      "min": [
        0.04129897058010101,
        -0.10130869597196579,
        -0.15555289387702942,
        0.7532579898834229
      ],
      "type": "VEC4"
    },
    {
      "bufferView": 6,
      "byteOffset": 16128,
      "componentType": 5126,
      "count": 72,
      "max": [
        7.0
      ],
      "min": [
        0.041669998317956924
      ],
      "type": "SCALAR"
    },
    {
      "bufferView": 8,
      "byteOffset": 61840,
      "componentType": 5126,
      "count": 72,
      "max": [
        0.002894575474783778,
        0.3110826313495636,
        0.7781128287315369,
        0.8790550231933594
      ],
      "min": [
        -0.13083051145076752,
        0.02672451362013817,
        0.4755803346633911,
        0.5457051396369934
      ],
      "type": "VEC4"
    },
    {
      "bufferView": 6,
      "byteOffset": 16416,
      "componentType": 5126,
      "count": 62,
      "max": [
        7.0
      ],
      "min": [
        0.041669998317956924
      ],
      "type": "SCALAR"
    },
    {
      "bufferView": 8,
      "byteOffset": 62992,
      "componentType": 5126,
      "count": 62,
      "max": [
        -0.1984870880842209,
        0.022816738113760948,
        0.2745012044906616,
        0.966364860534668
      ],
      "min": [
        -0.2560487985610962,
        -0.10552864521741867,
        0.031091030687093735,
        0.9349429607391357
      ],
      "type": "VEC4"
    },
    {
      "bufferView": 6,
      "byteOffset": 16664,
      "componentType": 5126,
      "count": 80,
      "max": [
        7.0
      ],
      "min": [
        0.041669998317956924
      ],
      "type": "SCALAR"
    },
    {
      "bufferView": 8,
      "byteOffset": 63984,
      "componentType": 5126,
      "count": 80,
      "max": [
        0.2747754156589508,
        0.2173582762479782,
        0.7213855385780334,
        0.9739750623703003
      ],
      "min": [
        -0.009243938140571117,
        -0.1457451432943344,
        0.042025528848171234,
        0.6268934011459351
      ],
      "type": "VEC4"
    },
    {
      "bufferView": 6,
      "byteOffset": 16984,
      "componentType": 5126,
      "count": 72,
      "max": [
        7.0
      ],
      "min": [
        0.041669998317956924
      ],
      "type": "SCALAR"
    },
    {
      "bufferView": 8,
      "byteOffset": 65264,
      "componentType": 5126,
      "count": 72,
      "max": [
        0.02315070666372776,
        0.24117249250411987,
        0.8048108816146851,
        0.8950531482696533
      ],
      "min": [
        -0.35697752237319946,
        0.11252716183662415,
        0.20101378858089447,
        0.5418310165405273
      ],
      "type": "VEC4"
    },
    {
      "bufferView": 6,
      "byteOffset": 17272,
      "componentType": 5126,
      "count": 72,
      "max": [
        7.0
      ],
      "min": [
        0.041669998317956924
      ],
      "type": "SCALAR"
    },
    {
      "bufferView": 8,
      "byteOffset": 66416,
      "componentType": 5126,
      "count": 72,
      "max": [
        0.4238254725933075,
        0.3555563688278198,
        0.5695955157279968,
        0.803031861782074
      ],
      "min": [
        0.3905450701713562,
        0.23731017112731934,
        0.35214564204216003,
        0.6559509634971619
      ],
      "type": "VEC4"
    },
    {
      "bufferView": 6,
      "byteOffset": 17560,
      "componentType": 5126,
      "count": 80,
      "max": [
        7.0
      ],
      "min": [
        0.041669998317956924
      ],
      "type": "SCALAR"
    },
    {
      "bufferView": 8,
      "byteOffset": 67568,
      "componentType": 5126,
      "count": 80,
      "max": [
        -0.31628870964050293,
        -0.06323429197072983,
        -0.07211848348379135,
        0.9393140077590942
      ],
      "min": [
        -0.47308802604675293,
        -0.1823047548532486,
        -0.47125017642974854,
        0.7416962385177612
      ],
      "type": "VEC4"
    },
    {
      "bufferView": 6,
      "byteOffset": 17880,
      "componentType": 5126,
      "count": 167,
      "max": [
        7.0
      ],
      "min": [
        0.041669998317956924
      ],
      "type": "SCALAR"
    },
    {
      "bufferView": 8,
      "byteOffset": 68848,
      "componentType": 5126,
      "count": 167,
      "max": [
        0.07335735112428665,
        0.34695878624916077,
        0.9814549684524536,
        -0.10840284824371338
      ],
      "min": [
        -0.05369970202445984,
        0.1115301176905632,
        0.9133275151252747,
        -0.23581789433956146
      ],
      "type": "VEC4"
    },
    {
      "bufferView": 6,
      "byteOffset": 18548,
      "componentType": 5126,
      "count": 166,
      "max": [
        7.0
      ],
      "min": [
        0.041669998317956924
      ],
      "type": "SCALAR"
    },
    {
      "bufferView": 8,
      "byteOffset": 71520,
      "componentType": 5126,
      "count": 166,
      "max": [
        -0.20866553485393524,
        0.001219734433107078,
        -0.0763772651553154,
        0.9749975204467773
      ],
      "min": [
        -0.5644322037696838,
        0.0010009685065597296,
        -0.20658335089683533,
        0.7992120385169983
      ],
      "type": "VEC4"
    },
    {
      "bufferView": 6,
      "byteOffset": 19212,
      "componentType": 5126,
      "count": 156,
      "max": [
        7.0
      ],
      "min": [
        0.041669998317956924
      ],
      "type": "SCALAR"
    },
    {
      "bufferView": 8,
      "byteOffset": 74176,
      "componentType": 5126,
      "count": 156,
      "max": [
        0.6645621061325073,
        -0.12396556884050369,
        0.08055256307125092,
        0.8439855575561523
      ],
      "min": [
        0.5181127786636353,
        -0.2344927340745926,
        -0.001874821842648089,
        0.7061634659767151
      ],
      "type": "VEC4"
    },
    {
      "bufferView": 6,
      "byteOffset": 19836,
      "componentType": 5126,
      "count": 68,
      "max": [
        7.0
      ],
      "min": [
        0.041669998317956924
      ],
      "type": "SCALAR"
    },
    {
      "bufferView": 8,
      "byteOffset": 76672,
      "componentType": 5126,
      "count": 68,
      "max": [
        0.18340344727039337,
        0.6927962303161621,
        0.19841241836547852,
        0.700046956539154
      ],
      "min": [
        0.12580205500125885,
        0.6609716415405273,
        0.1483805924654007,
        0.6944347023963928
      ],
      "type": "VEC4"
    },
    {
      "bufferView": 6,
      "byteOffset": 20108,
      "componentType": 5126,
      "count": 167,
      "max": [
        7.0
      ],
      "min": [
        0.041669998317956924
      ],
      "type": "SCALAR"
    },
    {
      "bufferView": 8,
      "byteOffset": 77760,
      "componentType": 5126,
      "count": 167,
      "max": [
        0.05097729712724686,
        0.36550477147102356,
        0.9702600836753845,
        0.24508321285247803
      ],
      "min": [
        -0.0885084867477417,
        0.1844378113746643,
        0.9120271801948547,
        0.05040102079510689
      ],
      "type": "VEC4"
    },
    {
      "bufferView": 6,
      "byteOffset": 20776,
      "componentType": 5126,
      "count": 166,
      "max": [
        7.0
      ],
      "min": [
        0.041669998317956924
      ],
      "type": "SCALAR"
    },
    {
      "bufferView": 8,
      "byteOffset": 80432,
      "componentType": 5126,
      "count": 166,
      "max": [
        -0.30907753109931946,
        -0.0010205161524936557,
        0.1992230862379074,
        0.9442808628082275
      ],
      "min": [
        -0.5443230271339417,
        -0.0011818776838481426,
        0.11312149465084076,
        0.8148691654205322
      ],
      "type": "VEC4"
    },
    {
      "bufferView": 6,
      "byteOffset": 21440,
      "componentType": 5126,
      "count": 156,
      "max": [
        7.0
      ],
      "min": [
        0.041669998317956924
      ],
      "type": "SCALAR"
    },
    {
      "bufferView": 8,
      "byteOffset": 83088,
      "componentType": 5126,
      "count": 156,
      "max": [
        0.6703327894210815,
        0.2353721410036087,
        -0.053775180131196976,
        0.8243921995162964
      ],
      "min": [
        0.5425137281417847,
        0.11239929497241974,
        -0.08948995172977448,
        0.6998282670974731
      ],
      "type": "VEC4"
    },
    {
      "bufferView": 6,
      "byteOffset": 22064,
      "componentType": 5126,
      "count": 68,
      "max": [
        7.0
      ],
      "min": [
        0.041669998317956924
      ],
      "type": "SCALAR"
    },
    {
      "bufferView": 8,
      "byteOffset": 85584,
      "componentType": 5126,
      "count": 68,
      "max": [
        0.18340344727039337,
        -0.6609716415405273,
        -0.1483805924654007,
        0.700046956539154
      ],
      "min": [
        0.12580205500125885,
        -0.6927962303161621,
        -0.19841241836547852,
        0.6944347023963928
      ],
      "type": "VEC4"
    },
    {
      "bufferView": 6,
      "byteOffset": 22336,
      "componentType": 5126,
      "count": 135,
      "max": [
        7.0
      ],
      "min": [
        0.041669998317956924
      ],
      "type": "SCALAR"
    },
    {
      "bufferView": 7,
      "byteOffset": 2004,
      "componentType": 5126,
      "count": 135,
      "max": [
        0.25808998942375183,
        0.18170998990535736,
        -0.6617000102996826
      ],
      "min": [
        0.2334900051355362,
        0.0864500030875206,
        -0.6877400279045105
      ],
      "type": "VEC3"
    },
    {
      "bufferView": 6,
      "byteOffset": 22876,
      "componentType": 5126,
      "count": 1,
      "max": [
        0.041669998317956924
      ],
      "min": [
        0.041669998317956924
      ],
      "type": "SCALAR"
    },
    {
      "bufferView": 8,
      "byteOffset": 86672,
      "componentType": 5126,
      "count": 1,
      "max": [
        0.0,
        0.0,
        0.0,
        1.0
      ],
      "min": [
        0.0,
        0.0,
        0.0,
        1.0
      ],
      "type": "VEC4"
    },
    {
      "bufferView": 6,
      "byteOffset": 22880,
      "componentType": 5126,
      "count": 125,
      "max": [
        7.0
      ],
      "min": [
        0.041669998317956924
      ],
      "type": "SCALAR"
    },
    {
      "bufferView": 7,
      "byteOffset": 3624,
      "componentType": 5126,
      "count": 125,
      "max": [
        0.30452999472618103,
        -0.6112200021743774,
        -0.28960999846458435
      ],
      "min": [
        0.15169000625610352,
        -0.6492000222206116,
        -0.3153800070285797
      ],
      "type": "VEC3"
    },
    {
      "bufferView": 6,
      "byteOffset": 23380,
      "componentType": 5126,
      "count": 1,
      "max": [
        0.041669998317956924
      ],
      "min": [
        0.041669998317956924
      ],
      "type": "SCALAR"
    },
    {
      "bufferView": 8,
      "byteOffset": 86688,
      "componentType": 5126,
      "count": 1,
      "max": [
        0.0,
        0.0,
        1.0,
        0.0
      ],
      "min": [
        0.0,
        0.0,
        1.0,
        0.0
      ],
      "type": "VEC4"
    },
    {
      "bufferView": 6,
      "byteOffset": 23384,
      "componentType": 5126,
      "count": 115,
      "max": [
        7.0
      ],
      "min": [
        0.041669998317956924
      ],
      "type": "SCALAR"
    },
    {
      "bufferView": 7,
      "byteOffset": 5124,
      "componentType": 5126,
      "count": 115,
      "max": [
        -0.22811999917030334,
        0.10660000145435333,
        -0.6617000102996826
      ],
      "min": [
        -0.25808998942375183,
        0.04579000174999237,
        -0.6945099830627441
      ],
      "type": "VEC3"
    },
    {
      "bufferView": 6,
      "byteOffset": 23844,
      "componentType": 5126,
      "count": 1,
      "max": [
        0.041669998317956924
      ],
      "min": [
        0.041669998317956924
      ],
      "type": "SCALAR"
    },
    {
      "bufferView": 8,
      "byteOffset": 86704,
      "componentType": 5126,
      "count": 1,
      "max": [
        0.0,
        0.0,
        0.0,
        1.0
      ],
      "min": [
        0.0,
        0.0,
        0.0,
        1.0
      ],
      "type": "VEC4"
    },
    {
      "bufferView": 6,
      "byteOffset": 23848,
      "componentType": 5126,
      "count": 125,
      "max": [
        7.0
      ],
      "min": [
        0.041669998317956924
      ],
      "type": "SCALAR"
    },
    {
      "bufferView": 7,
      "byteOffset": 6504,
      "componentType": 5126,
      "count": 125,
      "max": [
        -0.15169000625610352,
        -0.6112200021743774,
        -0.28960999846458435
      ],
      "min": [
        -0.30452999472618103,
        -0.6492000222206116,
        -0.3153800070285797
      ],
      "type": "VEC3"
    },
    {
      "bufferView": 6,
      "byteOffset": 24348,
      "componentType": 5126,
      "count": 1,
      "max": [
        0.041669998317956924
      ],
      "min": [
        0.041669998317956924
      ],
      "type": "SCALAR"
    },
    {
      "bufferView": 8,
      "byteOffset": 86720,
      "componentType": 5126,
      "count": 1,
      "max": [
        0.0,
        0.0,
        1.0,
        0.0
      ],
      "min": [
        0.0,
        0.0,
        1.0,
        0.0
      ],
      "type": "VEC4"
    },
    {
      "bufferView": 6,
      "byteOffset": 24352,
      "componentType": 5126,
      "count": 1,
      "max": [
        0.041669998317956924
      ],
      "min": [
        0.041669998317956924
      ],
      "type": "SCALAR"
    },
    {
      "bufferView": 8,
      "byteOffset": 86736,
      "componentType": 5126,
      "count": 1,
      "max": [
        0.0,
        0.0,
        0.0,
        1.0
      ],
      "min": [
        0.0,
        0.0,
        0.0,
        1.0
      ],
      "type": "VEC4"
    },
    {
      "bufferView": 6,
      "byteOffset": 24356,
      "componentType": 5126,
      "count": 1,
      "max": [
        0.041669998317956924
      ],
      "min": [
        0.041669998317956924
      ],
      "type": "SCALAR"
    },
    {
      "bufferView": 8,
      "byteOffset": 86752,
      "componentType": 5126,
      "count": 1,
      "max": [
        0.7071099877357483,
        0.0,
        0.0,
        0.7071099877357483
      ],
      "min": [
        0.7071099877357483,
        0.0,
        0.0,
        0.7071099877357483
      ],
      "type": "VEC4"
    }
  ],
  "animations": [
    {
      "channels": [
        {
          "sampler": 0,
          "target": {
            "node": 4,
            "path": "translation"
          }
        },
        {
          "sampler": 1,
          "target": {
            "node": 4,
            "path": "rotation"
          }
        },
        {
          "sampler": 2,
          "target": {
            "node": 5,
            "path": "rotation"
          }
        },
        {
          "sampler": 3,
          "target": {
            "node": 6,
            "path": "rotation"
          }
        },
        {
          "sampler": 4,
          "target": {
            "node": 7,
            "path": "rotation"
          }
        },
        {
          "sampler": 5,
          "target": {
            "node": 8,
            "path": "rotation"
          }
        },
        {
          "sampler": 6,
          "target": {
            "node": 9,
            "path": "rotation"
          }
        },
        {
          "sampler": 7,
          "target": {
            "node": 10,
            "path": "rotation"
          }
        },
        {
          "sampler": 8,
          "target": {
            "node": 11,
            "path": "rotation"
          }
        },
        {
          "sampler": 9,
          "target": {
            "node": 12,
            "path": "rotation"
          }
        },
        {
          "sampler": 10,
          "target": {
            "node": 13,
            "path": "rotation"
          }
        },
        {
          "sampler": 11,
          "target": {
            "node": 14,
            "path": "rotation"
          }
        },
        {
          "sampler": 12,
          "target": {
            "node": 15,
            "path": "rotation"
          }
        },
        {
          "sampler": 13,
          "target": {
            "node": 16,
            "path": "rotation"
          }
        },
        {
          "sampler": 14,
          "target": {
            "node": 17,
            "path": "rotation"
          }
        },
        {
          "sampler": 15,
          "target": {
            "node": 18,
            "path": "rotation"
          }
        },
        {
          "sampler": 16,
          "target": {
            "node": 19,
            "path": "rotation"
          }
        },
        {
          "sampler": 17,
          "target": {
            "node": 20,
            "path": "rotation"
          }
        },
        {
          "sampler": 18,
          "target": {
            "node": 21,
            "path": "rotation"
          }
        },
        {
          "sampler": 19,
          "target": {
            "node": 22,
            "path": "rotation"
          }
        },
        {
          "sampler": 20,
          "target": {
            "node": 23,
            "path": "rotation"
          }
        },
        {
          "sampler": 21,
          "target": {
            "node": 24,
            "path": "rotation"
          }
        },
        {
          "sampler": 22,
          "target": {
            "node": 25,
            "path": "rotation"
          }
        },
        {
          "sampler": 23,
          "target": {
            "node": 26,
            "path": "rotation"
          }
        },
        {
          "sampler": 24,
          "target": {
            "node": 27,
            "path": "rotation"
          }
        },
        {
          "sampler": 25,
          "target": {
            "node": 28,
            "path": "rotation"
          }
        },
        {
          "sampler": 26,
          "target": {
            "node": 29,
            "path": "rotation"
          }
        },
        {
          "sampler": 27,
          "target": {
            "node": 30,
            "path": "rotation"
          }
        },
        {
          "sampler": 28,
          "target": {
            "node": 31,
            "path": "rotation"
          }
        },
        {
          "sampler": 29,
          "target": {
            "node": 32,
            "path": "rotation"
          }
        },
        {
          "sampler": 30,
          "target": {
            "node": 33,
            "path": "rotation"
          }
        },
        {
          "sampler": 31,
          "target": {
            "node": 34,
            "path": "rotation"
          }
        },
        {
          "sampler": 32,
          "target": {
            "node": 35,
            "path": "rotation"
          }
        },
        {
          "sampler": 33,
          "target": {
            "node": 36,
            "path": "rotation"
          }
        },
        {
          "sampler": 34,
          "target": {
            "node": 37,
            "path": "rotation"
          }
        },
        {
          "sampler": 35,
          "target": {
            "node": 38,
            "path": "rotation"
          }
        },
        {
          "sampler": 36,
          "target": {
            "node": 39,
            "path": "rotation"
          }
        },
        {
          "sampler": 37,
          "target": {
            "node": 40,
            "path": "rotation"
          }
        },
        {
          "sampler": 38,
          "target": {
            "node": 41,
            "path": "rotation"
          }
        },
        {
          "sampler": 39,
          "target": {
            "node": 42,
            "path": "rotation"
          }
        },
        {
          "sampler": 40,
          "target": {
            "node": 43,
            "path": "rotation"
          }
        },
        {
          "sampler": 41,
          "target": {
            "node": 44,
            "path": "rotation"
          }
        },
        {
          "sampler": 42,
          "target": {
            "node": 45,
            "path": "rotation"
          }
        },
        {
          "sampler": 43,
          "target": {
            "node": 46,
            "path": "rotation"
          }
        },
        {
          "sampler": 44,
          "target": {
            "node": 47,
            "path": "rotation"
          }
        },
        {
          "sampler": 45,
          "target": {
            "node": 48,
            "path": "rotation"
          }
        },
        {
          "sampler": 46,
          "target": {
            "node": 49,
            "path": "rotation"
          }
        },
        {
          "sampler": 47,
          "target": {
            "node": 50,
            "path": "rotation"
          }
        },
        {
          "sampler": 48,
          "target": {
            "node": 51,
            "path": "rotation"
          }
        },
        {
          "sampler": 49,
          "target": {
            "node": 52,
            "path": "rotation"
          }
        },
        {
          "sampler": 50,
          "target": {
            "node": 53,
            "path": "translation"
          }
        },
        {
          "sampler": 51,
          "target": {
            "node": 53,
            "path": "rotation"
          }
        },
        {
          "sampler": 52,
          "target": {
            "node": 54,
            "path": "translation"
          }
        },
        {
          "sampler": 53,
          "target": {
            "node": 54,
            "path": "rotation"
          }
        },
        {
          "sampler": 54,
          "target": {
            "node": 55,
            "path": "translation"
          }
        },
        {
          "sampler": 55,
          "target": {
            "node": 55,
            "path": "rotation"
          }
        },
        {
          "sampler": 56,
          "target": {
            "node": 56,
            "path": "translation"
          }
        },
        {
          "sampler": 57,
          "target": {
            "node": 56,
            "path": "rotation"
          }
        },
        {
          "sampler": 58,
          "target": {
            "node": 2,
            "path": "rotation"
          }
        },
        {
          "sampler": 59,
          "target": {
            "node": 57,
            "path": "rotation"
          }
        }
      ],
      "name": "Take 01",
      "samplers": [
        {
          "input": 8,
          "interpolation": "LINEAR",
          "output": 9
        },
        {
          "input": 10,
          "interpolation": "LINEAR",
          "output": 11
        },
        {
          "input": 12,
          "interpolation": "LINEAR",
          "output": 13
        },
        {
          "input": 14,
          "interpolation": "LINEAR",
          "output": 15
        },
        {
          "input": 16,
          "interpolation": "LINEAR",
          "output": 17
        },
        {
          "input": 18,
          "interpolation": "LINEAR",
          "output": 19
        },
        {
          "input": 20,
          "interpolation": "LINEAR",
          "output": 21
        },
        {
          "input": 22,
          "interpolation": "LINEAR",
          "output": 23
        },
        {
          "input": 24,
          "interpolation": "LINEAR",
          "output": 25
        },
        {
          "input": 26,
          "interpolation": "LINEAR",
          "output": 27
        },
        {
          "input": 28,
          "interpolation": "LINEAR",
          "output": 29
        },
        {
          "input": 30,
          "interpolation": "LINEAR",
          "output": 31
        },
        {
          "input": 32,
          "interpolation": "LINEAR",
          "output": 33
        },
        {
          "input": 34,
          "interpolation": "LINEAR",
          "output": 35
        },
        {
          "input": 36,
          "interpolation": "LINEAR",
          "output": 37
        },
        {
          "input": 38,
          "interpolation": "LINEAR",
          "output": 39
        },
        {
          "input": 40,
          "interpolation": "LINEAR",
          "output": 41
        },
        {
          "input": 42,
          "interpolation": "LINEAR",
          "output": 43
        },
        {
          "input": 44,
          "interpolation": "LINEAR",
          "output": 45
        },
        {
          "input": 46,
          "interpolation": "LINEAR",
          "output": 47
        },
        {
          "input": 48,
          "interpolation": "LINEAR",
          "output": 49
        },
        {
          "input": 50,
          "interpolation": "LINEAR",
          "output": 51
        },
        {
          "input": 52,
          "interpolation": "LINEAR",
          "output": 53
        },
        {
          "input": 54,
          "interpolation": "LINEAR",
          "output": 55
        },
        {
          "input": 56,
          "interpolation": "LINEAR",
          "output": 57
        },
        {
          "input": 58,
          "interpolation": "LINEAR",
          "output": 59
        },
        {
          "input": 60,
          "interpolation": "LINEAR",
          "output": 61
        },
        {
          "input": 62,
          "interpolation": "LINEAR",
          "output": 63
        },
        {
          "input": 64,
          "interpolation": "LINEAR",
          "output": 65
        },
        {
          "input": 66,
          "interpolation": "LINEAR",
          "output": 67
        },
        {
          "input": 68,
          "interpolation": "LINEAR",
          "output": 69
        },
        {
          "input": 70,
          "interpolation": "LINEAR",
          "output": 71
        },
        {
          "input": 72,
          "interpolation": "LINEAR",
          "output": 73
        },
        {
          "input": 74,
          "interpolation": "LINEAR",
          "output": 75
        },
        {
          "input": 76,
          "interpolation": "LINEAR",
          "output": 77
        },
        {
          "input": 78,
          "interpolation": "LINEAR",
          "output": 79
        },
        {
          "input": 80,
          "interpolation": "LINEAR",
          "output": 81
        },
        {
          "input": 82,
          "interpolation": "LINEAR",
          "output": 83
        },
        {
          "input": 84,
          "interpolation": "LINEAR",
          "output": 85
        },
        {
          "input": 86,
          "interpolation": "LINEAR",
          "output": 87
        },
        {
          "input": 88,
          "interpolation": "LINEAR",
          "output": 89
        },
        {
          "input": 90,
          "interpolation": "LINEAR",
          "output": 91
        },
        {
          "input": 92,
          "interpolation": "LINEAR",
          "output": 93
        },
        {
          "input": 94,
          "interpolation": "LINEAR",
          "output": 95
        },
        {
          "input": 96,
          "interpolation": "LINEAR",
          "output": 97
        },
        {
          "input": 98,
          "interpolation": "LINEAR",
          "output": 99
        },
        {
          "input": 100,
          "interpolation": "LINEAR",
          "output": 101
        },
        {
          "input": 102,
          "interpolation": "LINEAR",
          "output": 103
        },
        {
          "input": 104,
          "interpolation": "LINEAR",
          "output": 105
        },
        {
          "input": 106,
          "interpolation": "LINEAR",
          "output": 107
        },
        {
          "input": 108,
          "interpolation": "LINEAR",
          "output": 109
        },
        {
          "input": 110,
          "interpolation": "LINEAR",
          "output": 111
        },
        {
          "input": 112,
          "interpolation": "LINEAR",
          "output": 113
        },
        {
          "input": 114,
          "interpolation": "LINEAR",
          "output": 115
        },
        {
          "input": 116,
          "interpolation": "LINEAR",
          "output": 117
        },
        {
          "input": 118,
          "interpolation": "LINEAR",
          "output": 119
        },
        {
          "input": 120,
          "interpolation": "LINEAR",
          "output": 121
        },
        {
          "input": 122,
          "interpolation": "LINEAR",
          "output": 123
        },
        {
          "input": 124,
          "interpolation": "LINEAR",
          "output": 125
        },
        {
          "input": 126,
          "interpolation": "LINEAR",
          "output": 127
        }
      ]
    }
  ],
  "asset": {
    "extras": {
      "author": "giantSwing (https://sketchfab.com/giantSwing)",
      "license": "CC-BY-4.0 (http://creativecommons.org/licenses/by/4.0/)",
      "source": "https://sketchfab.com/3d-models/possessed-undead-7394bdf26d664810b42b83153411cf74",
      "title": "Possessed undead"
    },
    "generator": "Sketchfab-15.24.0",
    "version": "2.0"
  },
  "bufferViews": [
    {
      "buffer": 0,
      "byteLength": 36776,
      "byteStride": 8,
      "name": "shortBufferViews",
      "target": 34962
    },
    {
      "buffer": 0,
      "byteLength": 92100,
      "byteOffset": 36776,
      "name": "floatBufferViews",
      "target": 34963
    },
    {
      "buffer": 0,
      "byteLength": 36776,
      "byteOffset": 128876,
      "byteStride": 8,
      "name": "floatBufferViews",
      "target": 34962
    },
    {
      "buffer": 0,
      "byteLength": 110328,
      "byteOffset": 165652,
      "byteStride": 12,
      "name": "floatBufferViews",
      "target": 34962
    },
    {
      "buffer": 0,
      "byteLength": 147104,
      "byteOffset": 275980,
      "byteStride": 16,
      "name": "floatBufferViews",
      "target": 34962
    },
    {
      "buffer": 0,
      "byteLength": 3456,
      "byteOffset": 423084,
      "name": "floatBufferViews"
    },
    {
      "buffer": 0,
      "byteLength": 24360,
      "byteOffset": 426540,
      "name": "floatBufferViews"
    },
    {
      "buffer": 0,
      "byteLength": 8004,
      "byteOffset": 450900,
      "byteStride": 12,
      "name": "floatBufferViews"
    },
    {
      "buffer": 0,
      "byteLength": 86768,
      "byteOffset": 458904,
      "byteStride": 16,
      "name": "floatBufferViews"
    }
  ],
  "buffers": [
    {
      "byteLength": 545672,
      "uri": "scene.bin"
    }
  ],
  "images": [
    {
      "uri": "textures/Material.001_baseColor.jpeg"
    },
    {
      "uri": "textures/Material.001_metallicRoughness.png"
    },
    {
      "uri": "textures/Material.001_normal.png"
    }
  ],
  "materials": [
    {
      "doubleSided": true,
      "name": "Material.001",
      "normalTexture": {
        "index": 2
      },
      "pbrMetallicRoughness": {
        "baseColorTexture": {
          "index": 0
        },
        "metallicRoughnessTexture": {
          "index": 1
        }
      }
    }
  ],
  "meshes": [
    {
      "name": "zombieLowPoly",
      "primitives": [
        {
          "attributes": {
            "JOINTS_0": 6,
            "NORMAL": 1,
            "POSITION": 0,
            "TANGENT": 2,
            "TEXCOORD_0": 3,
            "WEIGHTS_0": 7
          },
          "indices": 4,
          "material": 0,
          "mode": 4
        }
      ]
    }
  ],
  "nodes": [
    {
      "children": [
        1
      ],
      "matrix": [
        1.2652544975280762,
        0.0,
        0.0,
        0.0,
        0.0,
        2.8094293503324068e-16,
        -1.2652544975280762,
        0.0,
        0.0,
        1.2652544975280762,
        2.8094293503324068e-16,
        0.0,
        0.0,
        0.0,
        0.0,
        1.0
      ],
      "name": "Sketchfab_model"
    },
    {
      "children": [
        2
      ],
      "name": "Root"
    },
    {
      "children": [
        3,
        58,
        57
      ],
      "name": "Armature",
      "scale": [
        1.2115800380706787,
        1.0,
        1.3003499507904053
      ]
    },
    {
      "children": [
        4,
        53,
        54,
        55,
        56
      ],
      "name": "Armature_rootJoint"
    },
    {
      "children": [
        5,
        45,
        49
      ],
      "name": "Spine1_Armature",
      "rotation": [
        0.7200381755828857,
        0.0,
        0.0,
        0.693934440612793
      ],
      "scale": [
        1.0,
        1.0000014305114746,
        1.0000014305114746
      ],
      "translation": [
        0.0,
        0.017500000074505806,
        0.02160000056028366
      ]
    },
    {
      "children": [
        6
      ],
      "name": "Spine2_Armature",
      "rotation": [
        0.01524170022457838,
        0.0,
        0.0,
        0.9998838305473328
      ],
      "scale": [
        1.0,
        1.0000046491622925,
        1.0000046491622925
      ],
      "translation": [
        0.0,
        0.21092000603675842,
        0.0
      ]
    },
    {
      "children": [
        7,
        9,
        27
      ],
      "name": "Spine3_Armature",
      "rotation": [
        -0.025473322719335556,
        0.0,
        0.0,
        0.9996755123138428
      ],
      "scale": [
        1.0,
        0.9999977946281433,
        0.9999977946281433
      ],
      "translation": [
        0.0,
        0.30333998799324036,
        0.0
      ]
    },
    {
      "children": [
        8
      ],
      "name": "Neck_Armature",
      "rotation": [
        0.11629906296730042,
        0.0,
        0.0,
        0.9932142496109009
      ],
      "scale": [
        1.0,
        1.0000009536743164,
        1.0000009536743164
      ],
      "translation": [
        0.0,
        0.3062100112438202,
        0.0
      ]
    },
    {
      "name": "Head_Armature",
      "rotation": [
        -0.0884060487151146,
        0.0,
        0.0,
        0.9960846304893494
      ],
      "scale": [
        1.0,
        1.000001311302185,
        1.000001311302185
      ],
      "translation": [
        0.0,
        0.09567999839782715,
        0.0
      ]
    },
    {
      "children": [
        10
      ],
      "name": "Shoulder.L_Armature",
      "rotation": [
        0.0006989989196881652,
        -0.014672273769974709,
        -0.8283884525299072,
        0.5599614977836609
      ],
      "scale": [
        0.999993085861206,
        0.9999997019767761,
        1.000006079673767
      ],
      "translation": [
        0.1424199938774109,
        0.26673999428749084,
        -0.03756000101566315
      ]
    },
    {
      "children": [
        11
      ],
      "name": "Arm1.L_Armature",
      "rotation": [
        -0.07910338789224625,
        0.010089797899127007,
        -0.16434475779533386,
        0.9831742644309998
      ],
      "scale": [
        1.0000066757202148,
        0.9999991655349731,
        0.9999978542327881
      ],
      "translation": [
        0.0,
        0.12434999644756317,
        0.0
      ]
    },
    {
      "children": [
        12
      ],
      "name": "Arm2.L_Armature",
      "rotation": [
        0.14288893342018127,
        0.0002487453748472035,
        0.09993103891611099,
        0.9846810102462769
      ],
      "scale": [
        1.0000015497207642,
        0.9999966025352478,
        1.000005841255188
      ],
      "translation": [
        0.0,
        0.33768999576568604,
        0.0
      ]
    },
    {
      "children": [
        13,
        16,
        19,
        22,
        25
      ],
      "name": "Wrist.L_Armature",
      "rotation": [
        -0.10181743651628494,
        0.002827931195497513,
        0.06364865601062775,
        0.9927608370780945
      ],
      "scale": [
        0.9999945163726807,
        0.9999960660934448,
        1.0000029802322388
      ],
      "translation": [
        0.0,
        0.31692999601364136,
        0.0
      ]
    },
    {
      "children": [
        14
      ],
      "name": "Index1.L_Armature",
      "rotation": [
        0.1941305547952652,
        -0.016728006303310394,
        -0.1195538267493248,
        0.9735196828842163
      ],
      "scale": [
        0.999995231628418,
        0.999999463558197,
        1.0000035762786865
      ],
      "translation": [
        0.0,
        0.05542999878525734,
        0.0
      ]
    },
    {
      "children": [
        15
      ],
      "name": "Index2.L_Armature",
      "rotation": [
        -0.1676720529794693,
        0.006761255674064159,
        0.04004811868071556,
        0.9850058555603027
      ],
      "scale": [
        0.9999992251396179,
        0.9999926090240479,
        1.0000017881393433
      ],
      "translation": [
        0.0,
        0.06641999632120132,
        0.0
      ]
    },
    {
      "name": "Index3.L_Armature",
      "rotation": [
        0.03666630759835243,
        -0.002762703923508525,
        -0.07791485637426376,
        0.9962818026542664
      ],
      "scale": [
        0.999995231628418,
        1.000001311302185,
        1.000004529953003
      ],
      "translation": [
        0.0,
        0.04487000033259392,
        0.0
      ]
    },
    {
      "children": [
        17
      ],
      "name": "Middle1.L_Armature",
      "rotation": [
        0.015252684243023396,
        0.005215111654251814,
        -0.12281078845262527,
        0.9922991991043091
      ],
      "scale": [
        0.9999955296516418,
        1.0000005960464478,
        1.0000032186508179
      ],
      "translation": [
        0.0,
        0.05542999878525734,
        0.0
      ]
    },
    {
      "children": [
        18
      ],
      "name": "Middle2.L_Armature",
      "rotation": [
        0.029162652790546417,
        3.997564999735914e-05,
        0.01911153458058834,
        0.9993919730186462
      ],
      "scale": [
        0.9999948740005493,
        1.0000025033950806,
        1.0000054836273193
      ],
      "translation": [
        0.0,
        0.06327000260353088,
        0.0
      ]
    },
    {
      "name": "Middle3.L_Armature",
      "rotation": [
        0.03082587756216526,
        0.0005527998437173665,
        0.008867057971656322,
        0.9994853138923645
      ],
      "scale": [
        0.9999964833259583,
        0.9999983906745911,
        1.0000017881393433
      ],
      "translation": [
        0.0,
        0.04546999931335449,
        0.0
      ]
    },
    {
      "children": [
        20
      ],
      "name": "Ring1.L_Armature",
      "rotation": [
        -0.12425881624221802,
        0.02786928601562977,
        -0.1498592048883438,
        0.9804719686508179
      ],
      "scale": [
        0.9999977350234985,
        0.9999954700469971,
        1.0000056028366089
      ],
      "translation": [
        0.0,
        0.05542999878525734,
        0.0
      ]
    },
    {
      "children": [
        21
      ],
      "name": "Ring2.L_Armature",
      "rotation": [
        0.13004803657531738,
        -0.020036371424794197,
        0.11094531416893005,
        0.9850772619247437
      ],
      "scale": [
        1.0000009536743164,
        1.000003457069397,
        0.9999969601631165
      ],
      "translation": [
        0.0,
        0.06744000315666199,
        0.0
      ]
    },
    {
      "name": "Ring3.L_Armature",
      "rotation": [
        0.039680395275354385,
        0.0006353771896101534,
        -0.08362432569265366,
        0.9957067966461182
      ],
      "scale": [
        0.9999964237213135,
        0.9999929666519165,
        1.000002384185791
      ],
      "translation": [
        0.0,
        0.04498999938368797,
        0.0
      ]
    },
    {
      "children": [
        23
      ],
      "name": "Pinky1.L_Armature",
      "rotation": [
        -0.2426094114780426,
        0.04799339920282364,
        -0.1518605798482895,
        0.9569618105888367
      ],
      "scale": [
        0.9999980330467224,
        1.0000041723251343,
        0.9999947547912598
      ],
      "translation": [
        0.0,
        0.05542999878525734,
        0.0
      ]
    },
    {
      "children": [
        24
      ],
      "name": "Pinky2.L_Armature",
      "rotation": [
        0.20056785643100739,
        -0.009322977624833584,
        0.025354599580168724,
        0.9793072938919067
      ],
      "scale": [
        0.9999997019767761,
        0.999997079372406,
        1.000002145767212
      ],
      "translation": [
        0.0,
        0.07478000223636627,
        0.0
      ]
    },
    {
      "name": "Pinky3.L_Armature",
      "rotation": [
        0.035829633474349976,
        -0.00516100786626339,
        0.04488467052578926,
        0.9983361959457397
      ],
      "scale": [
        1.000001311302185,
        0.9999948740005493,
        1.0000039339065552
      ],
      "translation": [
        0.0,
        0.03954000025987625,
        0.0
      ]
    },
    {
      "children": [
        26
      ],
      "name": "Thumb1.L_Armature",
      "rotation": [
        0.4843199551105499,
        -0.23134355247020721,
        -0.40314871072769165,
        0.7412055134773254
      ],
      "scale": [
        0.9999984502792358,
        0.9999944567680359,
        1.0000004768371582
      ],
      "translation": [
        0.0,
        0.05542999878525734,
        0.0
      ]
    },
    {
      "name": "Thumb2.L_Armature",
      "rotation": [
        -0.21519653499126434,
        0.2644508183002472,
        0.2238875925540924,
        0.9130337238311768
      ],
      "scale": [
        0.9999935030937195,
        0.9999999403953552,
        1.0000056028366089
      ],
      "translation": [
        0.0,
        0.05696000158786774,
        0.0
      ]
    },
    {
      "children": [
        28
      ],
      "name": "Shoulder.R_Armature",
      "rotation": [
        0.0006989989196881652,
        0.014672273769974709,
        0.8283884525299072,
        0.5599614977836609
      ],
      "scale": [
        0.999993085861206,
        0.9999997019767761,
        1.000006079673767
      ],
      "translation": [
        -0.1424199938774109,
        0.26673999428749084,
        -0.03756000101566315
      ]
    },
    {
      "children": [
        29
      ],
      "name": "Arm1.R_Armature",
      "rotation": [
        -0.07910338789224625,
        -0.010089797899127007,
        0.16434475779533386,
        0.9831742644309998
      ],
      "scale": [
        1.0000066757202148,
        0.9999991655349731,
        0.9999978542327881
      ],
      "translation": [
        0.0,
        0.12434999644756317,
        0.0
      ]
    },
    {
      "children": [
        30
      ],
      "name": "Arm2.R_Armature",
      "rotation": [
        0.14288893342018127,
        -0.0002487453748472035,
        -0.09993103891611099,
        0.9846810102462769
      ],
      "scale": [
        1.0000015497207642,
        0.9999966025352478,
        1.000005841255188
      ],
      "translation": [
        0.0,
        0.33768999576568604,
        0.0
      ]
    },
    {
      "children": [
        31,
        34,
        37,
        40,
        43
      ],
      "name": "Wrist.R_Armature",
      "rotation": [
        -0.10181743651628494,
        -0.002827931195497513,
        -0.06364865601062775,
        0.9927608370780945
      ],
      "scale": [
        0.9999945163726807,
        0.9999960660934448,
        1.0000029802322388
      ],
      "translation": [
        0.0,
        0.31692999601364136,
        0.0
      ]
    },
    {
      "children": [
        32
      ],
      "name": "Index1.R_Armature",
      "rotation": [
        0.1941305547952652,
        0.016728006303310394,
        0.1195538267493248,
        0.9735196828842163
      ],
      "scale": [
        0.999995231628418,
        0.999999463558197,
        1.0000035762786865
      ],
      "translation": [
        0.0,
        0.05542999878525734,
        0.0
      ]
    },
    {
      "children": [
        33
      ],
      "name": "Index2.R_Armature",
      "rotation": [
        -0.1676720529794693,
        -0.006761255674064159,
        -0.04004811868071556,
        0.9850058555603027
      ],
      "scale": [
        0.9999992251396179,
        0.9999926090240479,
        1.0000017881393433
      ],
      "translation": [
        0.0,
        0.06641999632120132,
        0.0
      ]
    },
    {
      "name": "Index3.R_Armature",
      "rotation": [
        0.03666630759835243,
        0.002762703923508525,
        0.07791485637426376,
        0.9962818026542664
      ],
      "scale": [
        0.999995231628418,
        1.000001311302185,
        1.000004529953003
      ],
      "translation": [
        0.0,
        0.04487000033259392,
        0.0
      ]
    },
    {
      "children": [
        35
      ],
      "name": "Middle1.R_Armature",
      "rotation": [
        0.015252684243023396,
        -0.005215111654251814,
        0.12281078845262527,
        0.9922991991043091
      ],
      "scale": [
        0.9999955296516418,
        1.0000005960464478,
        1.0000032186508179
      ],
      "translation": [
        0.0,
        0.05542999878525734,
        0.0
      ]
    },
    {
      "children": [
        36
      ],
      "name": "Middle2.R_Armature",
      "rotation": [
        0.029162652790546417,
        -3.997564999735914e-05,
        -0.01911153458058834,
        0.9993919730186462
      ],
      "scale": [
        0.9999948740005493,
        1.0000025033950806,
        1.0000054836273193
      ],
      "translation": [
        0.0,
        0.06327000260353088,
        0.0
      ]
    },
    {
      "name": "Middle3.R_Armature",
      "rotation": [
        0.03082587756216526,
        -0.0005527998437173665,
        -0.008867057971656322,
        0.9994853138923645
      ],
      "scale": [
        0.9999964833259583,
        0.9999983906745911,
        1.0000017881393433
      ],
      "translation": [
        0.0,
        0.04546999931335449,
        0.0
      ]
    },
    {
      "children": [
        38
      ],
      "name": "Ring1.R_Armature",
      "rotation": [
        -0.12425881624221802,
        -0.02786928601562977,
        0.1498592048883438,
        0.9804719686508179
      ],
      "scale": [
        0.9999977350234985,
        0.9999954700469971,
        1.0000056028366089
      ],
      "translation": [
        0.0,
        0.05542999878525734,
        0.0
      ]
    },
    {
      "children": [
        39
      ],
      "name": "Ring2.R_Armature",
      "rotation": [
        0.13004803657531738,
        0.020036371424794197,
        -0.11094531416893005,
        0.9850772619247437
      ],
      "scale": [
        1.0000009536743164,
        1.000003457069397,
        0.9999969601631165
      ],
      "translation": [
        0.0,
        0.06744000315666199,
        0.0
      ]
    },
    {
      "name": "Ring3.R_Armature",
      "rotation": [
        0.039680395275354385,
        -0.0006353771896101534,
        0.08362432569265366,
        0.9957067966461182
      ],
      "scale": [
        0.9999964237213135,
        0.9999929666519165,
        1.000002384185791
      ],
      "translation": [
        0.0,
        0.04498999938368797,
        0.0
      ]
    },
    {
      "children": [
        41
      ],
      "name": "Pinky1.R_Armature",
      "rotation": [
        -0.2426094114780426,
        -0.04799339920282364,
        0.1518605798482895,
        0.9569618105888367
      ],
      "scale": [
        0.9999980330467224,
        1.0000041723251343,
        0.9999947547912598
      ],
      "translation": [
        0.0,
        0.05542999878525734,
        0.0
      ]
    },
    {
      "children": [
        42
      ],
      "name": "Pinky2.R_Armature",
      "rotation": [
        0.20056785643100739,
        0.009322977624833584,
        -0.025354599580168724,
        0.9793072938919067
      ],
      "scale": [
        0.9999997019767761,
        0.999997079372406,
        1.000002145767212
      ],
      "translation": [
        0.0,
        0.07478000223636627,
        0.0
      ]
    },
    {
      "name": "Pinky3.R_Armature",
      "rotation": [
        0.035829633474349976,
        0.00516100786626339,
        -0.04488467052578926,
        0.9983361959457397
      ],
      "scale": [
        1.000001311302185,
        0.9999948740005493,
        1.0000039339065552
      ],
      "translation": [
        0.0,
        0.03954000025987625,
        0.0
      ]
    },
    {
      "children": [
        44
      ],
      "name": "Thumb1.R_Armature",
      "rotation": [
        0.4843199551105499,
        0.23134355247020721,
        0.40314871072769165,
        0.7412055134773254
      ],
      "scale": [
        0.9999984502792358,
        0.9999944567680359,
        1.0000004768371582
      ],
      "translation": [
        0.0,
        0.05542999878525734,
        0.0
      ]
    },
    {
      "name": "Thumb2.R_Armature",
      "rotation": [
        -0.21519653499126434,
        -0.2644508183002472,
        -0.2238875925540924,
        0.9130337238311768
      ],
      "scale": [
        0.9999935030937195,
        0.9999999403953552,
        1.0000056028366089
      ],
      "translation": [
        0.0,
        0.05696000158786774,
        0.0
      ]
    },
    {
      "children": [
        46
      ],
      "name": "Leg1.L_Armature",
      "rotation": [
        0.001336409361101687,
        0.006556357257068157,
        0.9990069270133972,
        -0.04404958337545395
      ],
      "scale": [
        0.9999623894691467,
        0.9999962449073792,
        1.0000016689300537
      ],
      "translation": [
        0.11862999945878983,
        0.06290999799966812,
        -0.006440000142902136
      ]
    },
    {
      "children": [
        47
      ],
      "name": "Leg2.L_Armature",
      "rotation": [
        -0.04766400530934334,
        0.001249146182090044,
        -0.01744750700891018,
        0.9987102746963501
      ],
      "scale": [
        1.000001311302185,
        1.0000039339065552,
        0.9999961256980896
      ],
      "translation": [
        0.0,
        0.3755800127983093,
        0.0
      ]
    },
    {
      "children": [
        48
      ],
      "name": "Foot1.L_Armature",
      "rotation": [
        0.5065016746520996,
        0.0006208442500792444,
        0.0014209201326593757,
        0.8622375726699829
      ],
      "scale": [
        1.0000053644180298,
        0.9999979138374329,
        1.0000026226043701
      ],
      "translation": [
        0.0,
        0.40529000759124756,
        0.0
      ]
    },
    {
      "name": "Foot2.L_Armature",
      "rotation": [
        0.2086755931377411,
        0.6484094858169556,
        0.22680461406707764,
        0.6961174011230469
      ],
      "scale": [
        0.9999991059303284,
        1.0000014305114746,
        1.0000050067901611
      ],
      "translation": [
        0.0,
        0.13627000153064728,
        0.0
      ]
    },
    {
      "children": [
        50
      ],
      "name": "Leg1.R_Armature",
      "rotation": [
        -0.001333911786787212,
        0.006556467618793249,
        0.9990069270133972,
        0.04404959827661514
      ],
      "scale": [
        0.9999638199806213,
        0.9999955892562866,
        1.0000009536743164
      ],
      "translation": [
        -0.11862999945878983,
        0.06290999799966812,
        -0.006440000142902136
      ]
    },
    {
      "children": [
        51
      ],
      "name": "Leg2.R_Armature",
      "rotation": [
        -0.04766400530934334,
        -0.001249146182090044,
        0.01744750700891018,
        0.9987102746963501
      ],
      "scale": [
        1.000001311302185,
        1.0000039339065552,
        0.9999961256980896
      ],
      "translation": [
        0.0,
        0.3755800127983093,
        0.0
      ]
    },
    {
      "children": [
        52
      ],
      "name": "Foot1.R_Armature",
      "rotation": [
        0.5065016746520996,
        -0.0006208442500792444,
        -0.0014209201326593757,
        0.8622375726699829
      ],
      "scale": [
        1.0000053644180298,
        0.9999979138374329,
        1.0000026226043701
      ],
      "translation": [
        0.0,
        0.40529000759124756,
        0.0
      ]
    },
    {
      "name": "Foot2.R_Armature",
      "rotation": [
        0.2086755931377411,
        -0.6484094858169556,
        -0.22680461406707764,
        0.6961174011230469
      ],
      "scale": [
        0.9999991059303284,
        1.0000014305114746,
        1.0000050067901611
      ],
      "translation": [
        0.0,
        0.13627000153064728,
        0.0
      ]
    },
    {
      "name": "FootIK.L_Armature",
      "rotation": [
        0.0,
        0.0,
        0.0,
        1.0
      ],
      "scale": [
        1.0,
        1.0,
        1.0
      ],
      "translation": [
        0.17307999730110168,
        0.07874000072479248,
        -0.6911500096321106
      ]
    },
    {
      "name": "PoleTarget.L_Armature",
      "rotation": [
        0.0,
        0.0,
        1.0,
        0.0
      ],
      "scale": [
        1.0,
        1.0,
        1.0
      ],
      "translation": [
        0.15169000625610352,
        -0.6282100081443787,
        -0.28960999846458435
      ]
    },
    {
      "name": "FootIK.R_Armature",
      "rotation": [
        0.0,
        0.0,
        0.0,
        1.0
      ],
      "scale": [
        1.0,
        1.0,
        1.0
      ],
      "translation": [
        -0.17307999730110168,
        0.07874000072479248,
        -0.6911500096321106
      ]
    },
    {
      "name": "PoleTarget.R_Armature",
      "rotation": [
        0.0,
        0.0,
        1.0,
        0.0
      ],
      "scale": [
        1.0,
        1.0,
        1.0
      ],
      "translation": [
        -0.15169000625610352,
        -0.6282100081443787,
        -0.28960999846458435
      ]
    },
    {
      "name": "zombieLowPoly",
      "rotation": [
        0.7071067690849304,
        0.0,
        0.0,
        0.7071067690849304
      ]
    },
    {
      "mesh": 0,
      "name": "zombieLowPoly_0",
      "skin": 0
    }
  ],
  "samplers": [
    {
      "magFilter": 9729,
      "minFilter": 9987,
      "wrapS": 10497,
      "wrapT": 10497
    }
  ],
  "scene": 0,
  "scenes": [
    {
      "name": "Sketchfab_Scene",
      "nodes": [
        0
      ]
    }
  ],
  "skins": [
    {
      "inverseBindMatrices": 5,
      "joints": [
        3,
        4,
        5,
        6,
        7,
        8,
        9,
        10,
        11,
        12,
        13,
        14,
        15,
        16,
        17,
        18,
        19,
        20,
        21,
        22,
        23,
        24,
        25,
        26,
        27,
        28,
        29,
        30,
        31,
        32,
        33,
        34,
        35,
        36,
        37,
        38,
        39,
        40,
        41,
        42,
        43,
        44,
        45,
        46,
        47,
        48,
        49,
        50,
        51,
        52,
        53,
        54,
        55,
        56
      ],
      "skeleton": 3
    }
  ],
  "textures": [
    {
      "sampler": 0,
      "source": 0
    },
    {
      "sampler": 0,
      "source": 1
    },
    {
      "sampler": 0,
      "source": 2
    }
  ]
}
