{
  "accessors": [
    {
      "bufferView": 2,
      "componentType": 5126,
      "count": 119,
      "max": [
        4.0,
        7.187380219875195e-07,
        4.0
      ],
      "min": [
        -4.0,
        -0.12816110253334045,
        0.0
      ],
      "type": "VEC3"
    },
    {
      "bufferView": 2,
      "byteOffset": 1428,
      "componentType": 5126,
      "count": 119,
      "max": [
        1.0,
        0.2544952929019928,
        1.0
      ],
      "min": [
        -1.0,
        -1.0,
        -1.0
      ],
      "type": "VEC3"
    },
    {
      "bufferView": 3,
      "componentType": 5126,
      "count": 119,
      "max": [
        0.254069983959198,
        1.0,
        1.0,
        1.0
      ],
      "min": [
        -0.5816823840141296,
        -0.9999960064888,
        -1.0,
        1.0
      ],
      "type": "VEC4"
    },
    {
      "bufferView": 1,
      "componentType": 5126,
      "count": 119,
      "max": [
        0.7833306193351746,
        0.9972116947174072
      ],
      "min": [
        0.00278830504976213,
        0.002788244979456067
      ],
      "type": "VEC2"
    },
    {
      "bufferView": 0,
      "componentType": 5125,
      "count": 180,
      "type": "SCALAR"
    },
    {
      "bufferView": 2,
      "byteOffset": 2856,
      "componentType": 5126,
      "count": 52,
      "max": [
        4.0,
        7.069920116009598e-07,
        4.0
      ],
      "min": [
        -4.0,
        -0.12816110253334045,
        3.8821699619293213
      ],
      "type": "VEC3"
    },
    {
      "bufferView": 2,
      "byteOffset": 3480,
      "componentType": 5126,
      "count": 52,
      "max": [
        0.0,
        2.5966999601223506e-05,
        6.185609890962951e-07
      ],
      "min": [
        0.0,
        -1.0,
        -1.0
      ],
      "type": "VEC3"
    },
    {
      "bufferView": 3,
      "byteOffset": 1904,
      "componentType": 5126,
      "count": 52,
      "max": [
        6.616424070671201e-05,
        1.0,
        2.596700142021291e-05,
        1.0
      ],
      "min": [
        -6.616278551518917e-05,
        -6.18561045939714e-07,
        -1.0,
        1.0
      ],
      "type": "VEC4"
    },
    {
      "bufferView": 1,
      "byteOffset": 952,
      "componentType": 5126,
      "count": 52,
      "max": [
        0.8418490886688232,
        0.9972115755081177
      ],
      "min": [
        0.7889071702957153,
        0.0027881860733032227
      ],
      "type": "VEC2"
    },
    {
      "bufferView": 0,
      "byteOffset": 720,
      "componentType": 5125,
      "count": 66,
      "type": "SCALAR"
    }
  ],
  "asset": {
    "extras": {
      "author": "Vishal Pandey (https://sketchfab.com/vishalpandey2311)",
      "license": "CC-BY-4.0 (http://creativecommons.org/licenses/by/4.0/)",
      "source": "https://sketchfab.com/3d-models/abandoned-horror-wall-with-blood-splatter-0aaf61c5dc5d4008befa851e7971cdee",
      "title": "Abandoned Horror Wall with Blood Splatter"
    },
    "generator": "Sketchfab-17.8.0",
    "version": "2.0"
  },
  "bufferViews": [
    {
      "buffer": 0,
      "byteLength": 984,
      "name": "floatBufferViews",
      "target": 34963
    },
    {
      "buffer": 0,
      "byteLength": 1368,
      "byteOffset": 984,
      "byteStride": 8,
      "name": "floatBufferViews",
      "target": 34962
    },
    {
      "buffer": 0,
      "byteLength": 4104,
      "byteOffset": 2352,
      "byteStride": 12,
      "name": "floatBufferViews",
      "target": 34962
    },
    {
      "buffer": 0,
      "byteLength": 2736,
      "byteOffset": 6456,
      "byteStride": 16,
      "name": "floatBufferViews",
      "target": 34962
    }
  ],
  "buffers": [
    {
      "byteLength": 9192,
      "uri": "scene.bin"
    }
  ],
  "images": [
    {
      "uri": "textures/Walls_baseColor.jpeg"
    },
    {
      "uri": "textures/Walls_metallicRoughness.png"
    },
    {
      "uri": "textures/Walls_normal.png"
    }
  ],
  "materials": [
    {
      "doubleSided": true,
      "name": "Walls",
      "normalTexture": {
        "index": 2
      },
      "occlusionTexture": {
        "index": 1
      },
      "pbrMetallicRoughness": {
        "baseColorTexture": {
          "index": 0
        },
        "metallicRoughnessTexture": {
          "index": 1
        }
      }
    },
    {
      "doubleSided": true,
      "name": "Material.001",
      "normalTexture": {
        "index": 2
      },
      "occlusionTexture": {
        "index": 1
      },
      "pbrMetallicRoughness": {
        "baseColorTexture": {
          "index": 0
        },
        "metallicRoughnessTexture": {
          "index": 1
        }
      }
    }
  ],
  "meshes": [
    {
      "name": "Walls-material",
      "primitives": [
        {
          "attributes": {
            "NORMAL": 1,
            "POSITION": 0,
            "TANGENT": 2,
            "TEXCOORD_0": 3
          },
          "indices": 4,
          "material": 0,
          "mode": 4
        }
      ]
    },
    {
      "name": "Material_001-material",
      "primitives": [
        {
          "attributes": {
            "NORMAL": 6,
            "POSITION": 5,
            "TANGENT": 7,
            "TEXCOORD_0": 8
          },
          "indices": 9,
          "material": 1,
          "mode": 4
        }
      ]
    }
  ],
  "nodes": [
    {
      "children": [
        1
      ],
      "matrix": [
        0.625,
        0.0,
        0.0,
        0.0,
        0.0,
        1.3877787807814457e-16,
        -0.625,
        0.0,
        0.0,
        0.625,
        1.3877787807814457e-16,
        0.0,
        0.0,
        0.0,
        0.0,
        1.0
      ],
      "name": "Sketchfab_model"
    },
    {
      "children": [
        2
      ],
      "name": "Collada visual scene group"
    },
    {
      "children": [
        3,
        4
      ],
      "name": "Main"
    },
    {
      "mesh": 0,
      "name": "Walls-material"
    },
    {
      "mesh": 1,
      "name": "Material_001-material"
    }
  ],
  "samplers": [
    {
      "magFilter": 9729,
      "minFilter": 9987,
      "wrapS": 10497,
      "wrapT": 10497
    }
  ],
  "scene": 0,
  "scenes": [
    {
      "name": "Sketchfab_Scene",
      "nodes": [
        0
      ]
    }
  ],
  "textures": [
    {
      "sampler": 0,
      "source": 0
    },
    {
      "sampler": 0,
      "source": 1
    },
    {
      "sampler": 0,
      "source": 2
    }
  ]
}
