{
  "accessors": [
    {
      "bufferView": 2,
      "componentType": 5126,
      "count": 160,
      "max": [
        99.51344299316406,
        -85.30000305175781,
        7.656103610992432
      ],
      "min": [
        -99.51344299316406,
        -100.0,
        -7.656103610992432
      ],
      "type": "VEC3"
    },
    {
      "bufferView": 2,
      "byteOffset": 1920,
      "componentType": 5126,
      "count": 160,
      "max": [
        0.909511387348175,
        1.0,
        1.0
      ],
      "min": [
        -0.909511387348175,
        -1.0,
        -1.0
      ],
      "type": "VEC3"
    },
    {
      "bufferView": 3,
      "componentType": 5126,
      "count": 160,
      "max": [
        1.0,
        0.2097100168466568,
        0.7866518497467041,
        1.0
      ],
      "min": [
        -0.9950498342514038,
        -0.9550207853317261,
        -0.7867597937583923,
        1.0
      ],
      "type": "VEC4"
    },
    {
      "bufferView": 1,
      "componentType": 5126,
      "count": 160,
      "max": [
        0.7249119877815247,
        0.9040307998657227
      ],
      "min": [
        0.0009955990826711059,
        0.15050804615020752
      ],
      "type": "VEC2"
    },
    {
      "bufferView": 0,
      "componentType": 5125,
      "count": 564,
      "type": "SCALAR"
    },
    {
      "bufferView": 2,
      "byteOffset": 3840,
      "componentType": 5126,
      "count": 160,
      "max": [
        -85.30000305175781,
        99.51344299316406,
        7.656103610992432
      ],
      "min": [
        -100.0,
        -99.51344299316406,
        -7.656103610992432
      ],
      "type": "VEC3"
    },
    {
      "bufferView": 2,
      "byteOffset": 5760,
      "componentType": 5126,
      "count": 160,
      "max": [
        1.0,
        0.909511387348175,
        1.0
      ],
      "min": [
        -1.0,
        -0.909511387348175,
        -1.0
      ],
      "type": "VEC3"
    },
    {
      "bufferView": 3,
      "byteOffset": 2560,
      "componentType": 5126,
      "count": 160,
      "max": [
        0.209710031747818,
        1.0,
        0.7865244150161743,
        1.0
      ],
      "min": [
        -0.955341637134552,
        -0.995049774646759,
        -0.7868903279304504,
        1.0
      ],
      "type": "VEC4"
    },
    {
      "bufferView": 1,
      "byteOffset": 1280,
      "componentType": 5126,
      "count": 160,
      "max": [
        0.4589523673057556,
        0.6497305035591125
      ],
      "min": [
        0.0010045679518952966,
        0.34418368339538574
      ],
      "type": "VEC2"
    },
    {
      "bufferView": 0,
      "byteOffset": 2256,
      "componentType": 5125,
      "count": 564,
      "type": "SCALAR"
    },
    {
      "bufferView": 2,
      "byteOffset": 7680,
      "componentType": 5126,
      "count": 160,
      "max": [
        100.0,
        99.51344299316406,
        7.656103610992432
      ],
      "min": [
        85.30000305175781,
        -99.51344299316406,
        -7.656103610992432
      ],
      "type": "VEC3"
    },
    {
      "bufferView": 2,
      "byteOffset": 9600,
      "componentType": 5126,
      "count": 160,
      "max": [
        1.0,
        0.909511387348175,
        1.0
      ],
      "min": [
        -1.0,
        -0.909511387348175,
        -1.0
      ],
      "type": "VEC3"
    },
    {
      "bufferView": 3,
      "byteOffset": 5120,
      "componentType": 5126,
      "count": 160,
      "max": [
        0.9542136192321777,
        1.0,
        0.7865241765975952,
        1.0
      ],
      "min": [
        -0.2097100466489792,
        -0.9950500726699829,
        -0.7869279980659485,
        1.0
      ],
      "type": "VEC4"
    },
    {
      "bufferView": 1,
      "byteOffset": 2560,
      "componentType": 5126,
      "count": 160,
      "max": [
        0.7946710586547852,
        0.3954252004623413
      ],
      "min": [
        0.06130725517868996,
        0.0704648494720459
      ],
      "type": "VEC2"
    },
    {
      "bufferView": 0,
      "byteOffset": 4512,
      "componentType": 5125,
      "count": 564,
      "type": "SCALAR"
    },
    {
      "bufferView": 2,
      "byteOffset": 11520,
      "componentType": 5126,
      "count": 174,
      "max": [
        99.51344299316406,
        100.0,
        7.656103610992432
      ],
      "min": [
        -99.51344299316406,
        85.30000305175781,
        -7.656103610992432
      ],
      "type": "VEC3"
    },
    {
      "bufferView": 2,
      "byteOffset": 13608,
      "componentType": 5126,
      "count": 174,
      "max": [
        0.9973750710487366,
        1.0,
        1.0
      ],
      "min": [
        -0.9968209266662598,
        -1.0,
        -1.0
      ],
      "type": "VEC3"
    },
    {
      "bufferView": 3,
      "byteOffset": 7680,
      "componentType": 5126,
      "count": 174,
      "max": [
        1.0,
        0.9913771748542786,
        0.7867853045463562,
        1.0
      ],
      "min": [
        -0.9880346655845642,
        -0.2097100466489792,
        -0.85501629114151,
        1.0
      ],
      "type": "VEC4"
    },
    {
      "bufferView": 1,
      "byteOffset": 3840,
      "componentType": 5126,
      "count": 174,
      "max": [
        0.9613990187644958,
        0.9569912552833557
      ],
      "min": [
        0.21333307027816772,
        0.09755778312683105
      ],
      "type": "VEC2"
    },
    {
      "bufferView": 0,
      "byteOffset": 6768,
      "componentType": 5125,
      "count": 564,
      "type": "SCALAR"
    },
    {
      "bufferView": 2,
      "byteOffset": 15696,
      "componentType": 5126,
      "count": 20,
      "max": [
        85.2289810180664,
        85.30000305175781,
        6.826103687286377
      ],
      "min": [
        -85.2289810180664,
        -86.08079528808594,
        -62.39506912231445
      ],
      "type": "VEC3"
    },
    {
      "bufferView": 2,
      "byteOffset": 15936,
      "componentType": 5126,
      "count": 20,
      "max": [
        1.0,
        1.0,
        1.0
      ],
      "min": [
        -1.0,
        -1.0,
        -0.0
      ],
      "type": "VEC3"
    },
    {
      "bufferView": 3,
      "byteOffset": 10464,
      "componentType": 5126,
      "count": 20,
      "max": [
        1.0,
        0.0,
        1.0,
        1.0
      ],
      "min": [
        0.0,
        0.0,
        -1.0,
        1.0
      ],
      "type": "VEC4"
    },
    {
      "bufferView": 1,
      "byteOffset": 5232,
      "componentType": 5126,
      "count": 20,
      "max": [
        0.9990044236183167,
        0.9990044236183167
      ],
      "min": [
        0.2827376425266266,
        0.03870880603790283
      ],
      "type": "VEC2"
    },
    {
      "bufferView": 0,
      "byteOffset": 9024,
      "componentType": 5125,
      "count": 30,
      "type": "SCALAR"
    }
  ],
  "asset": {
    "extras": {
      "author": "Mehdi Shahsavan (https://sketchfab.com/ahmagh2e)",
      "license": "CC-BY-4.0 (http://creativecommons.org/licenses/by/4.0/)",
      "source": "https://sketchfab.com/3d-models/ventilation-valve-ceiling-wall-5mb-fadbec3e20754fea815602d72721baae",
      "title": "Ventilation Valve ceiling wall - 5MB"
    },
    "generator": "Sketchfab-16.16.0",
    "version": "2.0"
  },
  "bufferViews": [
    {
      "buffer": 0,
      "byteLength": 9144,
      "name": "floatBufferViews",
      "target": 34963
    },
    {
      "buffer": 0,
      "byteLength": 5392,
      "byteOffset": 9144,
      "byteStride": 8,
      "name": "floatBufferViews",
      "target": 34962
    },
    {
      "buffer": 0,
      "byteLength": 16176,
      "byteOffset": 14536,
      "byteStride": 12,
      "name": "floatBufferViews",
      "target": 34962
    },
    {
      "buffer": 0,
      "byteLength": 10784,
      "byteOffset": 30712,
      "byteStride": 16,
      "name": "floatBufferViews",
      "target": 34962
    }
  ],
  "buffers": [
    {
      "byteLength": 41496,
      "uri": "scene.bin"
    }
  ],
  "images": [
    {
      "uri": "textures/Scene_-_Root_baseColor.png"
    },
    {
      "uri": "textures/Scene_-_Root_metallicRoughness.png"
    },
    {
      "uri": "textures/Scene_-_Root_normal.png"
    }
  ],
  "materials": [
    {
      "alphaCutoff": 0.8699580428059054,
      "alphaMode": "MASK",
      "doubleSided": true,
      "name": "Scene_-_Root",
      "normalTexture": {
        "index": 2
      },
      "pbrMetallicRoughness": {
        "baseColorTexture": {
          "index": 0
        },
        "metallicRoughnessTexture": {
          "index": 1
        }
      }
    }
  ],
  "meshes": [
    {
      "name": "Cube_4__0",
      "primitives": [
        {
          "attributes": {
            "NORMAL": 1,
            "POSITION": 0,
            "TANGENT": 2,
            "TEXCOORD_0": 3
          },
          "indices": 4,
          "material": 0,
          "mode": 4
        }
      ]
    },
    {
      "name": "Cube_3__0",
      "primitives": [
        {
          "attributes": {
            "NORMAL": 6,
            "POSITION": 5,
            "TANGENT": 7,
            "TEXCOORD_0": 8
          },
          "indices": 9,
          "material": 0,
          "mode": 4
        }
      ]
    },
    {
      "name": "Cube_2__0",
      "primitives": [
        {
          "attributes": {
            "NORMAL": 11,
            "POSITION": 10,
            "TANGENT": 12,
            "TEXCOORD_0": 13
          },
          "indices": 14,
          "material": 0,
          "mode": 4
        }
      ]
    },
    {
      "name": "Cube_1__0",
      "primitives": [
        {
          "attributes": {
            "NORMAL": 16,
            "POSITION": 15,
            "TANGENT": 17,
            "TEXCOORD_0": 18
          },
          "indices": 19,
          "material": 0,
          "mode": 4
        }
      ]
    },
    {
      "name": "Cube__0",
      "primitives": [
        {
          "attributes": {
            "NORMAL": 21,
            "POSITION": 20,
            "TANGENT": 22,
            "TEXCOORD_0": 23
          },
          "indices": 24,
          "material": 0,
          "mode": 4
        }
      ]
    }
  ],
  "nodes": [
    {
      "children": [
        1
      ],
      "matrix": [
        1.0,
        0.0,
        0.0,
        0.0,
        0.0,
        2.220446049250313e-16,
        -1.0,
        0.0,
        0.0,
        1.0,
        2.220446049250313e-16,
        0.0,
        0.0,
        0.0,
        0.0,
        1.0
      ],
      "name": "Sketchfab_model"
    },
    {
      "children": [
        2
      ],
      "matrix": [
        0.009999999776482582,
        0.0,
        0.0,
        0.0,
        0.0,
        0.0,
        0.009999999776482582,
        0.0,
        0.0,
        -0.009999999776482582,
        0.0,
        0.0,
        0.0,
        0.0,
        0.0,
        1.0
      ],
      "name": "d56d58f05ae642e9880b5ee70c39390b.fbx"
    },
    {
      "children": [
        3,
        5,
        7,
        9,
        11,
        13
      ],
      "name": "RootNode"
    },
    {
      "children": [
        4
      ],
      "matrix": [
        0.881629823640209,
        -0.45912099893134384,
        -0.10925549143369806,
        0.0,
        0.4556356693651513,
        0.8883737436126109,
        -0.05646439995152319,
        0.0,
        0.12298370164499214,
        5.551115123125783e-17,
        0.9924086905754582,
        0.0,
        -457.8278503417969,
        172.538818359375,
        159.9970245361328,
        1.0
      ],
      "name": "CINEMA_4D_Editor"
    },
    {
      "name": "Object_4"
    },
    {
      "children": [
        6
      ],
      "name": "Cube_4"
    },
    {
      "mesh": 0,
      "name": "Cube_4__0"
    },
    {
      "children": [
        8
      ],
      "name": "Cube_3"
    },
    {
      "mesh": 1,
      "name": "Cube_3__0"
    },
    {
      "children": [
        10
      ],
      "name": "Cube_2"
    },
    {
      "mesh": 2,
      "name": "Cube_2__0"
    },
    {
      "children": [
        12
      ],
      "name": "Cube_1"
    },
    {
      "mesh": 3,
      "name": "Cube_1__0"
    },
    {
      "children": [
        14
      ],
      "name": "Cube"
    },
    {
      "mesh": 4,
      "name": "Cube__0"
    }
  ],
  "samplers": [
    {
      "magFilter": 9729,
      "minFilter": 9987,
      "wrapS": 10497,
      "wrapT": 10497
    }
  ],
  "scene": 0,
  "scenes": [
    {
      "name": "Sketchfab_Scene",
      "nodes": [
        0
      ]
    }
  ],
  "textures": [
    {
      "sampler": 0,
      "source": 0
    },
    {
      "sampler": 0,
      "source": 1
    },
    {
      "sampler": 0,
      "source": 2
    }
  ]
}
