{
  "accessors": [
    {
      "bufferView": 2,
      "componentType": 5126,
      "count": 495,
      "max": [
        0.07193800061941147,
        0.07193800061941147,
        0.00648800004273653
      ],
      "min": [
        -0.07193800061941147,
        -0.07193800061941147,
        -0.00648800004273653
      ],
      "type": "VEC3"
    },
    {
      "bufferView": 2,
      "byteOffset": 5940,
      "componentType": 5126,
      "count": 495,
      "max": [
        1.0,
        1.0,
        1.0
      ],
      "min": [
        -1.0,
        -1.0,
        -1.0
      ],
      "type": "VEC3"
    },
    {
      "bufferView": 3,
      "componentType": 5126,
      "count": 495,
      "max": [
        0.9978656768798828,
        0.9978643655776978,
        0.0,
        1.0
      ],
      "min": [
        -0.9978657364845276,
        -0.9978644251823425,
        -1.0,
        1.0
      ],
      "type": "VEC4"
    },
    {
      "bufferView": 1,
      "componentType": 5126,
      "count": 495,
      "max": [
        0.5219290256500244,
        0.929252028465271
      ],
      "min": [
        0.0019529999699443579,
        0.6268470287322998
      ],
      "type": "VEC2"
    },
    {
      "bufferView": 0,
      "componentType": 5125,
      "count": 2112,
      "type": "SCALAR"
    },
    {
      "bufferView": 2,
      "byteOffset": 11880,
      "componentType": 5126,
      "count": 495,
      "max": [
        0.07193800061941147,
        0.07193800061941147,
        0.00648800004273653
      ],
      "min": [
        -0.07193800061941147,
        -0.07193800061941147,
        -0.00648800004273653
      ],
      "type": "VEC3"
    },
    {
      "bufferView": 2,
      "byteOffset": 17820,
      "componentType": 5126,
      "count": 495,
      "max": [
        1.0,
        1.0,
        1.0
      ],
      "min": [
        -1.0,
        -1.0,
        -1.0
      ],
      "type": "VEC3"
    },
    {
      "bufferView": 3,
      "byteOffset": 7920,
      "componentType": 5126,
      "count": 495,
      "max": [
        0.9978644251823425,
        0.9978643655776978,
        0.0,
        1.0
      ],
      "min": [
        -0.9978644251823425,
        -0.9978643655776978,
        -1.0,
        1.0
      ],
      "type": "VEC4"
    },
    {
      "bufferView": 1,
      "byteOffset": 3960,
      "componentType": 5126,
      "count": 495,
      "max": [
        0.5219290256500244,
        0.929252028465271
      ],
      "min": [
        0.0019529999699443579,
        0.6268470287322998
      ],
      "type": "VEC2"
    },
    {
      "bufferView": 0,
      "byteOffset": 8448,
      "componentType": 5125,
      "count": 2112,
      "type": "SCALAR"
    },
    {
      "bufferView": 2,
      "byteOffset": 23760,
      "componentType": 5126,
      "count": 495,
      "max": [
        0.07193800061941147,
        0.07193800061941147,
        0.00648800004273653
      ],
      "min": [
        -0.07193800061941147,
        -0.07193800061941147,
        -0.00648800004273653
      ],
      "type": "VEC3"
    },
    {
      "bufferView": 2,
      "byteOffset": 29700,
      "componentType": 5126,
      "count": 495,
      "max": [
        1.0,
        1.0,
        1.0
      ],
      "min": [
        -1.0,
        -1.0,
        -1.0
      ],
      "type": "VEC3"
    },
    {
      "bufferView": 3,
      "byteOffset": 15840,
      "componentType": 5126,
      "count": 495,
      "max": [
        0.9978657364845276,
        0.9978644251823425,
        0.0,
        1.0
      ],
      "min": [
        -0.9978656768798828,
        -0.9978644251823425,
        -1.0,
        1.0
      ],
      "type": "VEC4"
    },
    {
      "bufferView": 1,
      "byteOffset": 7920,
      "componentType": 5126,
      "count": 495,
      "max": [
        0.5219290256500244,
        0.929252028465271
      ],
      "min": [
        0.0019529999699443579,
        0.6268470287322998
      ],
      "type": "VEC2"
    },
    {
      "bufferView": 0,
      "byteOffset": 16896,
      "componentType": 5125,
      "count": 2112,
      "type": "SCALAR"
    },
    {
      "bufferView": 2,
      "byteOffset": 35640,
      "componentType": 5126,
      "count": 495,
      "max": [
        0.07193800061941147,
        0.07193800061941147,
        0.00648800004273653
      ],
      "min": [
        -0.07193800061941147,
        -0.07193800061941147,
        -0.00648800004273653
      ],
      "type": "VEC3"
    },
    {
      "bufferView": 2,
      "byteOffset": 41580,
      "componentType": 5126,
      "count": 495,
      "max": [
        1.0,
        1.0,
        1.0
      ],
      "min": [
        -1.0,
        -1.0,
        -1.0
      ],
      "type": "VEC3"
    },
    {
      "bufferView": 3,
      "byteOffset": 23760,
      "componentType": 5126,
      "count": 495,
      "max": [
        0.9978657364845276,
        0.9978644251823425,
        0.0,
        1.0
      ],
      "min": [
        -0.9978656768798828,
        -0.9978643655776978,
        -1.0,
        1.0
      ],
      "type": "VEC4"
    },
    {
      "bufferView": 1,
      "byteOffset": 11880,
      "componentType": 5126,
      "count": 495,
      "max": [
        0.5219290256500244,
        0.929252028465271
      ],
      "min": [
        0.0019529999699443579,
        0.6268470287322998
      ],
      "type": "VEC2"
    },
    {
      "bufferView": 0,
      "byteOffset": 25344,
      "componentType": 5125,
      "count": 2112,
      "type": "SCALAR"
    },
    {
      "bufferView": 2,
      "byteOffset": 47520,
      "componentType": 5126,
      "count": 474,
      "max": [
        0.5447689890861511,
        0.0,
        0.004259999841451645
      ],
      "min": [
        -0.5447689890861511,
        -0.9043840169906616,
        -0.056575000286102295
      ],
      "type": "VEC3"
    },
    {
      "bufferView": 2,
      "byteOffset": 53208,
      "componentType": 5126,
      "count": 474,
      "max": [
        1.0,
        1.0,
        1.0
      ],
      "min": [
        -1.0,
        -1.0,
        -1.0
      ],
      "type": "VEC3"
    },
    {
      "bufferView": 3,
      "byteOffset": 31680,
      "componentType": 5126,
      "count": 474,
      "max": [
        0.49229714274406433,
        1.0,
        0.5621228814125061,
        1.0
      ],
      "min": [
        -1.0,
        -1.0,
        -0.5621229410171509,
        1.0
      ],
      "type": "VEC4"
    },
    {
      "bufferView": 1,
      "byteOffset": 15840,
      "componentType": 5126,
      "count": 474,
      "max": [
        0.8168209791183472,
        0.9315760135650635
      ],
      "min": [
        0.002022000029683113,
        0.0019529999699443579
      ],
      "type": "VEC2"
    },
    {
      "bufferView": 0,
      "byteOffset": 33792,
      "componentType": 5125,
      "count": 2232,
      "type": "SCALAR"
    },
    {
      "bufferView": 2,
      "byteOffset": 58896,
      "componentType": 5126,
      "count": 722,
      "max": [
        0.5447689890861511,
        1.3214420080184937,
        -0.00817899964749813
      ],
      "min": [
        -0.5447689890861511,
        -1.0,
        -0.06594700366258621
      ],
      "type": "VEC3"
    },
    {
      "bufferView": 2,
      "byteOffset": 67560,
      "componentType": 5126,
      "count": 722,
      "max": [
        1.0,
        1.0,
        1.0
      ],
      "min": [
        -1.0,
        -1.0,
        -1.0
      ],
      "type": "VEC3"
    },
    {
      "bufferView": 3,
      "byteOffset": 39264,
      "componentType": 5126,
      "count": 722,
      "max": [
        1.0,
        0.9888813495635986,
        0.14869098365306854,
        1.0
      ],
      "min": [
        -1.0,
        -0.988881528377533,
        -1.0,
        1.0
      ],
      "type": "VEC4"
    },
    {
      "bufferView": 1,
      "byteOffset": 19632,
      "componentType": 5126,
      "count": 722,
      "max": [
        0.9980469942092896,
        0.908456027507782
      ],
      "min": [
        0.0019529999699443579,
        0.0019529999699443579
      ],
      "type": "VEC2"
    },
    {
      "bufferView": 0,
      "byteOffset": 42720,
      "componentType": 5125,
      "count": 3576,
      "type": "SCALAR"
    },
    {
      "bufferView": 2,
      "byteOffset": 76224,
      "componentType": 5126,
      "count": 1809,
      "max": [
        0.4637880027294159,
        1.320052981376648,
        0.505657970905304
      ],
      "min": [
        -0.7865650057792664,
        -1.320052981376648,
        -0.505657970905304
      ],
      "type": "VEC3"
    },
    {
      "bufferView": 2,
      "byteOffset": 97932,
      "componentType": 5126,
      "count": 1809,
      "max": [
        1.0,
        1.0,
        1.0
      ],
      "min": [
        -1.0,
        -1.0,
        -1.0
      ],
      "type": "VEC3"
    },
    {
      "bufferView": 3,
      "byteOffset": 50816,
      "componentType": 5126,
      "count": 1809,
      "max": [
        1.0,
        1.0,
        1.0,
        1.0
      ],
      "min": [
        -1.0,
        -1.0,
        -1.0,
        1.0
      ],
      "type": "VEC4"
    },
    {
      "bufferView": 1,
      "byteOffset": 25408,
      "componentType": 5126,
      "count": 1809,
      "max": [
        0.9377750158309937,
        0.9379069805145264
      ],
      "min": [
        0.0019529999699443579,
        0.0019529999699443579
      ],
      "type": "VEC2"
    },
    {
      "bufferView": 0,
      "byteOffset": 57024,
      "componentType": 5125,
      "count": 7524,
      "type": "SCALAR"
    }
  ],
  "asset": {
    "extras": {
      "author": "Sousinho (https://sketchfab.com/sousinho)",
      "license": "CC-BY-4.0 (http://creativecommons.org/licenses/by/4.0/)",
      "source": "https://sketchfab.com/3d-models/post-apocalyptic-examination-table-41c14888e60b4910bd5edddf5d0d16c6",
      "title": "Post apocalyptic examination table"
    },
    "generator": "Sketchfab-14.21.0",
    "version": "2.0"
  },
  "bufferViews": [
    {
      "buffer": 0,
      "byteLength": 87120,
      "name": "floatBufferViews",
      "target": 34963
    },
    {
      "buffer": 0,
      "byteLength": 39880,
      "byteOffset": 87120,
      "byteStride": 8,
      "name": "floatBufferViews",
      "target": 34962
    },
    {
      "buffer": 0,
      "byteLength": 119640,
      "byteOffset": 127000,
      "byteStride": 12,
      "name": "floatBufferViews",
      "target": 34962
    },
    {
      "buffer": 0,
      "byteLength": 79760,
      "byteOffset": 246640,
      "byteStride": 16,
      "name": "floatBufferViews",
      "target": 34962
    }
  ],
  "buffers": [
    {
      "byteLength": 326400,
      "uri": "scene.bin"
    }
  ],
  "images": [
    {
      "uri": "textures/M_Patient_bed_1_1001_baseColor.jpeg"
    },
    {
      "uri": "textures/M_Patient_bed_1_1001_metallicRoughness.png"
    },
    {
      "uri": "textures/M_Patient_bed_1_1001_normal.png"
    }
  ],
  "materials": [
    {
      "doubleSided": true,
      "name": "M_Patient_bed_1_1001",
      "normalTexture": {
        "index": 2
      },
      "occlusionTexture": {
        "index": 1
      },
      "pbrMetallicRoughness": {
        "baseColorTexture": {
          "index": 0
        },
        "metallicRoughnessTexture": {
          "index": 1
        }
      }
    }
  ],
  "meshes": [
    {
      "name": "defaultMaterial",
      "primitives": [
        {
          "attributes": {
            "NORMAL": 1,
            "POSITION": 0,
            "TANGENT": 2,
            "TEXCOORD_0": 3
          },
          "indices": 4,
          "material": 0,
          "mode": 4
        }
      ]
    },
    {
      "name": "defaultMaterial",
      "primitives": [
        {
          "attributes": {
            "NORMAL": 6,
            "POSITION": 5,
            "TANGENT": 7,
            "TEXCOORD_0": 8
          },
          "indices": 9,
          "material": 0,
          "mode": 4
        }
      ]
    },
    {
      "name": "defaultMaterial",
      "primitives": [
        {
          "attributes": {
            "NORMAL": 11,
            "POSITION": 10,
            "TANGENT": 12,
            "TEXCOORD_0": 13
          },
          "indices": 14,
          "material": 0,
          "mode": 4
        }
      ]
    },
    {
      "name": "defaultMaterial",
      "primitives": [
        {
          "attributes": {
            "NORMAL": 16,
            "POSITION": 15,
            "TANGENT": 17,
            "TEXCOORD_0": 18
          },
          "indices": 19,
          "material": 0,
          "mode": 4
        }
      ]
    },
    {
      "name": "defaultMaterial",
      "primitives": [
        {
          "attributes": {
            "NORMAL": 21,
            "POSITION": 20,
            "TANGENT": 22,
            "TEXCOORD_0": 23
          },
          "indices": 24,
          "material": 0,
          "mode": 4
        }
      ]
    },
    {
      "name": "defaultMaterial",
      "primitives": [
        {
          "attributes": {
            "NORMAL": 26,
            "POSITION": 25,
            "TANGENT": 27,
            "TEXCOORD_0": 28
          },
          "indices": 29,
          "material": 0,
          "mode": 4
        }
      ]
    },
    {
      "name": "defaultMaterial",
      "primitives": [
        {
          "attributes": {
            "NORMAL": 31,
            "POSITION": 30,
            "TANGENT": 32,
            "TEXCOORD_0": 33
          },
          "indices": 34,
          "material": 0,
          "mode": 4
        }
      ]
    }
  ],
  "nodes": [
    {
      "children": [
        1
      ],
      "matrix": [
        1.0,
        0.0,
        0.0,
        0.0,
        0.0,
        2.220446049250313e-16,
        -1.0,
        0.0,
        0.0,
        1.0,
        2.220446049250313e-16,
        0.0,
        0.0,
        0.0,
        0.0,
        1.0
      ],
      "name": "Sketchfab_model"
    },
    {
      "children": [
        2,
        4,
        6,
        8,
        10,
        12,
        14
      ],
      "matrix": [
        1.0,
        0.0,
        0.0,
        0.0,
        0.0,
        -4.371139006309477e-08,
        0.999999999999999,
        0.0,
        0.0,
        -0.999999999999999,
        -4.371139006309477e-08,
        0.0,
        0.0,
        0.0,
        0.0,
        1.0
      ],
      "name": "Collada visual scene group"
    },
    {
      "children": [
        3
      ],
      "matrix": [
        -4e-06,
        -100.0,
        6e-06,
        0.0,
        -1.6e-05,
        -6e-06,
        -100.0,
        0.0,
        100.0,
        -4e-06,
        -1.6e-05,
        0.0,
        -46.042732,
        -11.279418,
        119.50914,
        1.0
      ],
      "name": "SM_bed_wheels.003"
    },
    {
      "mesh": 0,
      "name": "defaultMaterial"
    },
    {
      "children": [
        5
      ],
      "matrix": [
        -4e-06,
        -100.0,
        6e-06,
        0.0,
        -1.6e-05,
        -6e-06,
        -100.0,
        0.0,
        100.0,
        -4e-06,
        -1.6e-05,
        0.0,
        46.916859,
        -11.279418,
        119.50914,
        1.0
      ],
      "name": "SM_bed_wheels.002"
    },
    {
      "mesh": 1,
      "name": "defaultMaterial"
    },
    {
      "children": [
        7
      ],
      "matrix": [
        -4e-06,
        -100.0,
        6e-06,
        0.0,
        -1.6e-05,
        -6e-06,
        -100.0,
        0.0,
        100.0,
        -4e-06,
        -1.6e-05,
        0.0,
        -46.042732,
        -11.279418,
        -136.526169,
        1.0
      ],
      "name": "SM_bed_wheels.001"
    },
    {
      "mesh": 2,
      "name": "defaultMaterial"
    },
    {
      "children": [
        9
      ],
      "matrix": [
        -4e-06,
        -100.0,
        6e-06,
        0.0,
        -1.6e-05,
        -6e-06,
        -100.0,
        0.0,
        100.0,
        -4e-06,
        -1.6e-05,
        0.0,
        46.916859,
        -11.279418,
        -136.526169,
        1.0
      ],
      "name": "SM_bed_wheels"
    },
    {
      "mesh": 3,
      "name": "defaultMaterial"
    },
    {
      "children": [
        11
      ],
      "matrix": [
        100.0,
        0.0,
        0.0,
        0.0,
        0.0,
        -50.000004,
        -86.602539,
        0.0,
        0.0,
        86.602539,
        -50.000004,
        0.0,
        0.0,
        102.422127,
        80.930458,
        1.0
      ],
      "name": "SM_mattress_head"
    },
    {
      "mesh": 4,
      "name": "defaultMaterial"
    },
    {
      "children": [
        13
      ],
      "matrix": [
        100.0,
        0.0,
        0.0,
        0.0,
        0.0,
        -1.6e-05,
        -100.0,
        0.0,
        0.0,
        100.0,
        -1.6e-05,
        0.0,
        0.0,
        104.822327,
        -17.895374,
        1.0
      ],
      "name": "SM_mattress"
    },
    {
      "mesh": 5,
      "name": "defaultMaterial"
    },
    {
      "children": [
        15
      ],
      "matrix": [
        -4e-06,
        -100.0,
        6e-06,
        0.0,
        -1.6e-05,
        -6e-06,
        -100.0,
        0.0,
        100.0,
        -4e-06,
        -1.6e-05,
        0.0,
        0.412464,
        40.237282,
        -8.495581,
        1.0
      ],
      "name": "SM_bedframe"
    },
    {
      "mesh": 6,
      "name": "defaultMaterial"
    }
  ],
  "samplers": [
    {
      "magFilter": 9729,
      "minFilter": 9987,
      "wrapS": 10497,
      "wrapT": 10497
    }
  ],
  "scene": 0,
  "scenes": [
    {
      "name": "Sketchfab_Scene",
      "nodes": [
        0
      ]
    }
  ],
  "textures": [
    {
      "sampler": 0,
      "source": 0
    },
    {
      "sampler": 0,
      "source": 1
    },
    {
      "sampler": 0,
      "source": 2
    }
  ]
}
