{
  "accessors": [
    {
      "bufferView": 3,
      "componentType": 5126,
      "count": 3014,
      "max": [
        57.5350456237793,
        239.88804626464844,
        62.35204315185547
      ],
      "min": [
        -61.53107833862305,
        -0.9996359348297119,
        -57.51466369628906
      ],
      "type": "VEC3"
    },
    {
      "bufferView": 3,
      "byteOffset": 36168,
      "componentType": 5126,
      "count": 3014,
      "max": [
        0.9998621344566345,
        0.9998657703399658,
        0.9998183846473694
      ],
      "min": [
        -0.9999675750732422,
        -0.999962568283081,
        -0.9996750354766846
      ],
      "type": "VEC3"
    },
    {
      "bufferView": 4,
      "componentType": 5126,
      "count": 3014,
      "max": [
        0.9997345805168152,
        0.9999948740005493,
        0.9991217255592346,
        1.0
      ],
      "min": [
        -0.9998700618743896,
        -0.9991105794906616,
        -0.9999150633811951,
        -1.0
      ],
      "type": "VEC4"
    },
    {
      "bufferView": 2,
      "componentType": 5126,
      "count": 3014,
      "max": [
        0.9985352158546448,
        0.9921875
      ],
      "min": [
        0.0012912750244140625,
        0.004936199635267258
      ],
      "type": "VEC2"
    },
    {
      "bufferView": 1,
      "componentType": 5125,
      "count": 12132,
      "type": "SCALAR"
    },
    {
      "bufferView": 5,
      "componentType": 5126,
      "count": 48,
      "max": [
        1.0,
        0.9997007250785828,
        0.9997014403343201,
        0.0,
        0.9989842772483826,
        1.0,
        1.0,
        0.0,
        0.9990333318710327,
        0.9990335702896118,
        1.0,
        0.0,
        87.60643005371094,
        175.93507385253906,
        115.01226043701172,
        1.0
      ],
      "min": [
        -0.9729620218276978,
        -0.9723809361457825,
        -0.9853230714797974,
        0.0,
        -0.9996631741523743,
        -0.9986748099327087,
        -0.9920494556427002,
        0.0,
        -0.9889843463897705,
        -1.0,
        -0.8250294923782349,
        0.0,
        -180.1492462158203,
        -172.24258422851563,
        -118.4262466430664,
        1.0
      ],
      "type": "MAT4"
    },
    {
      "bufferView": 0,
      "componentType": 5123,
      "count": 3014,
      "type": "VEC4"
    },
    {
      "bufferView": 4,
      "byteOffset": 48224,
      "componentType": 5126,
      "count": 3014,
      "max": [
        1.0,
        0.49803921580314636,
        0.2980392277240753,
        0.19607843458652496
      ],
      "min": [
        0.32549020648002625,
        0.0,
        0.0,
        0.0
      ],
      "type": "VEC4"
    },
    {
      "bufferView": 6,
      "componentType": 5126,
      "count": 384,
      "max": [
        12.766666412353516
      ],
      "min": [
        0.0
      ],
      "type": "SCALAR"
    },
    {
      "bufferView": 7,
      "componentType": 5126,
      "count": 384,
      "max": [
        1.485870599746704,
        2.6678383350372314,
        52.8814811706543
      ],
      "min": [
        -2.301022529602051,
        -0.6318436861038208,
        52.61664581298828
      ],
      "type": "VEC3"
    },
    {
      "bufferView": 6,
      "byteOffset": 1536,
      "componentType": 5126,
      "count": 384,
      "max": [
        12.766666412353516
      ],
      "min": [
        0.0
      ],
      "type": "SCALAR"
    },
    {
      "bufferView": 8,
      "componentType": 5126,
      "count": 384,
      "max": [
        0.03445504233241081,
        0.015575681813061237,
        0.7114890217781067,
        0.7604710459709167
      ],
      "min": [
        -0.016318170353770256,
        -0.018564021214842796,
        -0.759217381477356,
        -0.7199110984802246
      ],
      "type": "VEC4"
    },
    {
      "bufferView": 6,
      "byteOffset": 3072,
      "componentType": 5126,
      "count": 384,
      "max": [
        12.766666412353516
      ],
      "min": [
        0.0
      ],
      "type": "SCALAR"
    },
    {
      "bufferView": 8,
      "byteOffset": 6144,
      "componentType": 5126,
      "count": 384,
      "max": [
        0.10651012510061264,
        0.9788243770599365,
        -0.18188293278217316,
        0.06148765981197357
      ],
      "min": [
        0.06063194200396538,
        0.9625824689865112,
        -0.24873973429203033,
        0.007815544493496418
      ],
      "type": "VEC4"
    },
    {
      "bufferView": 6,
      "byteOffset": 4608,
      "componentType": 5126,
      "count": 379,
      "max": [
        12.766666412353516
      ],
      "min": [
        0.0
      ],
      "type": "SCALAR"
    },
    {
      "bufferView": 8,
      "byteOffset": 12288,
      "componentType": 5126,
      "count": 379,
      "max": [
        -7.76926611933959e-09,
        -1.5696105037932284e-07,
        -0.0013811023673042655,
        0.9999990463256836
      ],
      "min": [
        -2.7545436154241543e-08,
        -1.59170227220784e-07,
        -0.1259961724281311,
        0.9920307397842407
      ],
      "type": "VEC4"
    },
    {
      "bufferView": 6,
      "byteOffset": 6124,
      "componentType": 5126,
      "count": 384,
      "max": [
        12.766666412353516
      ],
      "min": [
        0.0
      ],
      "type": "SCALAR"
    },
    {
      "bufferView": 8,
      "byteOffset": 18352,
      "componentType": 5126,
      "count": 384,
      "max": [
        0.12145253270864487,
        0.02288116328418255,
        0.06728332489728928,
        0.9972414374351501
      ],
      "min": [
        -0.09589637070894241,
        -0.02370602637529373,
        -0.0566086582839489,
        -0.9974835515022278
      ],
      "type": "VEC4"
    },
    {
      "bufferView": 6,
      "byteOffset": 7660,
      "componentType": 5126,
      "count": 384,
      "max": [
        12.766666412353516
      ],
      "min": [
        0.0
      ],
      "type": "SCALAR"
    },
    {
      "bufferView": 8,
      "byteOffset": 24496,
      "componentType": 5126,
      "count": 384,
      "max": [
        0.008763683028519154,
        0.004846220836043358,
        -0.7291551828384399,
        -0.6763608455657959
      ],
      "min": [
        0.004326723050326109,
        -0.0012421883875504136,
        -0.7365451455116272,
        -0.6842920780181885
      ],
      "type": "VEC4"
    },
    {
      "bufferView": 6,
      "byteOffset": 9196,
      "componentType": 5126,
      "count": 384,
      "max": [
        12.766666412353516
      ],
      "min": [
        0.0
      ],
      "type": "SCALAR"
    },
    {
      "bufferView": 8,
      "byteOffset": 30640,
      "componentType": 5126,
      "count": 384,
      "max": [
        0.13895152509212494,
        0.994678258895874,
        0.11708565056324005,
        -0.00889492966234684
      ],
      "min": [
        0.08126673847436905,
        0.9873431324958801,
        0.04507110267877579,
        -0.05961432680487633
      ],
      "type": "VEC4"
    },
    {
      "bufferView": 6,
      "byteOffset": 10732,
      "componentType": 5126,
      "count": 382,
      "max": [
        12.766666412353516
      ],
      "min": [
        0.0
      ],
      "type": "SCALAR"
    },
    {
      "bufferView": 8,
      "byteOffset": 36784,
      "componentType": 5126,
      "count": 382,
      "max": [
        -4.554103760767703e-09,
        -1.460192606828059e-07,
        -0.0013811143580824137,
        0.9999990463256836
      ],
      "min": [
        -3.161903094905938e-08,
        -1.4933401359940035e-07,
        -0.18310335278511047,
        0.9830936789512634
      ],
      "type": "VEC4"
    },
    {
      "bufferView": 6,
      "byteOffset": 12260,
      "componentType": 5126,
      "count": 384,
      "max": [
        12.766666412353516
      ],
      "min": [
        0.0
      ],
      "type": "SCALAR"
    },
    {
      "bufferView": 8,
      "byteOffset": 42896,
      "componentType": 5126,
      "count": 384,
      "max": [
        0.030525140464305878,
        0.019368808716535568,
        0.08706382662057877,
        0.9999975562095642
      ],
      "min": [
        -0.05786224827170372,
        -0.01422941591590643,
        -0.07388348132371902,
        -0.9999638199806213
      ],
      "type": "VEC4"
    },
    {
      "bufferView": 6,
      "byteOffset": 13796,
      "componentType": 5126,
      "count": 384,
      "max": [
        12.766666412353516
      ],
      "min": [
        0.0
      ],
      "type": "SCALAR"
    },
    {
      "bufferView": 8,
      "byteOffset": 49040,
      "componentType": 5126,
      "count": 384,
      "max": [
        0.01032100711017847,
        0.004227458965033293,
        0.7406805157661438,
        0.6839175224304199
      ],
      "min": [
        0.004634585697203875,
        -0.0074203223921358585,
        0.7295088768005371,
        0.6718276739120483
      ],
      "type": "VEC4"
    },
    {
      "bufferView": 6,
      "byteOffset": 15332,
      "componentType": 5126,
      "count": 384,
      "max": [
        12.766666412353516
      ],
      "min": [
        0.0
      ],
      "type": "SCALAR"
    },
    {
      "bufferView": 8,
      "byteOffset": 55184,
      "componentType": 5126,
      "count": 384,
      "max": [
        0.00686056911945343,
        -0.003633460495620966,
        0.04937726631760597,
        -0.9985471963882446
      ],
      "min": [
        -0.013941544108092785,
        -0.018912820145487785,
        0.04905593395233154,
        -0.9987644553184509
      ],
      "type": "VEC4"
    },
    {
      "bufferView": 6,
      "byteOffset": 16868,
      "componentType": 5126,
      "count": 384,
      "max": [
        12.766666412353516
      ],
      "min": [
        0.0
      ],
      "type": "SCALAR"
    },
    {
      "bufferView": 8,
      "byteOffset": 61328,
      "componentType": 5126,
      "count": 384,
      "max": [
        0.020249707624316216,
        0.010804470628499985,
        0.087789386510849,
        0.9975520968437195
      ],
      "min": [
        -0.020041033625602722,
        -0.0006055274279788136,
        -0.08524178713560104,
        -0.9980980753898621
      ],
      "type": "VEC4"
    },
    {
      "bufferView": 6,
      "byteOffset": 18404,
      "componentType": 5126,
      "count": 384,
      "max": [
        12.766666412353516
      ],
      "min": [
        0.0
      ],
      "type": "SCALAR"
    },
    {
      "bufferView": 8,
      "byteOffset": 67472,
      "componentType": 5126,
      "count": 384,
      "max": [
        0.6970574855804443,
        0.08638884872198105,
        -0.708099365234375,
        -0.06843332946300507
      ],
      "min": [
        0.691923201084137,
        0.06947773694992065,
        -0.7153071165084839,
        -0.08496962487697601
      ],
      "type": "VEC4"
    },
    {
      "bufferView": 6,
      "byteOffset": 19940,
      "componentType": 5126,
      "count": 384,
      "max": [
        12.766666412353516
      ],
      "min": [
        0.0
      ],
      "type": "SCALAR"
    },
    {
      "bufferView": 8,
      "byteOffset": 73616,
      "componentType": 5126,
      "count": 384,
      "max": [
        0.5011674761772156,
        -0.34293749928474426,
        -0.20561017096042633,
        0.7703649997711182
      ],
      "min": [
        0.4859963059425354,
        -0.3549150824546814,
        -0.23155799508094788,
        0.7612064480781555
      ],
      "type": "VEC4"
    },
    {
      "bufferView": 6,
      "byteOffset": 21476,
      "componentType": 5126,
      "count": 384,
      "max": [
        12.766666412353516
      ],
      "min": [
        0.0
      ],
      "type": "SCALAR"
    },
    {
      "bufferView": 8,
      "byteOffset": 79760,
      "componentType": 5126,
      "count": 384,
      "max": [
        7.944364455170216e-08,
        7.123638567918533e-08,
        0.9270095229148865,
        -0.3750378489494324
      ],
      "min": [
        7.875424046233093e-08,
        7.046672578780999e-08,
        0.923316478729248,
        -0.3840399980545044
      ],
      "type": "VEC4"
    },
    {
      "bufferView": 6,
      "byteOffset": 23012,
      "componentType": 5126,
      "count": 384,
      "max": [
        12.766666412353516
      ],
      "min": [
        0.0
      ],
      "type": "SCALAR"
    },
    {
      "bufferView": 8,
      "byteOffset": 85904,
      "componentType": 5126,
      "count": 384,
      "max": [
        0.942803144454956,
        0.10279551893472672,
        0.20017844438552856,
        -0.25734764337539673
      ],
      "min": [
        0.935415506362915,
        0.0919744148850441,
        0.18136681616306305,
        -0.2772497832775116
      ],
      "type": "VEC4"
    },
    {
      "bufferView": 6,
      "byteOffset": 24548,
      "componentType": 5126,
      "count": 384,
      "max": [
        12.766666412353516
      ],
      "min": [
        0.0
      ],
      "type": "SCALAR"
    },
    {
      "bufferView": 8,
      "byteOffset": 92048,
      "componentType": 5126,
      "count": 384,
      "max": [
        0.696657121181488,
        0.08966958522796631,
        0.7158175706863403,
        0.08815369755029678
      ],
      "min": [
        0.6903553605079651,
        0.06380642205476761,
        0.7082453966140747,
        0.06208261474967003
      ],
      "type": "VEC4"
    },
    {
      "bufferView": 6,
      "byteOffset": 26084,
      "componentType": 5126,
      "count": 384,
      "max": [
        12.766666412353516
      ],
      "min": [
        0.0
      ],
      "type": "SCALAR"
    },
    {
      "bufferView": 8,
      "byteOffset": 98192,
      "componentType": 5126,
      "count": 384,
      "max": [
        0.3557734191417694,
        -0.3854597806930542,
        0.16894885897636414,
        -0.8365456461906433
      ],
      "min": [
        0.3180190324783325,
        -0.4020693004131317,
        0.11941341310739517,
        -0.8470889925956726
      ],
      "type": "VEC4"
    },
    {
      "bufferView": 6,
      "byteOffset": 27620,
      "componentType": 5126,
      "count": 384,
      "max": [
        12.766666412353516
      ],
      "min": [
        0.0
      ],
      "type": "SCALAR"
    },
    {
      "bufferView": 8,
      "byteOffset": 104336,
      "componentType": 5126,
      "count": 384,
      "max": [
        0.9653395414352417,
        0.021709119901061058,
        -0.16261674463748932,
        0.21365001797676086
      ],
      "min": [
        0.9598978161811829,
        0.004564602393656969,
        -0.18689055740833282,
        0.19366145133972168
      ],
      "type": "VEC4"
    },
    {
      "bufferView": 6,
      "byteOffset": 29156,
      "componentType": 5126,
      "count": 377,
      "max": [
        12.766666412353516
      ],
      "min": [
        0.0
      ],
      "type": "SCALAR"
    },
    {
      "bufferView": 8,
      "byteOffset": 110480,
      "componentType": 5126,
      "count": 377,
      "max": [
        1.6525025785085745e-05,
        1.0424170795886312e-05,
        0.5331851840019226,
        0.8459985256195068
      ],
      "min": [
        -3.318736787605303e-07,
        -2.449368423640408e-07,
        -0.5331851840019226,
        -0.8459985256195068
      ],
      "type": "VEC4"
    },
    {
      "bufferView": 6,
      "byteOffset": 30664,
      "componentType": 5126,
      "count": 384,
      "max": [
        12.766666412353516
      ],
      "min": [
        0.0
      ],
      "type": "SCALAR"
    },
    {
      "bufferView": 8,
      "byteOffset": 116512,
      "componentType": 5126,
      "count": 384,
      "max": [
        0.03154662251472473,
        0.033590275794267654,
        0.1976402848958969,
        0.9841979742050171
      ],
      "min": [
        -0.018005995079874992,
        -0.0020363156218081713,
        -0.1879737675189972,
        -0.984156608581543
      ],
      "type": "VEC4"
    },
    {
      "bufferView": 6,
      "byteOffset": 32200,
      "componentType": 5126,
      "count": 384,
      "max": [
        12.766666412353516
      ],
      "min": [
        0.0
      ],
      "type": "SCALAR"
    },
    {
      "bufferView": 8,
      "byteOffset": 122656,
      "componentType": 5126,
      "count": 384,
      "max": [
        0.12358367443084717,
        0.016387401148676872,
        0.22530920803546906,
        0.9863700866699219
      ],
      "min": [
        -0.03123590722680092,
        -0.10059620440006256,
        -0.2145611196756363,
        -0.9860767722129822
      ],
      "type": "VEC4"
    },
    {
      "bufferView": 6,
      "byteOffset": 33736,
      "componentType": 5126,
      "count": 384,
      "max": [
        12.766666412353516
      ],
      "min": [
        0.0
      ],
      "type": "SCALAR"
    },
    {
      "bufferView": 8,
      "byteOffset": 128800,
      "componentType": 5126,
      "count": 384,
      "max": [
        0.7945215702056885,
        0.6747649908065796,
        0.12057793885469437,
        -0.11710087209939957
      ],
      "min": [
        0.7060470581054688,
        0.5941486358642578,
        0.044443029910326004,
        -0.17790649831295013
      ],
      "type": "VEC4"
    },
    {
      "bufferView": 6,
      "byteOffset": 35272,
      "componentType": 5126,
      "count": 384,
      "max": [
        12.766666412353516
      ],
      "min": [
        0.0
      ],
      "type": "SCALAR"
    },
    {
      "bufferView": 8,
      "byteOffset": 134944,
      "componentType": 5126,
      "count": 384,
      "max": [
        0.1949182003736496,
        -0.06303063780069351,
        0.803798258304596,
        -0.5907540321350098
      ],
      "min": [
        -0.07402276992797852,
        -0.08302603662014008,
        0.5680215954780579,
        -0.7968890070915222
      ],
      "type": "VEC4"
    },
    {
      "bufferView": 6,
      "byteOffset": 36808,
      "componentType": 5126,
      "count": 384,
      "max": [
        12.766666412353516
      ],
      "min": [
        0.0
      ],
      "type": "SCALAR"
    },
    {
      "bufferView": 8,
      "byteOffset": 141088,
      "componentType": 5126,
      "count": 384,
      "max": [
        2.631644065331784e-06,
        5.1785423238470685e-06,
        0.668343186378479,
        0.7438530325889587
      ],
      "min": [
        -9.748222282723873e-07,
        -9.009380050883919e-07,
        -0.668343186378479,
        -0.7438530325889587
      ],
      "type": "VEC4"
    }
  ],
  "animations": [
    {
      "channels": [
        {
          "sampler": 0,
          "target": {
            "node": 11,
            "path": "translation"
          }
        },
        {
          "sampler": 1,
          "target": {
            "node": 11,
            "path": "rotation"
          }
        },
        {
          "sampler": 2,
          "target": {
            "node": 51,
            "path": "rotation"
          }
        },
        {
          "sampler": 3,
          "target": {
            "node": 52,
            "path": "rotation"
          }
        },
        {
          "sampler": 4,
          "target": {
            "node": 53,
            "path": "rotation"
          }
        },
        {
          "sampler": 5,
          "target": {
            "node": 54,
            "path": "rotation"
          }
        },
        {
          "sampler": 6,
          "target": {
            "node": 47,
            "path": "rotation"
          }
        },
        {
          "sampler": 7,
          "target": {
            "node": 48,
            "path": "rotation"
          }
        },
        {
          "sampler": 8,
          "target": {
            "node": 49,
            "path": "rotation"
          }
        },
        {
          "sampler": 9,
          "target": {
            "node": 50,
            "path": "rotation"
          }
        },
        {
          "sampler": 10,
          "target": {
            "node": 13,
            "path": "rotation"
          }
        },
        {
          "sampler": 11,
          "target": {
            "node": 14,
            "path": "rotation"
          }
        },
        {
          "sampler": 12,
          "target": {
            "node": 37,
            "path": "rotation"
          }
        },
        {
          "sampler": 13,
          "target": {
            "node": 38,
            "path": "rotation"
          }
        },
        {
          "sampler": 14,
          "target": {
            "node": 39,
            "path": "rotation"
          }
        },
        {
          "sampler": 15,
          "target": {
            "node": 40,
            "path": "rotation"
          }
        },
        {
          "sampler": 16,
          "target": {
            "node": 27,
            "path": "rotation"
          }
        },
        {
          "sampler": 17,
          "target": {
            "node": 28,
            "path": "rotation"
          }
        },
        {
          "sampler": 18,
          "target": {
            "node": 30,
            "path": "rotation"
          }
        },
        {
          "sampler": 19,
          "target": {
            "node": 34,
            "path": "rotation"
          }
        },
        {
          "sampler": 20,
          "target": {
            "node": 15,
            "path": "rotation"
          }
        },
        {
          "sampler": 21,
          "target": {
            "node": 16,
            "path": "rotation"
          }
        },
        {
          "sampler": 22,
          "target": {
            "node": 26,
            "path": "rotation"
          }
        },
        {
          "sampler": 23,
          "target": {
            "node": 25,
            "path": "rotation"
          }
        },
        {
          "sampler": 24,
          "target": {
            "node": 18,
            "path": "rotation"
          }
        }
      ],
      "name": "GltfAnimation 0",
      "samplers": [
        {
          "input": 8,
          "interpolation": "LINEAR",
          "output": 9
        },
        {
          "input": 10,
          "interpolation": "LINEAR",
          "output": 11
        },
        {
          "input": 12,
          "interpolation": "LINEAR",
          "output": 13
        },
        {
          "input": 14,
          "interpolation": "LINEAR",
          "output": 15
        },
        {
          "input": 16,
          "interpolation": "LINEAR",
          "output": 17
        },
        {
          "input": 18,
          "interpolation": "LINEAR",
          "output": 19
        },
        {
          "input": 20,
          "interpolation": "LINEAR",
          "output": 21
        },
        {
          "input": 22,
          "interpolation": "LINEAR",
          "output": 23
        },
        {
          "input": 24,
          "interpolation": "LINEAR",
          "output": 25
        },
        {
          "input": 26,
          "interpolation": "LINEAR",
          "output": 27
        },
        {
          "input": 28,
          "interpolation": "LINEAR",
          "output": 29
        },
        {
          "input": 30,
          "interpolation": "LINEAR",
          "output": 31
        },
        {
          "input": 32,
          "interpolation": "LINEAR",
          "output": 33
        },
        {
          "input": 34,
          "interpolation": "LINEAR",
          "output": 35
        },
        {
          "input": 36,
          "interpolation": "LINEAR",
          "output": 37
        },
        {
          "input": 38,
          "interpolation": "LINEAR",
          "output": 39
        },
        {
          "input": 40,
          "interpolation": "LINEAR",
          "output": 41
        },
        {
          "input": 42,
          "interpolation": "LINEAR",
          "output": 43
        },
        {
          "input": 44,
          "interpolation": "LINEAR",
          "output": 45
        },
        {
          "input": 46,
          "interpolation": "LINEAR",
          "output": 47
        },
        {
          "input": 48,
          "interpolation": "LINEAR",
          "output": 49
        },
        {
          "input": 50,
          "interpolation": "LINEAR",
          "output": 51
        },
        {
          "input": 52,
          "interpolation": "LINEAR",
          "output": 53
        },
        {
          "input": 54,
          "interpolation": "LINEAR",
          "output": 55
        },
        {
          "input": 56,
          "interpolation": "LINEAR",
          "output": 57
        }
      ]
    }
  ],
  "asset": {
    "extras": {
      "author": "LostBoyz2078 (https://sketchfab.com/LostModels2025)",
      "license": "CC-BY-NC-4.0 (http://creativecommons.org/licenses/by-nc/4.0/)",
      "source": "https://sketchfab.com/3d-models/horror-kid-0cebfd4b5dbc429b91ba026223a5bcc8",
      "title": "Horror Kid"
    },
    "generator": "Sketchfab-15.38.0",
    "version": "2.0"
  },
  "bufferViews": [
    {
      "buffer": 0,
      "byteLength": 24112,
      "byteStride": 8,
      "name": "shortBufferViews",
      "target": 34962
    },
    {
      "buffer": 0,
      "byteLength": 48528,
      "byteOffset": 24112,
      "name": "floatBufferViews",
      "target": 34963
    },
    {
      "buffer": 0,
      "byteLength": 24112,
      "byteOffset": 72640,
      "byteStride": 8,
      "name": "floatBufferViews",
      "target": 34962
    },
    {
      "buffer": 0,
      "byteLength": 72336,
      "byteOffset": 96752,
      "byteStride": 12,
      "name": "floatBufferViews",
      "target": 34962
    },
    {
      "buffer": 0,
      "byteLength": 96448,
      "byteOffset": 169088,
      "byteStride": 16,
      "name": "floatBufferViews",
      "target": 34962
    },
    {
      "buffer": 0,
      "byteLength": 3072,
      "byteOffset": 265536,
      "name": "floatBufferViews"
    },
    {
      "buffer": 0,
      "byteLength": 38344,
      "byteOffset": 268608,
      "name": "floatBufferViews"
    },
    {
      "buffer": 0,
      "byteLength": 4608,
      "byteOffset": 306952,
      "byteStride": 12,
      "name": "floatBufferViews"
    },
    {
      "buffer": 0,
      "byteLength": 147232,
      "byteOffset": 311560,
      "byteStride": 16,
      "name": "floatBufferViews"
    }
  ],
  "buffers": [
    {
      "byteLength": 458792,
      "uri": "scene.bin"
    }
  ],
  "images": [
    {
      "uri": "textures/InsaneKidB_XXX_Mat_INST_baseColor.png"
    },
    {
      "uri": "textures/InsaneKidB_XXX_Mat_INST_normal.jpeg"
    }
  ],
  "materials": [
    {
      "alphaMode": "BLEND",
      "name": "InsaneKidB_XXX_Mat_INST",
      "normalTexture": {
        "index": 1
      },
      "pbrMetallicRoughness": {
        "baseColorFactor": [
          0.8,
          0.8,
          0.8,
          1.0
        ],
        "baseColorTexture": {
          "index": 0
        },
        "metallicFactor": 0.0,
        "roughnessFactor": 0.5
      }
    }
  ],
  "meshes": [
    {
      "name": "Object_0",
      "primitives": [
        {
          "attributes": {
            "JOINTS_0": 6,
            "NORMAL": 1,
            "POSITION": 0,
            "TANGENT": 2,
            "TEXCOORD_0": 3,
            "TEXCOORD_1": 3,
            "WEIGHTS_0": 7
          },
          "indices": 4,
          "material": 0,
          "mode": 4
        }
      ]
    }
  ],
  "nodes": [
    {
      "children": [
        1
      ],
      "matrix": [
        1.0,
        0.0,
        0.0,
        0.0,
        0.0,
        2.220446049250313e-16,
        -1.0,
        0.0,
        0.0,
        1.0,
        2.220446049250313e-16,
        0.0,
        0.0,
        0.0,
        0.0,
        1.0
      ],
      "name": "Sketchfab_model"
    },
    {
      "children": [
        2
      ],
      "name": "root"
    },
    {
      "children": [
        3
      ],
      "matrix": [
        1.0,
        0.0,
        0.0,
        0.0,
        0.0,
        2.220446049250313e-16,
        1.0,
        0.0,
        0.0,
        -1.0,
        2.220446049250313e-16,
        0.0,
        0.0,
        0.0,
        0.0,
        1.0
      ],
      "name": "GLTF_SceneRootNode"
    },
    {
      "children": [
        4,
        7,
        5
      ],
      "name": "GLTF_created_0"
    },
    {
      "children": [
        8
      ],
      "name": "GLTF_created_0_rootJoint"
    },
    {
      "children": [
        6
      ],
      "matrix": [
        1.0,
        0.0,
        0.0,
        0.0,
        0.0,
        0.0,
        -1.0,
        0.0,
        0.0,
        1.0,
        0.0,
        0.0,
        0.0,
        0.0,
        0.0,
        1.0
      ],
      "name": "SK_InsaneKidB_1"
    },
    {
      "name": "SK_InsaneKidB_2"
    },
    {
      "mesh": 0,
      "name": "Object_7",
      "skin": 0
    },
    {
      "children": [
        9,
        10,
        11
      ],
      "name": "idle_3",
      "rotation": [
        0.7071068286895752,
        0.0,
        0.0,
        -0.7071068286895752
      ]
    },
    {
      "name": "RefBox_49",
      "rotation": [
        0.0,
        0.0,
        0.0,
        -1.0
      ]
    },
    {
      "name": "Refbox_Align_48",
      "rotation": [
        0.0,
        0.0,
        0.0,
        -1.0
      ]
    },
    {
      "children": [
        12
      ],
      "name": "Bip01_4",
      "rotation": [
        0.023767022415995598,
        0.007020170800387859,
        -0.7090548276901245,
        0.704717755317688
      ],
      "scale": [
        1.0,
        1.0,
        0.9999997019767761
      ],
      "translation": [
        0.0,
        0.0,
        52.80573272705078
      ]
    },
    {
      "children": [
        13,
        47,
        51
      ],
      "name": "Bip01_Pelvis_5",
      "rotation": [
        0.5000003576278687,
        0.49999964237213135,
        0.49999964237213135,
        -0.5000003576278687
      ],
      "scale": [
        1.0,
        0.9999997019767761,
        0.9999992847442627
      ]
    },
    {
      "children": [
        14
      ],
      "name": "Bip01_Spine_14",
      "rotation": [
        -0.0034195748157799244,
        -0.01218830980360508,
        0.04920470342040062,
        -0.9987084865570068
      ],
      "scale": [
        1.0,
        0.9999999403953552,
        1.0000001192092896
      ],
      "translation": [
        12.25459098815918,
        2.2858948707580566,
        -7.539507350884378e-05
      ]
    },
    {
      "children": [
        15,
        27,
        37
      ],
      "name": "Bip01_Spine1_15",
      "rotation": [
        -0.00586590776219964,
        0.0007438199827447534,
        0.07668903470039368,
        0.9970375299453735
      ],
      "scale": [
        0.9999997019767761,
        0.9999996423721313,
        0.9999997019767761
      ],
      "translation": [
        18.019336700439453,
        -0.028739769011735916,
        0.00033700725180096924
      ]
    },
    {
      "children": [
        16
      ],
      "name": "Bip01_Neck_36",
      "rotation": [
        -0.009848481975495815,
        0.002833945443853736,
        0.17927226424217224,
        0.9837462306022644
      ],
      "scale": [
        1.000000238418579,
        1.0000001192092896,
        1.0000001192092896
      ],
      "translation": [
        42.39518737792969,
        -4.172183513641357,
        0.00021772293257527053
      ]
    },
    {
      "children": [
        17,
        18,
        19,
        20,
        21,
        22,
        23,
        24,
        25,
        26
      ],
      "name": "Bip01_Head_37",
      "rotation": [
        -0.015857528895139694,
        -0.004690144676715136,
        -0.19637081027030945,
        0.9803902506828308
      ],
      "scale": [
        0.9999996423721313,
        0.9999997019767761,
        0.9999997019767761
      ],
      "translation": [
        16.217313766479492,
        9.689338185125962e-06,
        -2.1195410226937383e-06
      ]
    },
    {
      "name": "Facial_EyeLids_Up_47",
      "rotation": [
        1.133370588490834e-07,
        1.959159590114723e-06,
        -0.6407867670059204,
        -0.7677189111709595
      ],
      "scale": [
        1.0000001192092896,
        0.9999998807907104,
        0.9999997615814209
      ],
      "translation": [
        36.980342864990234,
        15.760196685791016,
        1.1260890460107476e-05
      ]
    },
    {
      "name": "Facial_EyeAim_46",
      "rotation": [
        1.0402492023331433e-07,
        2.338785634492524e-06,
        -0.6683432459831238,
        -0.7438530921936035
      ],
      "scale": [
        1.0000001192092896,
        0.9999999403953552,
        1.0
      ],
      "translation": [
        44.920570373535156,
        77.46255493164063,
        -1.811797022819519
      ]
    },
    {
      "name": "Facial_Cheek_Low_R_45",
      "rotation": [
        0.7468977570533752,
        -0.4736202657222748,
        -0.32969188690185547,
        -0.33034953474998474
      ],
      "scale": [
        1.0000001192092896,
        1.0000001192092896,
        0.9999998211860657
      ],
      "translation": [
        10.515522956848145,
        25.641199111938477,
        -10.6293363571167
      ]
    },
    {
      "name": "Facial_Jaw_44",
      "rotation": [
        3.677924951261957e-07,
        2.1970165562379407e-06,
        -0.8810983896255493,
        -0.4729330241680145
      ],
      "scale": [
        1.000000238418579,
        1.0000001192092896,
        0.9999999403953552
      ],
      "translation": [
        17.658817291259766,
        -0.2829521894454956,
        -2.2704976800014265e-05
      ]
    },
    {
      "name": "Facial_Lip_Upper_C_43",
      "rotation": [
        8.99591654501819e-08,
        2.2465185338660376e-06,
        -0.8091047406196594,
        -0.5876644849777222
      ],
      "scale": [
        1.000000238418579,
        0.9999999403953552,
        1.000000238418579
      ],
      "translation": [
        15.694296836853027,
        31.178373336791992,
        1.1929409993172158e-05
      ]
    },
    {
      "name": "Facial_Eyebrow_M_42",
      "rotation": [
        8.989014332883016e-08,
        -1.4973754502989323e-07,
        -0.01717134565114975,
        0.9998526573181152
      ],
      "scale": [
        0.9999999403953552,
        0.9999998807907104,
        0.9999999403953552
      ],
      "translation": [
        41.16032028198242,
        35.8166389465332,
        -0.3526521325111389
      ]
    },
    {
      "name": "Facial_Cheek_Low_L_41",
      "rotation": [
        0.7468974590301514,
        -0.4736224114894867,
        0.3296889662742615,
        0.3303501307964325
      ],
      "scale": [
        1.0000003576278687,
        1.0000001192092896,
        1.0000001192092896
      ],
      "translation": [
        10.515522956848145,
        25.64114761352539,
        10.629480361938477
      ]
    },
    {
      "name": "Facial_EyeLids_Low_40",
      "rotation": [
        1.9481082347283518e-07,
        2.2292269932222553e-06,
        -0.8387784361839294,
        -0.5444729328155518
      ],
      "scale": [
        0.9999998807907104,
        0.9999995827674866,
        0.9999998807907104
      ],
      "translation": [
        37.895198822021484,
        17.4342041015625,
        2.6979927497450262e-05
      ]
    },
    {
      "name": "Facial_Eye_R_39",
      "rotation": [
        -0.05091958865523338,
        -0.0680437907576561,
        0.7606495022773743,
        -0.6435756087303162
      ],
      "scale": [
        1.0000001192092896,
        1.0,
        1.0000001192092896
      ],
      "translation": [
        37.71862030029297,
        24.38268280029297,
        -17.66592788696289
      ]
    },
    {
      "name": "Facial_Eye_L_38",
      "rotation": [
        0.7758694291114807,
        0.6081467866897583,
        0.08948343247175217,
        -0.14204531908035278
      ],
      "scale": [
        1.000000238418579,
        0.9999998807907104,
        1.0
      ],
      "translation": [
        37.41239929199219,
        23.70458984375,
        12.881002426147461
      ]
    },
    {
      "children": [
        28
      ],
      "name": "Bip01_L_Clavicle_26",
      "rotation": [
        0.6942046284675598,
        0.08102519810199738,
        0.710749626159668,
        0.07968607544898987
      ],
      "scale": [
        1.000000238418579,
        1.000000238418579,
        0.9999998211860657
      ],
      "translation": [
        35.62647247314453,
        -2.042776107788086,
        6.888959884643555
      ]
    },
    {
      "children": [
        29
      ],
      "name": "Bip01_L_UpperArm_27",
      "rotation": [
        0.34277036786079407,
        -0.393532395362854,
        0.13769273459911346,
        -0.8418323397636414
      ],
      "scale": [
        0.9999998807907104,
        1.0,
        0.9999996423721313
      ],
      "translation": [
        13.490610122680664,
        -2.422331817797385e-06,
        -1.9378650904400274e-05
      ]
    },
    {
      "children": [
        30
      ],
      "name": "Bip01_L_Forearm_28",
      "rotation": [
        3.905425671746343e-08,
        8.281358931938598e-10,
        0.9346921443939209,
        -0.3554585576057434
      ],
      "scale": [
        0.9999996423721313,
        1.0,
        0.9999998807907104
      ],
      "translation": [
        27.392351150512695,
        4.84466863781563e-06,
        -4.844668183068279e-06
      ]
    },
    {
      "children": [
        31,
        33,
        35
      ],
      "name": "Bip01_L_Hand_29",
      "rotation": [
        0.9610563516616821,
        0.014287901110947132,
        -0.1821811944246292,
        0.20730799436569214
      ],
      "scale": [
        0.9999999403953552,
        1.0000001192092896,
        0.9999997019767761
      ],
      "translation": [
        17.38357925415039,
        2.422331817797385e-06,
        -4.844669547310332e-06
      ]
    },
    {
      "children": [
        32
      ],
      "name": "Bip01_L_Finger0_34",
      "rotation": [
        0.6638379096984863,
        0.5752680897712708,
        0.13954973220825195,
        0.4570685923099518
      ],
      "scale": [
        0.9999996423721313,
        1.0000008344650269,
        0.999999463558197
      ],
      "translation": [
        5.790173053741455,
        1.8276063203811646,
        -3.9443225860595703
      ]
    },
    {
      "name": "Bip01_L_Finger01_35",
      "rotation": [
        2.600639259497939e-09,
        1.6854767181939678e-07,
        -0.24736861884593964,
        -0.968921422958374
      ],
      "scale": [
        0.9999998807907104,
        1.0000001192092896,
        0.9999998211860657
      ],
      "translation": [
        3.221238136291504,
        4.844670002057683e-06,
        9.689338185125962e-06
      ]
    },
    {
      "children": [
        34
      ],
      "name": "Bip01_L_Finger1_32",
      "rotation": [
        0.061640169471502304,
        0.006263849325478077,
        0.34463974833488464,
        0.9366881251335144
      ],
      "scale": [
        0.9999998211860657,
        1.0000003576278687,
        0.9999999403953552
      ],
      "translation": [
        10.865575790405273,
        -0.48475727438926697,
        -2.4381167888641357
      ]
    },
    {
      "name": "Bip01_L_Finger11_33",
      "rotation": [
        1.5475971792966448e-07,
        3.7268856090122426e-07,
        0.5331852436065674,
        0.8459986448287964
      ],
      "scale": [
        0.9999995827674866,
        1.0000003576278687,
        1.0000001192092896
      ],
      "translation": [
        3.2851574420928955,
        5.044853423896711e-13,
        -9.689338185125962e-06
      ]
    },
    {
      "children": [
        36
      ],
      "name": "Bip01_L_Finger2_30",
      "rotation": [
        0.1835843026638031,
        -0.011951201595366001,
        -0.5085545778274536,
        -0.8411457538604736
      ],
      "scale": [
        0.9999995231628418,
        1.0000008344650269,
        1.0000001192092896
      ],
      "translation": [
        11.201153755187988,
        0.8096913695335388,
        1.6271874904632568
      ]
    },
    {
      "name": "Bip01_L_Finger21_31",
      "rotation": [
        1.3906243623296177e-07,
        1.132333409259445e-07,
        0.6391697525978088,
        0.7690656781196594
      ],
      "scale": [
        0.9999991655349731,
        1.0000007152557373,
        0.9999997615814209
      ],
      "translation": [
        3.5778439044952393,
        -2.422332272544736e-06,
        -9.689338185125962e-06
      ]
    },
    {
      "children": [
        38
      ],
      "name": "Bip01_R_Clavicle_16",
      "rotation": [
        0.6942042112350464,
        0.08102701604366302,
        -0.7107497453689575,
        -0.07968741655349731
      ],
      "scale": [
        1.000000238418579,
        0.9999999403953552,
        0.9999997019767761
      ],
      "translation": [
        32.40628433227539,
        -1.9539484977722168,
        -4.271078586578369
      ]
    },
    {
      "children": [
        39
      ],
      "name": "Bip01_R_UpperArm_17",
      "rotation": [
        0.49303725361824036,
        -0.3475806415081024,
        -0.2109442800283432,
        0.7691583037376404
      ],
      "scale": [
        0.9999998807907104,
        0.9999998807907104,
        0.9999997019767761
      ],
      "translation": [
        14.380072593688965,
        1.2111660225855303e-06,
        -1.9378650904400274e-05
      ]
    },
    {
      "children": [
        40
      ],
      "name": "Bip01_R_Forearm_18",
      "rotation": [
        7.93061190051958e-08,
        7.062147489023118e-08,
        0.9240634441375732,
        -0.3822391927242279
      ],
      "scale": [
        1.0000001192092896,
        1.0000001192092896,
        1.0
      ],
      "translation": [
        27.392324447631836,
        -9.689338185125962e-06,
        -1.8900436771218665e-12
      ]
    },
    {
      "children": [
        41,
        43,
        45
      ],
      "name": "Bip01_R_Hand_19",
      "rotation": [
        0.940685510635376,
        0.09700596332550049,
        0.1912037432193756,
        -0.262948215007782
      ],
      "scale": [
        1.0000001192092896,
        1.0,
        1.0
      ],
      "translation": [
        17.383590698242188,
        4.844669092562981e-06,
        4.84466863781563e-06
      ]
    },
    {
      "children": [
        42
      ],
      "name": "Bip01_R_Finger0_24",
      "rotation": [
        0.6638777256011963,
        0.5856239199638367,
        -0.11669091135263443,
        -0.4502159655094147
      ],
      "scale": [
        1.0,
        1.0,
        0.9999996423721313
      ],
      "translation": [
        5.995610237121582,
        1.9613639116287231,
        3.5159084796905518
      ]
    },
    {
      "name": "Bip01_R_Finger01_25",
      "rotation": [
        1.9218515490138088e-07,
        7.000912916055313e-08,
        0.2473694533109665,
        0.9689212441444397
      ],
      "scale": [
        1.0,
        1.0000001192092896,
        1.0
      ],
      "translation": [
        3.2212228775024414,
        -4.84466863781563e-06,
        9.689338185125962e-06
      ]
    },
    {
      "children": [
        44
      ],
      "name": "Bip01_R_Finger1_22",
      "rotation": [
        0.0616396889090538,
        0.006265884730964899,
        -0.3446389138698578,
        -0.9366884827613831
      ],
      "scale": [
        1.0000003576278687,
        1.000000238418579,
        1.000000238418579
      ],
      "translation": [
        10.865574836730957,
        -0.48474887013435364,
        2.4381263256073
      ]
    },
    {
      "name": "Bip01_R_Finger11_23",
      "rotation": [
        1.4886958865645283e-07,
        -4.248808593843023e-08,
        -0.5331870317459106,
        -0.8459973931312561
      ],
      "scale": [
        1.0000001192092896,
        0.9999998807907104,
        0.9999999403953552
      ],
      "translation": [
        3.285139560699463,
        -1.4210854715202004e-14,
        1.4210854715202004e-14
      ]
    },
    {
      "children": [
        46
      ],
      "name": "Bip01_R_Finger2_20",
      "rotation": [
        0.1837814897298813,
        0.012311839498579502,
        0.39354589581489563,
        0.9006633162498474
      ],
      "scale": [
        1.0000001192092896,
        1.000000238418579,
        1.000000238418579
      ],
      "translation": [
        11.201149940490723,
        0.8097071051597595,
        -1.6271778345108032
      ]
    },
    {
      "name": "Bip01_R_Finger21_21",
      "rotation": [
        1.5347918491670498e-08,
        4.725971081143143e-08,
        0.6391699314117432,
        0.7690655589103699
      ],
      "scale": [
        0.9999998211860657,
        1.0000001192092896,
        0.9999998807907104
      ],
      "translation": [
        3.577833890914917,
        2.4223340915341396e-06,
        9.689338185125962e-06
      ]
    },
    {
      "children": [
        48
      ],
      "name": "Bip01_L_Thigh_10",
      "rotation": [
        0.10762442648410797,
        0.9904735088348389,
        0.08323072642087936,
        -0.021257741376757622
      ],
      "scale": [
        0.9999997019767761,
        0.9999999403953552,
        0.9999998211860657
      ],
      "translation": [
        -1.4534006368194241e-05,
        1.8470294889993966e-05,
        12.008796691894531
      ]
    },
    {
      "children": [
        49
      ],
      "name": "Bip01_L_Calf_11",
      "rotation": [
        -1.1263744603695613e-08,
        -1.4897823064075055e-07,
        -0.13871705532073975,
        0.9903320670127869
      ],
      "scale": [
        1.0000001192092896,
        1.000000238418579,
        1.0000001192092896
      ],
      "translation": [
        29.262527465820313,
        -1.0658141036401503e-14,
        -1.2111659088986926e-06
      ]
    },
    {
      "children": [
        50
      ],
      "name": "Bip01_L_Foot_12",
      "rotation": [
        -0.016964569687843323,
        0.006677424535155296,
        0.047773703932762146,
        0.9986917972564697
      ],
      "scale": [
        1.0,
        1.0000001192092896,
        1.0000001192092896
      ],
      "translation": [
        17.17428970336914,
        -1.0658141036401503e-14,
        -3.633495225585648e-06
      ]
    },
    {
      "name": "Bip01_L_Toe0_13",
      "rotation": [
        0.007535533048212528,
        0.0005418115179054439,
        0.73209148645401,
        0.6811644434928894
      ],
      "scale": [
        0.9999994039535522,
        1.0000007152557373,
        1.0
      ],
      "translation": [
        6.383174419403076,
        6.752739906311035,
        -8.068404895311687e-07
      ]
    },
    {
      "children": [
        52
      ],
      "name": "Bip01_R_Thigh_6",
      "rotation": [
        0.08514020591974258,
        0.9718971848487854,
        -0.21323998272418976,
        0.051922380924224854
      ],
      "scale": [
        1.0000001192092896,
        1.0000001192092896,
        1.0000001192092896
      ],
      "translation": [
        1.4534006368194241e-05,
        -1.4382597328221891e-05,
        -12.008796691894531
      ]
    },
    {
      "children": [
        53
      ],
      "name": "Bip01_R_Calf_7",
      "rotation": [
        -1.5582921619738954e-08,
        -1.5859600921430683e-07,
        -0.0770866647362709,
        0.997024416923523
      ],
      "scale": [
        0.9999998807907104,
        0.9999998807907104,
        0.9999998211860657
      ],
      "translation": [
        29.262500762939453,
        -2.4868995751603507e-14,
        1.2111659088986926e-06
      ]
    },
    {
      "children": [
        54
      ],
      "name": "Bip01_R_Foot_8",
      "rotation": [
        0.07500824332237244,
        0.01844860054552555,
        0.0035449215210974216,
        0.9970059394836426
      ],
      "scale": [
        1.0000001192092896,
        0.9999999403953552,
        0.9999999403953552
      ],
      "translation": [
        17.174299240112305,
        6.055842618479801e-07,
        -4.618527782440651e-14
      ]
    },
    {
      "name": "Bip01_R_Toe0_9",
      "rotation": [
        0.0075355228036642075,
        0.0005418636719696224,
        -0.7320915460586548,
        -0.6811643838882446
      ],
      "scale": [
        1.0,
        0.9999995827674866,
        0.9999999403953552
      ],
      "translation": [
        6.383175373077393,
        6.752737045288086,
        2.155186393792974e-06
      ]
    }
  ],
  "samplers": [
    {
      "magFilter": 9729,
      "minFilter": 9729,
      "wrapS": 10497,
      "wrapT": 10497
    }
  ],
  "scene": 0,
  "scenes": [
    {
      "name": "Sketchfab_Scene",
      "nodes": [
        0
      ]
    }
  ],
  "skins": [
    {
      "inverseBindMatrices": 5,
      "joints": [
        4,
        8,
        9,
        10,
        11,
        12,
        13,
        14,
        15,
        16,
        17,
        18,
        19,
        20,
        21,
        22,
        23,
        24,
        25,
        26,
        27,
        28,
        29,
        30,
        31,
        32,
        33,
        34,
        35,
        36,
        37,
        38,
        39,
        40,
        41,
        42,
        43,
        44,
        45,
        46,
        47,
        48,
        49,
        50,
        51,
        52,
        53,
        54
      ],
      "skeleton": 4
    }
  ],
  "textures": [
    {
      "sampler": 0,
      "source": 0
    },
    {
      "sampler": 0,
      "source": 1
    }
  ]
}
