{
  "accessors": [
    {
      "bufferView": 2,
      "componentType": 5126,
      "count": 3154,
      "max": [
        80.16980743408203,
        32.529605865478516,
        7.9122538566589355
      ],
      "min": [
        -51.18401336669922,
        -56.32599639892578,
        -13.38582706451416
      ],
      "type": "VEC3"
    },
    {
      "bufferView": 2,
      "byteOffset": 37848,
      "componentType": 5126,
      "count": 3154,
      "max": [
        1.0,
        1.0,
        1.0
      ],
      "min": [
        -1.0,
        -1.0,
        -1.0
      ],
      "type": "VEC3"
    },
    {
      "bufferView": 1,
      "componentType": 5126,
      "count": 3154,
      "max": [
        0.983712911605835,
        0.9969879984855652
      ],
      "min": [
        0.004638838581740856,
        0.0017059296369552612
      ],
      "type": "VEC2"
    },
    {
      "bufferView": 0,
      "componentType": 5125,
      "count": 4656,
      "type": "SCALAR"
    },
    {
      "bufferView": 2,
      "byteOffset": 75696,
      "componentType": 5126,
      "count": 8510,
      "max": [
        44.09109115600586,
        3.5407094955444336,
        4.710413932800293
      ],
      "min": [
        -49.245635986328125,
        -21.159059524536133,
        -13.824772834777832
      ],
      "type": "VEC3"
    },
    {
      "bufferView": 2,
      "byteOffset": 177816,
      "componentType": 5126,
      "count": 8510,
      "max": [
        0.9998771548271179,
        0.9996556639671326,
        0.9998542070388794
      ],
      "min": [
        -0.9998884797096252,
        -0.9993748068809509,
        -0.9997774362564087
      ],
      "type": "VEC3"
    },
    {
      "bufferView": 1,
      "byteOffset": 25232,
      "componentType": 5126,
      "count": 8510,
      "max": [
        0.9852510094642639,
        0.9929260015487671
      ],
      "min": [
        0.000526999996509403,
        0.0005460000247694552
      ],
      "type": "VEC2"
    },
    {
      "bufferView": 0,
      "byteOffset": 18624,
      "componentType": 5125,
      "count": 39984,
      "type": "SCALAR"
    }
  ],
  "asset": {
    "extras": {
      "author": "ShahPid (https://sketchfab.com/shsfu)",
      "license": "CC-BY-4.0 (http://creativecommons.org/licenses/by/4.0/)",
      "source": "https://sketchfab.com/3d-models/wooden-coffin-c2527af2f71e4993a2abf81e0a7620d0",
      "title": "Wooden Coffin"
    },
    "generator": "Sketchfab-12.65.0",
    "version": "2.0"
  },
  "bufferViews": [
    {
      "buffer": 0,
      "byteLength": 178560,
      "name": "floatBufferViews",
      "target": 34963
    },
    {
      "buffer": 0,
      "byteLength": 93312,
      "byteOffset": 178560,
      "byteStride": 8,
      "name": "floatBufferViews",
      "target": 34962
    },
    {
      "buffer": 0,
      "byteLength": 279936,
      "byteOffset": 271872,
      "byteStride": 12,
      "name": "floatBufferViews",
      "target": 34962
    }
  ],
  "buffers": [
    {
      "byteLength": 551808,
      "uri": "scene.bin"
    }
  ],
  "images": [
    {
      "uri": "textures/02_-_Default_baseColor.jpeg"
    }
  ],
  "materials": [
    {
      "doubleSided": true,
      "name": "02_-_Default",
      "pbrMetallicRoughness": {
        "baseColorTexture": {
          "index": 0
        },
        "metallicFactor": 0.0,
        "roughnessFactor": 0.6
      }
    },
    {
      "doubleSided": true,
      "name": "nails_nails_lowSG",
      "pbrMetallicRoughness": {
        "metallicFactor": 0.0,
        "roughnessFactor": 0.6
      }
    }
  ],
  "meshes": [
    {
      "name": "Coffin_02 - Default_0",
      "primitives": [
        {
          "attributes": {
            "NORMAL": 1,
            "POSITION": 0,
            "TEXCOORD_0": 2
          },
          "indices": 3,
          "material": 0,
          "mode": 4
        }
      ]
    },
    {
      "name": "Coffin_nails_nails_lowSG_0",
      "primitives": [
        {
          "attributes": {
            "NORMAL": 5,
            "POSITION": 4,
            "TEXCOORD_0": 6
          },
          "indices": 7,
          "material": 1,
          "mode": 4
        }
      ]
    }
  ],
  "nodes": [
    {
      "children": [
        1
      ],
      "matrix": [
        1.0,
        0.0,
        0.0,
        0.0,
        0.0,
        2.220446049250313e-16,
        -1.0,
        0.0,
        0.0,
        1.0,
        2.220446049250313e-16,
        0.0,
        0.0,
        0.0,
        0.0,
        1.0
      ],
      "name": "Sketchfab_model"
    },
    {
      "children": [
        2
      ],
      "matrix": [
        1.0,
        0.0,
        0.0,
        0.0,
        0.0,
        0.0,
        1.0,
        0.0,
        0.0,
        -1.0,
        0.0,
        0.0,
        0.0,
        0.0,
        0.0,
        1.0
      ],
      "name": "coffin.FBX"
    },
    {
      "children": [
        3
      ],
      "name": "RootNode"
    },
    {
      "children": [
        4,
        5
      ],
      "matrix": [
        1.0,
        0.0,
        0.0,
        0.0,
        0.0,
        2.220446049250313e-16,
        -1.0,
        0.0,
        0.0,
        1.0,
        2.220446049250313e-16,
        0.0,
        -22.342342376708984,
        13.38582706451416,
        -13.182592391967773,
        1.0
      ],
      "name": "Coffin"
    },
    {
      "mesh": 0,
      "name": "Coffin_02 - Default_0"
    },
    {
      "mesh": 1,
      "name": "Coffin_nails_nails_lowSG_0"
    }
  ],
  "samplers": [
    {
      "magFilter": 9729,
      "minFilter": 9987,
      "wrapS": 10497,
      "wrapT": 10497
    }
  ],
  "scene": 0,
  "scenes": [
    {
      "name": "Sketchfab_Scene",
      "nodes": [
        0
      ]
    }
  ],
  "textures": [
    {
      "sampler": 0,
      "source": 0
    }
  ]
}
