{
  "accessors": [
    {
      "bufferView": 2,
      "componentType": 5126,
      "count": 4260,
      "max": [
        3.9397964477539063,
        7.705821990966797,
        -20.273151397705078
      ],
      "min": [
        -1.9743404388427734,
        -2.2114245891571045,
        -33.926551818847656
      ],
      "type": "VEC3"
    },
    {
      "bufferView": 2,
      "byteOffset": 51120,
      "componentType": 5126,
      "count": 4260,
      "max": [
        1.0,
        1.0,
        1.0
      ],
      "min": [
        -1.0,
        -1.0,
        -1.0
      ],
      "type": "VEC3"
    },
    {
      "bufferView": 3,
      "componentType": 5126,
      "count": 4260,
      "max": [
        1.0,
        1.0,
        1.0,
        1.0
      ],
      "min": [
        -1.0,
        -1.0,
        -1.0,
        -1.0
      ],
      "type": "VEC4"
    },
    {
      "bufferView": 1,
      "componentType": 5126,
      "count": 4260,
      "max": [
        1.9325683116912842,
        0.987626850605011
      ],
      "min": [
        1.0116832256317139,
        0.012373045086860657
      ],
      "type": "VEC2"
    },
    {
      "bufferView": 0,
      "componentType": 5125,
      "count": 13797,
      "type": "SCALAR"
    }
  ],
  "asset": {
    "extras": {
      "author": "Tiago Lopes (https://sketchfab.com/drobluda)",
      "license": "CC-BY-4.0 (http://creativecommons.org/licenses/by/4.0/)",
      "source": "https://sketchfab.com/3d-models/locker-e3fde8fe782c41f0b141c9f1b8e13aa5",
      "title": "Locker"
    },
    "generator": "Sketchfab-12.68.0",
    "version": "2.0"
  },
  "bufferViews": [
    {
      "buffer": 0,
      "byteLength": 55188,
      "name": "floatBufferViews",
      "target": 34963
    },
    {
      "buffer": 0,
      "byteLength": 34080,
      "byteOffset": 55188,
      "byteStride": 8,
      "name": "floatBufferViews",
      "target": 34962
    },
    {
      "buffer": 0,
      "byteLength": 102240,
      "byteOffset": 89268,
      "byteStride": 12,
      "name": "floatBufferViews",
      "target": 34962
    },
    {
      "buffer": 0,
      "byteLength": 68160,
      "byteOffset": 191508,
      "byteStride": 16,
      "name": "floatBufferViews",
      "target": 34962
    }
  ],
  "buffers": [
    {
      "byteLength": 259668,
      "uri": "scene.bin"
    }
  ],
  "images": [
    {
      "uri": "textures/VRay_shader_cacifo_baseColor.jpeg"
    },
    {
      "uri": "textures/VRay_shader_cacifo_metallicRoughness.png"
    },
    {
      "uri": "textures/VRay_shader_cacifo_normal.png"
    }
  ],
  "materials": [
    {
      "doubleSided": true,
      "name": "VRay_shader_cacifo",
      "normalTexture": {
        "index": 2
      },
      "occlusionTexture": {
        "index": 1
      },
      "pbrMetallicRoughness": {
        "baseColorTexture": {
          "index": 0
        },
        "metallicRoughnessTexture": {
          "index": 1
        }
      }
    }
  ],
  "meshes": [
    {
      "name": "locker_merged_VRay_shader_cacifo_0",
      "primitives": [
        {
          "attributes": {
            "NORMAL": 1,
            "POSITION": 0,
            "TANGENT": 2,
            "TEXCOORD_0": 3
          },
          "indices": 4,
          "material": 0,
          "mode": 4
        }
      ]
    }
  ],
  "nodes": [
    {
      "children": [
        1
      ],
      "matrix": [
        1.0,
        0.0,
        0.0,
        0.0,
        0.0,
        2.220446049250313e-16,
        -1.0,
        0.0,
        0.0,
        1.0,
        2.220446049250313e-16,
        0.0,
        0.0,
        0.0,
        0.0,
        1.0
      ],
      "name": "Sketchfab_model"
    },
    {
      "children": [
        2
      ],
      "matrix": [
        0.009999999776482582,
        0.0,
        0.0,
        0.0,
        0.0,
        0.0,
        0.009999999776482582,
        0.0,
        0.0,
        -0.009999999776482582,
        0.0,
        0.0,
        0.0,
        0.0,
        0.0,
        1.0
      ],
      "name": "f17c1253288e4ccdb60f445000268271.fbx"
    },
    {
      "children": [
        3
      ],
      "name": "RootNode"
    },
    {
      "children": [
        4
      ],
      "name": "locker_low"
    },
    {
      "children": [
        5
      ],
      "name": "locker_merged"
    },
    {
      "mesh": 0,
      "name": "locker_merged_VRay_shader_cacifo_0"
    }
  ],
  "samplers": [
    {
      "magFilter": 9729,
      "minFilter": 9987,
      "wrapS": 10497,
      "wrapT": 10497
    }
  ],
  "scene": 0,
  "scenes": [
    {
      "name": "Sketchfab_Scene",
      "nodes": [
        0
      ]
    }
  ],
  "textures": [
    {
      "sampler": 0,
      "source": 0
    },
    {
      "sampler": 0,
      "source": 1
    },
    {
      "sampler": 0,
      "source": 2
    }
  ]
}
