{
  "accessors": [
    {
      "bufferView": 2,
      "componentType": 5126,
      "count": 78,
      "max": [
        0.32778000831604004,
        0.3784799873828888,
        0.1463399976491928
      ],
      "min": [
        -0.32778000831604004,
        -0.3784799873828888,
        0.023739999160170555
      ],
      "type": "VEC3"
    },
    {
      "bufferView": 2,
      "byteOffset": 936,
      "componentType": 5126,
      "count": 78,
      "max": [
        1.0,
        0.8660265803337097,
        1.0
      ],
      "min": [
        -1.0,
        -0.8660265803337097,
        -1.0
      ],
      "type": "VEC3"
    },
    {
      "bufferView": 1,
      "componentType": 5126,
      "count": 78,
      "max": [
        1.0,
        1.0
      ],
      "min": [
        0.0,
        0.0
      ],
      "type": "VEC2"
    },
    {
      "bufferView": 0,
      "componentType": 5125,
      "count": 168,
      "type": "SCALAR"
    },
    {
      "bufferView": 2,
      "byteOffset": 1872,
      "componentType": 5126,
      "count": 56,
      "max": [
        0.2929700016975403,
        0.5383300185203552,
        0.07462000101804733
      ],
      "min": [
        -0.2929700016975403,
        -0.375,
        0.0
      ],
      "type": "VEC3"
    },
    {
      "bufferView": 2,
      "byteOffset": 2544,
      "componentType": 5126,
      "count": 56,
      "max": [
        0.019009530544281006,
        0.26937374472618103,
        1.0
      ],
      "min": [
        -0.018324173986911774,
        -0.5412852168083191,
        0.8406531810760498
      ],
      "type": "VEC3"
    },
    {
      "bufferView": 1,
      "byteOffset": 624,
      "componentType": 5126,
      "count": 56,
      "max": [
        0.6875,
        1.0
      ],
      "min": [
        0.3125,
        0.125
      ],
      "type": "VEC2"
    },
    {
      "bufferView": 2,
      "byteOffset": 3216,
      "componentType": 5126,
      "count": 56,
      "max": [
        0.02605000138282776,
        0.0,
        0.0
      ],
      "min": [
        -0.028930000960826874,
        0.0,
        0.0
      ],
      "type": "VEC3"
    },
    {
      "bufferView": 2,
      "byteOffset": 3888,
      "componentType": 5126,
      "count": 56,
      "max": [
        0.06652999669313431,
        0.0,
        0.06126999855041504
      ],
      "min": [
        -0.04642000049352646,
        0.0,
        -0.051420003175735474
      ],
      "type": "VEC3"
    },
    {
      "bufferView": 0,
      "byteOffset": 672,
      "componentType": 5125,
      "count": 252,
      "type": "SCALAR"
    },
    {
      "bufferView": 2,
      "byteOffset": 4560,
      "componentType": 5126,
      "count": 56,
      "max": [
        0.2929700016975403,
        0.5383300185203552,
        0.07462000101804733
      ],
      "min": [
        -0.2929700016975403,
        -0.375,
        0.0
      ],
      "type": "VEC3"
    },
    {
      "bufferView": 2,
      "byteOffset": 5232,
      "componentType": 5126,
      "count": 56,
      "max": [
        0.019009530544281006,
        0.26937374472618103,
        1.0
      ],
      "min": [
        -0.018324173986911774,
        -0.5412852168083191,
        0.8406531810760498
      ],
      "type": "VEC3"
    },
    {
      "bufferView": 1,
      "byteOffset": 1072,
      "componentType": 5126,
      "count": 56,
      "max": [
        0.6875,
        1.0
      ],
      "min": [
        0.3125,
        0.125
      ],
      "type": "VEC2"
    },
    {
      "bufferView": 2,
      "byteOffset": 5904,
      "componentType": 5126,
      "count": 56,
      "max": [
        0.02605000138282776,
        0.0,
        0.0
      ],
      "min": [
        -0.028930000960826874,
        0.0,
        0.0
      ],
      "type": "VEC3"
    },
    {
      "bufferView": 2,
      "byteOffset": 6576,
      "componentType": 5126,
      "count": 56,
      "max": [
        0.06652999669313431,
        0.0,
        0.06126999855041504
      ],
      "min": [
        -0.04642000049352646,
        0.0,
        -0.051420003175735474
      ],
      "type": "VEC3"
    },
    {
      "bufferView": 0,
      "byteOffset": 1680,
      "componentType": 5125,
      "count": 252,
      "type": "SCALAR"
    },
    {
      "bufferView": 3,
      "componentType": 5126,
      "count": 2,
      "max": [
        0.041669998317956924
      ],
      "min": [
        0.0
      ],
      "type": "SCALAR"
    },
    {
      "bufferView": 4,
      "componentType": 5126,
      "count": 2,
      "max": [
        0.09086000174283981,
        -0.021859999746084213,
        0.0791499987244606
      ],
      "min": [
        0.09086000174283981,
        -0.021859999746084213,
        0.0791499987244606
      ],
      "type": "VEC3"
    },
    {
      "bufferView": 3,
      "byteOffset": 8,
      "componentType": 5126,
      "count": 2,
      "max": [
        0.041669998317956924
      ],
      "min": [
        0.0
      ],
      "type": "SCALAR"
    },
    {
      "bufferView": 5,
      "componentType": 5126,
      "count": 2,
      "max": [
        0.5,
        0.5,
        0.5,
        0.5
      ],
      "min": [
        0.5,
        0.5,
        0.5,
        0.5
      ],
      "type": "VEC4"
    },
    {
      "bufferView": 3,
      "byteOffset": 16,
      "componentType": 5126,
      "count": 2,
      "max": [
        0.041669998317956924
      ],
      "min": [
        0.0
      ],
      "type": "SCALAR"
    },
    {
      "bufferView": 4,
      "byteOffset": 24,
      "componentType": 5126,
      "count": 2,
      "max": [
        0.9416999816894531,
        0.9416999816894531,
        0.9416999816894531
      ],
      "min": [
        0.9416999816894531,
        0.9416999816894531,
        0.9416999816894531
      ],
      "type": "VEC3"
    },
    {
      "bufferView": 3,
      "byteOffset": 24,
      "componentType": 5126,
      "count": 2,
      "max": [
        0.041669998317956924
      ],
      "min": [
        0.0
      ],
      "type": "SCALAR"
    },
    {
      "bufferView": 4,
      "byteOffset": 48,
      "componentType": 5126,
      "count": 2,
      "max": [
        0.02582000009715557,
        -0.021859999746084213,
        0.15255999565124512
      ],
      "min": [
        0.02582000009715557,
        -0.021859999746084213,
        0.15255999565124512
      ],
      "type": "VEC3"
    },
    {
      "bufferView": 3,
      "byteOffset": 32,
      "componentType": 5126,
      "count": 2,
      "max": [
        0.041669998317956924
      ],
      "min": [
        0.0
      ],
      "type": "SCALAR"
    },
    {
      "bufferView": 5,
      "byteOffset": 32,
      "componentType": 5126,
      "count": 2,
      "max": [
        0.5,
        0.5,
        0.5,
        0.5
      ],
      "min": [
        0.5,
        0.5,
        0.5,
        0.5
      ],
      "type": "VEC4"
    },
    {
      "bufferView": 3,
      "byteOffset": 40,
      "componentType": 5126,
      "count": 2,
      "max": [
        0.041669998317956924
      ],
      "min": [
        0.0
      ],
      "type": "SCALAR"
    },
    {
      "bufferView": 4,
      "byteOffset": 72,
      "componentType": 5126,
      "count": 2,
      "max": [
        1.2436699867248535,
        1.2436699867248535,
        1.2436699867248535
      ],
      "min": [
        1.2436699867248535,
        1.2436699867248535,
        1.2436699867248535
      ],
      "type": "VEC3"
    },
    {
      "bufferView": 3,
      "byteOffset": 48,
      "componentType": 5126,
      "count": 2,
      "max": [
        0.041669998317956924
      ],
      "min": [
        0.0
      ],
      "type": "SCALAR"
    },
    {
      "bufferView": 3,
      "byteOffset": 56,
      "componentType": 5126,
      "count": 4,
      "max": [
        1.0
      ],
      "min": [
        0.0
      ],
      "type": "SCALAR"
    },
    {
      "bufferView": 3,
      "byteOffset": 72,
      "componentType": 5126,
      "count": 2,
      "max": [
        0.041669998317956924
      ],
      "min": [
        0.0
      ],
      "type": "SCALAR"
    },
    {
      "bufferView": 3,
      "byteOffset": 80,
      "componentType": 5126,
      "count": 4,
      "max": [
        1.0
      ],
      "min": [
        0.0
      ],
      "type": "SCALAR"
    }
  ],
  "animations": [
    {
      "channels": [
        {
          "sampler": 0,
          "target": {
            "node": 6,
            "path": "translation"
          }
        },
        {
          "sampler": 1,
          "target": {
            "node": 6,
            "path": "rotation"
          }
        },
        {
          "sampler": 2,
          "target": {
            "node": 6,
            "path": "scale"
          }
        },
        {
          "sampler": 3,
          "target": {
            "node": 4,
            "path": "translation"
          }
        },
        {
          "sampler": 4,
          "target": {
            "node": 4,
            "path": "rotation"
          }
        },
        {
          "sampler": 5,
          "target": {
            "node": 4,
            "path": "scale"
          }
        },
        {
          "sampler": 6,
          "target": {
            "node": 5,
            "path": "weights"
          }
        },
        {
          "sampler": 7,
          "target": {
            "node": 7,
            "path": "weights"
          }
        }
      ],
      "name": "Take 01",
      "samplers": [
        {
          "input": 16,
          "interpolation": "LINEAR",
          "output": 17
        },
        {
          "input": 18,
          "interpolation": "LINEAR",
          "output": 19
        },
        {
          "input": 20,
          "interpolation": "LINEAR",
          "output": 21
        },
        {
          "input": 22,
          "interpolation": "LINEAR",
          "output": 23
        },
        {
          "input": 24,
          "interpolation": "LINEAR",
          "output": 25
        },
        {
          "input": 26,
          "interpolation": "LINEAR",
          "output": 27
        },
        {
          "input": 28,
          "interpolation": "LINEAR",
          "output": 29
        },
        {
          "input": 30,
          "interpolation": "LINEAR",
          "output": 31
        }
      ]
    }
  ],
  "asset": {
    "extras": {
      "author": "Chaitanya Krishnan (https://sketchfab.com/chaitanyak)",
      "license": "CC-BY-4.0 (http://creativecommons.org/licenses/by/4.0/)",
      "source": "https://sketchfab.com/3d-models/flame-test-2-26b275b13d1d4f09b2e7eac5cf4ec618",
      "title": "Flame Test 2"
    },
    "generator": "Sketchfab-12.68.0",
    "version": "2.0"
  },
  "bufferViews": [
    {
      "buffer": 0,
      "byteLength": 2688,
      "name": "floatBufferViews",
      "target": 34963
    },
    {
      "buffer": 0,
      "byteLength": 1520,
      "byteOffset": 2688,
      "byteStride": 8,
      "name": "floatBufferViews",
      "target": 34962
    },
    {
      "buffer": 0,
      "byteLength": 7248,
      "byteOffset": 4208,
      "byteStride": 12,
      "name": "floatBufferViews",
      "target": 34962
    },
    {
      "buffer": 0,
      "byteLength": 96,
      "byteOffset": 11456,
      "name": "floatBufferViews"
    },
    {
      "buffer": 0,
      "byteLength": 96,
      "byteOffset": 11552,
      "byteStride": 12,
      "name": "floatBufferViews"
    },
    {
      "buffer": 0,
      "byteLength": 64,
      "byteOffset": 11648,
      "byteStride": 16,
      "name": "floatBufferViews"
    }
  ],
  "buffers": [
    {
      "byteLength": 11712,
      "uri": "scene.bin"
    }
  ],
  "images": [
    {
      "uri": "textures/fire__png__by_ivaxxx-d86iymh_green_baseColor.png"
    },
    {
      "uri": "textures/fire__png__by_ivaxxx-d86iymh_green_emissive.png"
    },
    {
      "uri": "textures/stone_baseColor.png"
    }
  ],
  "materials": [
    {
      "alphaMode": "BLEND",
      "doubleSided": true,
      "emissiveFactor": [
        1.0,
        1.0,
        1.0
      ],
      "emissiveTexture": {
        "index": 1
      },
      "name": "fire__png__by_ivaxxx-d86iymh_green",
      "pbrMetallicRoughness": {
        "baseColorFactor": [
          1.0,
          1.0,
          1.0,
          0.98
        ],
        "baseColorTexture": {
          "index": 0
        },
        "metallicFactor": 0.0,
        "roughnessFactor": 0.6
      }
    },
    {
      "doubleSided": true,
      "name": "stone",
      "pbrMetallicRoughness": {
        "baseColorTexture": {
          "index": 2
        },
        "metallicFactor": 0.0,
        "roughnessFactor": 0.6
      }
    }
  ],
  "meshes": [
    {
      "name": "Cylinder_0",
      "primitives": [
        {
          "attributes": {
            "NORMAL": 1,
            "POSITION": 0,
            "TEXCOORD_0": 2
          },
          "indices": 3,
          "material": 1,
          "mode": 4
        }
      ]
    },
    {
      "name": "fire__png__by_ivaxxx-d86iymh green_0",
      "primitives": [
        {
          "attributes": {
            "NORMAL": 5,
            "POSITION": 4,
            "TEXCOORD_0": 6
          },
          "indices": 9,
          "material": 0,
          "mode": 4,
          "targets": [
            {
              "POSITION": 7
            },
            {
              "POSITION": 8
            }
          ]
        }
      ],
      "weights": [
        0.0,
        0.0
      ]
    },
    {
      "name": "fire__png__by_ivaxxx-d86iymh green.001_0",
      "primitives": [
        {
          "attributes": {
            "NORMAL": 11,
            "POSITION": 10,
            "TEXCOORD_0": 12
          },
          "indices": 15,
          "material": 0,
          "mode": 4,
          "targets": [
            {
              "POSITION": 13
            },
            {
              "POSITION": 14
            }
          ]
        }
      ],
      "weights": [
        0.0,
        0.0
      ]
    }
  ],
  "nodes": [
    {
      "children": [
        1
      ],
      "matrix": [
        2.202519655227661,
        0.0,
        0.0,
        0.0,
        0.0,
        4.890576066846422e-16,
        -2.202519655227661,
        0.0,
        0.0,
        2.202519655227661,
        4.890576066846422e-16,
        0.0,
        0.0,
        0.0,
        0.0,
        1.0
      ],
      "name": "Sketchfab_model"
    },
    {
      "children": [
        2,
        4,
        6
      ],
      "name": "Root"
    },
    {
      "children": [
        3
      ],
      "matrix": [
        1.0,
        0.0,
        0.0,
        0.0,
        0.0,
        1.0,
        0.0,
        0.0,
        0.0,
        0.0,
        1.0,
        0.0,
        0.08820000000000003,
        -0.037380000000000004,
        -0.3464400000000001,
        1.0
      ],
      "name": "Cylinder"
    },
    {
      "mesh": 0,
      "name": "Cylinder_0"
    },
    {
      "children": [
        5
      ],
      "name": "fire__png__by_ivaxxx-d86iymh green",
      "rotation": [
        0.5,
        0.5,
        0.5,
        0.5
      ],
      "scale": [
        1.2436699867248535,
        1.2436699867248535,
        1.2436699867248535
      ],
      "translation": [
        0.02582000009715557,
        -0.021859999746084213,
        0.15255999565124512
      ]
    },
    {
      "mesh": 1,
      "name": "fire__png__by_ivaxxx-d86iymh green_0"
    },
    {
      "children": [
        7
      ],
      "name": "fire__png__by_ivaxxx-d86iymh green.001",
      "rotation": [
        0.5,
        0.5,
        0.5,
        0.5
      ],
      "scale": [
        0.9416999816894531,
        0.9416999816894531,
        0.9416999816894531
      ],
      "translation": [
        0.09086000174283981,
        -0.021859999746084213,
        0.0791499987244606
      ]
    },
    {
      "mesh": 2,
      "name": "fire__png__by_ivaxxx-d86iymh green.001_0"
    }
  ],
  "samplers": [
    {
      "magFilter": 9729,
      "minFilter": 9987,
      "wrapS": 10497,
      "wrapT": 10497
    }
  ],
  "scene": 0,
  "scenes": [
    {
      "name": "Sketchfab_Scene",
      "nodes": [
        0
      ]
    }
  ],
  "textures": [
    {
      "sampler": 0,
      "source": 0
    },
    {
      "sampler": 0,
      "source": 1
    },
    {
      "sampler": 0,
      "source": 2
    }
  ]
}
